<mxfile host="app.diagrams.net" modified="2022-03-31T07:49:21.033Z" agent="5.0 (Windows NT 10.0; WOW64) AppleWebKit/537.36 (KHTML, like Gecko) Chrome/99.0.4844.82 Safari/537.36" etag="492K6C_wHhkMoaqsOGrO" version="17.1.4" type="github">
  <diagram id="YKyhdSbj7yZedNLtmxMB" name="Page-1">
    <mxGraphModel dx="121" dy="508" grid="1" gridSize="10" guides="1" tooltips="1" connect="1" arrows="1" fold="1" page="1" pageScale="1" pageWidth="827" pageHeight="1169" math="1" shadow="0">
      <root>
        <mxCell id="0" />
        <mxCell id="1" parent="0" />
        <mxCell id="1TEJy7Q_EAJVrFstwn4l-1" value="" style="shape=image;verticalLabelPosition=bottom;labelBackgroundColor=default;verticalAlign=top;aspect=fixed;imageAspect=0;image=data:image/png,iVBORw0KGgoAAAANSUhEUgAAB4AAAASfCAYAAADsyuAVAAAABHNCSVQICAgIfAhkiAAAAAlwSFlzAAAuIwAALiMBeKU/dgAAADh0RVh0U29mdHdhcmUAbWF0cGxvdGxpYiB2ZXJzaW9uMy4xLjMsIGh0dHA6Ly9tYXRwbG90bGliLm9yZy+AADFEAAAgAElEQVR4nOzdeZhcV30n/G9V79paUmvfJUuWZVu2ZRnjHbMbzBYWBxJIMgkwIWGbTMiQvJMEJpmZvCGThAAZSEhg2ExeMAwGgw0mxnjfJNtC3mRbi7XvW6v3qvcP2cTEUqsl9abbn8/z1FPdfc+59et6bt/qqu8955Sq1Wo1AAAAAAAAAJzyykNdAAAAAAAAAAD9QwAMAAAAAAAAUBACYAAAAAAAAICCEAADAAAAAAAAFIQAGAAAAAAAAKAgBMAAAAAAAAAABSEABgAAAAAAACgIATAAAAAAAABAQQiAAQAAAAAAAApCAAwAAAAAAABQEAJgAAAAAAAAgIIQAAMAAAAAAAAUhAAYAAAAAAAAoCAEwAAAAAAAAAAFIQAGAAAAAAAAKAgBMAAAAAAAAEBBCIABAAAAAAAACkIADAAAAAAAAFAQAmAAAAAAAACAghAAAwAAAAAAABSEABgAAAAAAACgIATAAAAAAAAAAAUhAAYAAAAAAAAoCAEwAAAAAAAAQEEIgAEAAAAAAAAKQgAMAAAAAAAAUBACYAAAAAAAAICCEAADAAAAAAAAFIQAGAAAAAAAAKAgBMAAAAAAAAAABSEABgAAAAAAACgIATAAAAAAAABAQQiAAQAAAAAAAApCAAwAAAAAAABQEAJgAAAAAAAAgIIQAAMAAAAAAAAUhAAYAAAAAAAAoCAEwAAAAAAAAAAFIQAGAAAAAAAAKAgBMAAAAAAAAEBBCIABAAAAAAAACkIADAAAAAAAAFAQAmAAAAAAAACAghAAAwAAAAAAABSEABgAAAAAAACgIATAAAAAAAAAAAUhAAYAAAAAAAAoCAEwAAAAAAAAQEEIgAEAAAAAAAAKQgAMAAAAAAAAUBACYAAAAAAAAICCEAADAAAAAAAAFIQAGAAAAAAAAKAgBMAAAAAAAAAABSEABgAAAAAAACgIATAAAAAAAABAQQiAAQAAAAAAAApCAAwAAAAAAABQEAJgAAAAAAAAgIIQAAMAAAAAAAAUhAAYAAAAAAAAoCAEwAAAAAAAAAAFIQAGAAAAAAAAKAgBMAAAAAAAAEBBCIABAAAAAAAACkIADAAAAAAAAFAQAmAAAAAAAACAghAAAwAAAAAAABSEABgAAAAAAACgIATAAAAAAAAAAAUhAAYAAAAAAAAoCAEwAAAAAAAAQEEIgAEAAAAAAAAKQgAMAAAAAAAAUBACYAAAAAAAAICCEAADAAAAAAAAFIQAGAAAAAAAAKAgBMAAAAAAAAAABSEABgAAAAAAACgIATAAAAAAAABAQQiAAQAAAAAAAApCAAwAAAAAAABQEAJgAAAAAAAAgIIQAAMAAAAAAAAUhAAYAAAAAAAAoCAEwAAAAAAAAAAFIQAGAAAAAAAAKAgBMAAAAAAAAEBBCIABAAAAAAAACkIADAAAAAAAAFAQAmAAAAAAAACAghAAAwAAAAAAABSEABgAAAAAAACgIATAAAAAAAAAAAUhAAYAAAAAAAAoCAEwAAAAAAAAQEEIgAEAAAAAAAAKQgAMAAAAAAAAUBACYAAAAAAAAICCEAADAAAAAAAAFIQAGAAAAAAAAKAgBMAAAAAAAAAABSEABgAAAAAAACgIATAAAAAAAABAQQiAAQAAAAAAAApCAAwAAAAAAABQEAJgAAAAAAAAgIIQAAMAAAAAAAAUhAAYAAAAAAAAoCAEwAAAAAAAAAAFIQAGAAAAAAAAKAgBMAAAAAAAAEBBCIABAAAAAAAACkIADAAAAAAAAFAQAmAAAAAAAACAghAAAwAAAAAAABSEABgAAAAAAACgIATAAAAAAAAAAAUhAAYAAAAAAAAoCAEwAAAAAAAAQEEIgAEAAAAAAAAKQgAMAAAAAAAAUBACYAAAAAAAAICCEAADAAAAAAAAFIQAGAAAAAAAAKAgBMAAAAAAAAAABSEABgAAAAAAACgIATAAAAAAAABAQQiAAQAAAAAAAApCAAwAAAAAAABQEAJgAAAAAAAAgIIQAAMAAAAAAAAUhAAYAAAAAAAAoCAEwAAAAAAAAAAFIQAGAAAAAAAAKAgBMAAAAAAAAEBBCIABAAAAAAAACkIADAAAAAAAAFAQAmAAAAAAAACAghAAAwAAAAAAABSEABgAAAAAAACgIATAAAAAAAAAAAUhAAYAAAAAAAAoCAEwAAAAAAAAQEEIgAEAAAAAAAAKQgAMAAAAAAAAUBACYAAAAAAAAICCEAADAAAAAAAAFIQAGAAAAAAAAKAgBMAAAAAAAAAABSEABgAAAAAAACgIATAAAAAAAABAQQiAAQAAAAAAAApCAAwAAAAAAABQEAJgAAAAAAAAgIIQAAMAAAAAAAAUhAAYAAAAAAAAoCAEwAAAAAAAAAAFIQAGAAAAAAAAKAgBMAAAAAAAAEBBCIABAAAAAAAACkIADAAAAAAAAFAQAmAAAAAAAACAghAAAwAAAAAAABSEABgAAAAAAACgIATAAAAAAAAAAAUhAAYAAAAAAAAoCAEwAAAAAAAAQEEIgAEAAAAAAAAKQgAMAAAAAAAAUBACYAAAAAAAAICCEAADAAAAAAAAFIQAGAAAAAAAAKAgBMAAAAAAAAAABSEABgAAAAAAACgIATAAAAAAAABAQQiAAQAAAAAAAApCAAwAAAAAAABQEAJgAAAAAAAAgIKoHeoCAAAAYKB1dldyoL0rB9q7D986utLW2ZO2rp60dfakveu5rytp6zr8fUd3Jd09lXRXqunqqaS7p5ruSiVdz95XKi98nFLpF7+uKZdTX1NKbbmc2ppS6mrKqasppbamnLpyKY11NWmqr0nTv7sfVV+TxrqajK6vzbimuoxrrM3YxrrU17qOGwAAgN4JgAEAADhlVKvV7Gvrys6DndlzqDO7nr3f3Xr4tqe1M7sPdWbPoa6fB77727rS0X2EtPYU1FhXztjGw4Hw4WC4LhNH12fCqPq0jKl/wdcTR9Vn/Ki6lJ6fTAMAAFBopWq1Wh3qIgAAAKC9qyeb9rZl8962bNvfkW3727PjwOH7bfvbs/1AR7Yf6EhnQcLcwVJfU87ksQ2ZOq4hU8c1Zuq4xme/b8zUcQ2Z3tyYmeNHpam+ZqhLBQAAoB8IgAEAABgUhzq7s37XoWzYfSib9rT9POzdtLctm/a0ZVdr51CXOKJNHF2fmeObDt8mNGXWhMNfz5owKnNbRmV0g0nEAAAATgUCYAAAAPrNwY7urN3RmnW7WrN+V2vW7zqU9bsOZd2u1mw/0DHU5XESJo9tyLyWUZnbMjrzJ43O3JZRmddy+H5sY91QlwcAAMCzBMAAAAAcl2q1ml2tnXly+8EX3Lbubx/q8hgCU8c1ZOGUMVk0ZWxOmzImi6aMycIpY9Iyut76wwAAAINMAAwAAMBRHerszuNbD+TRLQfy2Nb9eWzLgTyx/UD2Huoa6tJOWlNdTZrqa9JUV5PGuvLzvj58X19bTl1NObXlUmpryqmrKaW2/Ox9TSnlUinPjzb//ZvrSrWa7ko1Xd3VdFcq6eqpprunkq6eSroq1XR1V9LeXUl7Z08OdXWnrbPn8K3r8K2969Rf63jCqLosnDImi6eNzZLp47Jk+rgsnjrWdNIAAAADSAAMAABAqtVqtu5vz6qN+34e9j66ZX/W7z6U4fyusamuJhNH12fi6PpMGF2fltH1mTCqPhNH12VcU13GNtZmbMOz942H78c11WVMQ21qysN7ZGpPpZrWzu4caO/O/raun9/vb/+3r/e2dWV3a+cv3Ha1dgzr8LhUSuZOHPXzQPiMaWNz9szmTG9uNFoYAACgHwiAAQAARqBtz4a9D2/al1Ub92bVpv3ZeXD4rNE7aUx9poxtzJRxDZn67P2UcY2ZMrYhU8Y2ZPLYhrSMbkhTfc1QlzostXX2ZFdrR3Ye7Mz2/e3ZdqDj8P3+9mw/0JFt+w9/v6u1c6hL/blJY+qzdGZzls4an3NmNuecWc2ZMq5xqMsCAAA45QiAAQAACq61ozsPbdyblRv2ZuWGPXl4475sP3B8YW/L6IZ84q3Lj7jtI998ILta+76/2nIpM8Y3Zeb4psyc8Oz9876e1tyYxjrB7mDo6O7Jlr3t2bS3LZv2tGXjs/eb9h7Kpr1t2bK3Pd2Vvn9s0J/HSXJ4beGlM8fn3FnNWT53Qs6dPd700QAAAMfgXRMAAECBVKvVrN91KCs27Dl8W783j23dn+PI8PpFQ205cyaOytyW0ZnXMipzJx2+n9cyOtObG1NbUx7cgjiihtqazJs0OvMmjT7i9p5KNZv3tmXdrtas23Uo63e2/vzrDbsOpbNnYKea3ra/I9v2b8vNj25LkpRLyRnTxuX8ueOzfO6EnD9nQuZMHGXqaAAAgOcRAAMAAJzCeirVPLplf+5Zuzv3rt2V+9ftGfRpfc+Z1ZxpzQ05bfKYLJxy+DajuSnlYb7GLsdWUy5l9sRRmT1xVC5f9IvbeirVbNnXlqd2tObJ7Qfz5PYD2bZvYKcRr1STR7bszyNb9ucrd29Icnjq6PPnTMiF8yfmogUtWTJ93LBf3xkAAGAgmQIaAADgFNLVU8mqTfty79rduXft7ty3bncOtHcP+OPOmtCU//aGZUfcdvFp40bkWrzdlUoOtPUccdvYpprUlkfeKOe2zp7c9dT+I2770+tX5pk9bQNew9jG2rxo3sS8eP7EvHhBS86eMc6IcwAAYEQRAAMAAAxjlUo1j209kDue3Jnbn9yZ+9btzqHOI4eO/WX2xKacOX1czpg2Lkumj8uS6WMzaUxD7nn6wBHbj9QAeE9rV1ZuOHjEbcvmjMmE0XWDXNHQ6y0AfvGCsdl5sCOPbtmfR7ccOHy/dX+e2T2wofDo+ppcMG9iLl3YkssWTs4Z08YanQ4AABSaKaABAACGmY17Dj0b+O7KnU/uHNApnWeOb8o5s5pz9szmw/czmjNhdP0L2rUNcOhM8ZVLpcxtGZ25LaNz1dnTf/7zfYe6smrTvjy8aW9WbdyXhzfuy6a9/RcKt3b25NYnduTWJ3YkeSwto+tzycJJuXzhpFy6aFJmjm/qt8cCAAAYDgTAAAAAQ6ytsyd3Pb0ztzy2I7et2ZF1uw4NyOOMH1WXZbPHZ9mcCTl39vgsndmciUcIe2EwNY+qy2WLJuWyRZN+/rNdBzsOh8Ib9+XBZ/ZmxYY92Xuoq18eb1drZ7770OZ896HNSZL5k0bn0oUteeniKbn4tJaMqvdRCQAAcGrzrgYAAGAIrN3Zmlse256fPLEjdz+9K53dlX7df6mULJ46NsvmTMj5c8bn/LkTsmDS6JRKpr5l+GsZ05ArF0/JlYunJEmq1Wqe3tmaFev3ZMWGPVmxfm+e2H4g/bGo1dqdrVm7szVfuXtD6mvLefH8iXnp4il56RlTMn/S6JN/AAAAgEFmDWAAAIBB0Nldyd1P78q/PrY9tzy+Pev7eZRvfU05580enwvnT8yF8yfmvDnjM66x/9ag7W1tV2sAv5A1gF+ov4+T/e1deXDD3ty/bnfuXrs7D27Ym86e/r2QYl7LqFz5bBh80YKJaagdecc5AABw6jECGAAAYIDsa+vKTx7fnh8+si23Pr4jBzu6+23fTXU1WT53wr8FvrPHp7FOOMXIMa6xLlecPjlXnD45SdLe1ZMHn9mbe57enXvW7sqKDXvS3nVygfC6XYfyxTvX5Yt3rsuYhtq85PTJedVZU3Pl4ilpbhp5AT8AAHBqEAADAAD0o417DuXmR7blR49uyz1P7053pX8mXaqrKWXZnAm5bOGkXLqwJUtnjk99bblf9g1F0FhXk4sWtOSiBS1JFqWzu5KHN+7NXU/tyu1P7syKDXvS1XPif48HO7pzw6otuWHVltSWS7loQUteeebUvPLMqZkxvqn/fhEAAICTZApoAACAk7R+V2u+v2prvr9qS1Zt2tdv+10yfVwuW9iSSxdOyoXzJ2ZU/dBdw2sK6BcyBfQLDefjpLWjO/eu25071uzM7U/uzGNbD/TbvpfObM5VZ0/L1UunZ551gwEAgCFmBDAAAMAJWLuzNd9ftSXfX7UlqzcfOfA6Xi2j6/OS0yfnJYsn59KFkzJpTEO/7BdIRjfU5qWLp+Sli6ckSbYfaM+dT+7KT9fsyK2P78iu1s4T3veqTfuyatO+fOKmx3Pm9HG5+pzpee3S6ZkvDAYAAIaAABgAAKCP1u1szXcf2pwbVm3pl9GDpVJy7qzxuXLx5Lx08ZQsndmccrnUD5UCxzJlbGPetGxm3rRsZiqValZt2pdbHt+eWx7fkYc37s2Jzpf2yJb9eWTL/nzipsezZPq4XL10Wq4+Z4YwGAAAGDSmgAYAAOjF9gPt+d5DW/KdhzbnoWf2nvT+xjbW5srFU/LyM6bk8kWT0nKKjPIdzlP7DhVTQL9QUY6TXQc78tM1O/Kvj+3ITx7fngPt3Se9z3NmNeeN583M68+dniljG/uhSgAAgCMTAAMAAPw7+9u7ctPPtub6hzbnjid3pnKS75pmNDfmlWdOzSvPnJYL509MfW25fwodREUJ9vqTAPiFinicdPVUcu/a3fnh6q350SPbsnlf+0ntr1xKLl04KW88b2ZefdbUjG0ceccJAAAwsATAAAAAORzy/PSJHbluxcbc/Oj2dHZXTmp/Z04f92zoOzVnzRiXUunUntq5iMHeyRIAv1DRj5NqtZrVm/fnh49sy48e2ZZHt5zc+t8NteW8YsnUvGnZzFy5eHLqak69i0MAAIDhxxrAAADAiPb41gP55gPP5NsrN2fnwY6T2te5s5rz2qXT89ql0zN74qh+qhAYLkqlUs6e2ZyzZzbn9155ep7ZfSg/+NmW3LBq6wlNEd/RXckNq7bkhlVbMmlMfd503sy87YLZWTxt7ABUDwAAjBRGAAMAACPOntbOXP/Q5nzzgY1ZtWnfC7a3jG7IJ966/Ih9P/LNB7Kr9d+C4vNmj8/VS6fnqrOnFTr0LfrIzhNhBPALjeTjZOOeQ/nBqq25YdWWPPi8MPh4zifPWTqzOW+7YFbecO6MjB9VP2A1AwAAxWQEMAAAMCJUKtXc8dTOXHvvhtz8yPZ09pz4FM/nzh6f158zPa9ZOj0zxzf1Y5XAqWrWhFF5zxUL8p4rFvw8DP7eqi3ZuLvtuPe1atO+rNq0L3/+vUfzyjOn5m0XzMoViyanXD61p5IHAAAGhwAYAAAotO0H2vON+zfm6/dtyDMnEMT8e9e+96KcPnVMP1QGFNXzw+A12w7mmd1dJ7Sfzp5/myJ61oSmvP1Fs3PNBbMzZVxjP1cMAAAUiQAYAAAonEqlmtue3Jlr79mQmx/dlu5K/618M3uCEb9A382a0HTCAfDzbdzTlr/64RP525vX5BVLpuYdL56TyxdOMioYAAB4AQEwAABQGDsPduRf7nsm1967IRv3nNho36a6mlx19tR+ruzU11Rfk5ctmTDUZTDMOU6Oz2vOnpbrVmxMW1dPn/t0V6q5cfXW3Lh6a2ZNaMo7LpyTay6YncljGwawUgAA4FRSqlar/XcpPAAAwBB48Jm9+dKd6/K9h7ec8Nq+F86fmLcun5XXLp2emlIpdz21/4jtLj5tXJrqa06mXApiT2tXVm44eMRty+aMyYTRdYNcEcNRW2dPr+eTnmo131+1Jd+8f2PuXbf7hB6jvqacq8+Znl+7eG6WzRHAAwDASGcEMAAAcEpq7+rJDQ9vyZfuWpeHNu47oX3MHN+UtyyflbecPzNzW0b//OdtnX0fjQdwMsY01OaaCw6v7btuZ2uuW7Ex1z2wMZv3tfd5H509lXx75aZ8e+WmnDurOb928by87tzpaah1sQoAAIxERgADAACnlC372vLlu9bn6/c9k92tncfdv66mlFedNS3veNGcXHJayxHXzzzWiD0jgEmMAKZvTuR8UqlUc+dTu/L1+zbkptVb09Vz/B/dtIyuz9svnJ13XjQ305utXQ4AACOJEcAAAMApYdXGffn87U/nhoe3pLty/GHIvJZReceFc/KW5bMyaYy1MoHhq1wu5bJFk3LZoknZebAj1z2wMdfeuyHrdh3q8z52tXbmM7c8lc/e+nSuXjo977l8QZbOah7AqgEAgOHCCGAAAGDY6qlU8+NHt+Xzt6/NvWuPf23M+ppyXn32tLzjwtm5eEFLSqUXjvY9EiOAgf7SX+eTSqWau5/ela/euyE/PMFRwRfOn5j3XL4gLz9jyhFnPwAAAIrBCGAAAGDYOdTZnW8+sDH/fPva4xrx9pyZ45vyzovm5poLZqXFaF+gAMrlUi5ZOCmXLDw8Kvgb92/MV+5en0172/q8j3vX7s69a3dn/qTR+c1L5+Wty2e7oAUAAArICGAAAGDY2N3amS/euS7/58512dfWddz9L180Kb928by87IwpqTmJ0W1GAAP9ZSDPJ8/NkvClu9bn9id3Hnf/8aPq8q6L5uY3LpnnYhkAACgQATAAADDkNu1tyz/+9Ol8/b4Nae+qHFffMQ21eevyWXnnRXOzcMqYfqlHAAz0l8E6nzy5/UC+dNf6XPfAxrR29hxX38a6ct7+ojl5zxULMnN8U7/UAwAADB0BMAAAMGTWbDuQz976dL7z4KZ0V47vrcm8llH5D5fOz1uWz8qYhv5d3UYADPSXwT6fHGjvynUPbMwX71x33FPo15ZLeeN5M/O+Kxdk4ZSx/VoXAAAweATAAADAoHvwmb35zC1P5kePbDvuvhfOn5h3XzY/L18y9aSmee6NAPiFPCf0hePkhYbqOalUqrn50W35/O1rc+/a3cfVt1RKXnXm1LzvyoU5b/b4AakPAAAYOP17mTwAAEAvVmzYk0/evCa3PrHjuPrVlku5+pzp+a3L5uecWcIIgGMpl0t51VnT8qqzpuXhjXvz+dvW5oZVW9LTh9kWqtXkptXbctPqbbni9Mn50MsXZfncCYNQNQAA0B8EwAAAwIC7f93ufPLHa3Lbmp3H1W9sQ21+5aI5+fWL52WGdSkBTsg5s8bn796xLB99zRn54p3rcu09G3Kgo7tPfX/6xI789IkduXzRpHzo5YtywbyJA1wtAABwsgTAAADAgLnn6V355I/X5M6ndh1Xv0ljGvLuy+fnV148J+Ma6waoOoCRZcb4pvzRa5fkAy9bmK/esyH/dPva7DjQ0ae+t63ZmdvW7MylC1vyoZefngvnC4IBAGC4EgADAAD97v51u/NXP3w8dz99fOtOzpk4Kv/xJQvylvNnpbFu5K0VCjAYxjbW5bdfclp+45J5uW7Fxnzu1qezYfehPvW948lduePJu3Lxgpb83qtOz4uMCAYAgGGnVK1Wj734CwAAQB/8bNO+/NUPH89PHj++NX6XTB+X37nytLzm7GmprSkPUHV9V6lW09FVOeK2hrpyyqXSIFc09No6e3LXU/uPuO3i08alqX7kBfZ7WruycsPBI25bNmdMJoweeaPXHScvdCqcT7p7Krlh1Zb87588lce2Hjiuvi85fXJ+/1WLs3RW8wBVBwAAHC8jgAEAgJO2ZtuB/PWPnsgPfrb1uPqdN3t8PvTyRbly8eSUhkEI8pxyqTQigyqg/50K55PamnLeeN7MvOHcGbnl8e351L8+mZUb9vap761P7MitT+zIa5dOy++98vQsnDJ2gKsFAACORQAMAACcsA27DuVvb34i//fBTakcx9xCF8ydkA+9YlEuWzhpWAW/ACNZqVTKy86YmpcunpLb1uzMJ3+8Jg+s39Onvt9ftTU3/mxrfmnZrHz4FYsye+KoAa4WAAA4GgEwAABw3HYc6Mjf/XhNrr13Q7qPI/m9cN7EfOgVi3LJaS2CX4BhqlQq5YrTJ+fyRZNyx5O78skfP5H71h07CK5Uk+tWbMz1D23K2180Jx98+aJMHtswCBUDAADPJwAGAAD6rLWjO5+/bW3+4adPpbWzp8/9LlowMR96+em5+LSWAawOgP5UKpVy2aJJuXRhS+56elc+efOa3LN29zH7dfVU8+W71+dbKzbmvVeclndfPj+jG3wEBQAAg8V/3wAAwDF191TyL/c/k7+9eU12HOjoc79lc8bnI69anEsWThrA6gAYSKVSKZecNimXnDYpdz61M3910+NZ0Yc1gls7e/I3Nz+Rr9yzPv/pFafnmgtmpbamPAgVAwDAyCYABgAAjqpareaHj2zLX974WJ7a0drnfkumj8vvv+r0vOyMKaZ6BiiQS06blOve15JbHt+eT9z0RB7dsv+YfXYc6MgffXtV/un2p/PR1yzJK5Z4bQAAgIEkAAYAAI5o1cZ9+bPvPZJ71x17us/nLJg8Or/3ytPz2rOnp1z24T5AEZVKpbzsjKm58vQp+f7PtuSvf/hEnt557IuEntrRmvd86f5cOG9i/uvrluScWeMHoVoAABh5BMAAAMAv2La/PZ+46fFct2JjqtW+9Zk5vikffsWi/NKymab3BBghyuVSXnfOjFx11rR8a+WmfPLmNdm0t+2Y/e5dtztv+PQdeevyWfmDVy/OlHGNg1AtAACMHAJgAAAgSdLe1ZN/un1tPnPLkznU2dOnPs1NdXn/SxfmXRfPTWNdzQBXCMBwVFtTzjUXzM4bz5uRL9+1Pp/61yezr63rmP2++cDGfH/VlvzuSxfmty6b73UEAAD6iQAYAABGuGq1mu+v2pr/8f1H+zRyK0nqa8v5D5fMy+9cuTDNo+oGuMLB195VyYr1B4647fy5Y9NYZ5Qz0Dcj6XzSUFuTd1++IG9bPjt//5Mn84U716Wzu9Jrn0OdPfnETY/n2ns35I9euySvOXua9YEBAOAkCYABAGAEe2Tz/nzs+tV9Xue3VErevGxWfu9Vp2fm+KYBrm7oVKvVtHcdObSo9nVebICMzPNJ86i6/OFrl+RdF8/NX//wiXz7wU3HXFJg4562/M5XV+TC+RPzsdeflTNnjBucYgEAoIAEwAAAMALta+vK3/zoiXzprnWp9DF/uHzRpPzha5b4UB6APj7+suMAACAASURBVJk1YVT++pfPy29eNj9/8YPHcvuTO4/Z5961u/O6T92WX7t4Xv7TK09Pc1PxZpkAAICBJgAGAIARpFKp5lsrN+UvfvBodh7sTJK0jG7IJ966/IjtP/LNB9LcVJv/+roleeniKablBOC4nT2zOV/+rQtzy+Pb8+ffezT72rp7fd3Z1dqRL965Lt97eHP+8DVL8ubzZ3r9AQCA4yAABgCAEWL15n35k++szgPr9/S5zwdfvijvuHB26muLs0YlAIOvVCrlZWdMzWULJ+fae5/pU5+dBzvzn7/xUL5+34Z8/A1nm4ECAAD6yKc4AABQcPvbu/Kn3/lZXv+p248r/E2Say6YJfwFoN/U15ZzzQWzjqvPfev25HWfui0fu3519rd3DVBlAABQHEYAAwBAQVWr1fzgZ1vzsetXZ/uBjqEuBwBOWKWafPHOdblh1Zb86evPzNVLp5sWGgAAjkIADAAABfTM7kP50+tX518f2z7UpQBAv9lxoCPv/9rKXLd4Y/7sTWdn1oRRQ10SAAAMOwJgAAAokO6eSv75jrX5mx+tSVtXzzHb19eU82sXzxmEyjjVNdSVc/FpR15/s6HONOEc5jjhZP3axXPy6VueTFdPtdd2tzy+I6/865/m9155ev7DpfNSW+P4AgCA5wiAAQCgIB58Zm/+8Fur8uiW/X1qf8Xpk/Ox15+Z6c1NueupvvVh5CqXSmmqrxnqMhjmHCecrPdecVpef+6M/On1q3Pbmp29tm3r6sl///6j+fbKTfmfb16ac2ePH6QqAQBgeBMAAwDAKe5QZ3f+6qYn8oU716ba+4CpJMnM8U3549edmVefNTWlUiltncceKQwAg2XB5DH50m9emBt/tjV/9r1Hsnlfe6/tH9myP7/093fk1y+Zl4+8enFG1fu4CwCAkc1/xAAAcAq786md+eh1q7Jh96Fjtq0pl/Jbl83Ph1+xyIfjAAxrpVIpr1k6PS9ZPDmfvHlNPn/72vRUjn6VU6WafOGOdfnxo9vzF29ZmktOmzSI1QIAwPDiUx8AADgFHWjvyt/cvCbfWbk5SdIyuqHX9ktmjMsfvPr0LJoyNkl+YdRve1flhOto76qk2pdhxyegvracmnLpmO06uiup9BIKnIjjfU46uyu9BhMno7amlLo+rG3Z1VNJ9zHWzDxRNeVS6muPXUN3pZqu7hM/nnpTLpfS0IcaeirVdA5QDaVSKY19XMe2o7syYKPr+zrF8kCO7m+oK6dcOvbfZ1HPEc+pqy2ntg81HM3JnH+fcyqeI3r7vf/9tlJK+fArTs/V58zIX970eB7dfOQlC7p6Ktnf3pUNuw/lV/7xnvzqi+fko685I2Mb647vlwEAgAIoVQfqnRgAADAgbnlse/7o26vy3990/oA/1sWnjes1bLrzyX39EmAcybI5YzJh9LE/uF+x/kD2HuoekBqO5EjPySObW7N1X+eAPN68SY1ZMLnpmO2e3tGWdTt7nyb1RE1rrs+ZM0Yfs92WvR15dMuxR6OfiPGjanP+3LHHbLentSsrNxwckBoa68q5ZGHzz7/vrlRyoO2FIWtHdyWPbB6Y5yFJXrZkQp/a/eujewashmOdG55T9HPEkumjMn187xfgtHX2DOg6684Rhz22dV/+8qbVv/CzGc2N+R9vXporF08ZkMcEAIDhyghgAAA4Rew71JWPf3d1vrVy01CXAiSpLZczYfQLRz1aVxuGh8372vMbX7gvb10+K3989ZlpHmU0MAAAI0Pf5q4CAACG1E8e355X/e2twl8AOE7ffGBjXvW3t+Ynj28f6lIAAGBQCIABAGAYa+3ozh99e1V+4wv3Zdv+jqEuBwBOSdv2d+Q3vnBf/ujbq9LaMXjLBgAAwFAQAAMAwDB179rdueqTP83X7tkw1KUAwLC2ZNq4zJpw7LWQv3bPhrzmk7flvnW7B6EqAAAYGtYABgCAYaa9qyd//aMn8o+3PZ1qdairgcPauypZsf7AEbedP3dsGutcX8wLj5P2rsoQVsNI0jyqLjd9+Ir85Y2P5f/ctb7Xtht2H8o1n7sr7718Qf7TK09PY13NIFUJAACDo1St+kgJAACGi0c278+Hvr4ya7YfPGbbZbPH5w9fsyRLZzWf1GO2d1WycsORH+/i08alqf7oH4y3d1UyUG8p6mvLqSmXjtmuo7uSSqV/azje56Szu5Kefq7hObU1pdTVHDtc7eqppLtnYGqoKZfSU6nmrqf2H3H7c89Jd6Waru6BCfzK5VIaao/9PPRUqukcoBpKpVKfgu5KtZqOAQw+e/ubfL62zp4Bq6Ghrpxy6YV/n22dPUc9TpbNGdOvFwoM5TniOXW15dQeo4aBfk6Gyzmivg9/n8+dI3o7x57oc/L8c8S9a3fnD775UNbtOnTMfqdPHZO/+eXzctaMk3stBQCA4cQIYAAAGAYqlWr++Y61+csbH09nz7GDo9+8dH7+4KrFQz5qaTiM+uxLKDjQ+hJ8DLS6mnIG8nDoS5hYWy6lto/h5ECpKZf6HJAOlHJp6GtI+h4UD5bGuvKQ1DQczhFHM5jPyUCfI/qiL+eI/nhOLpw/MTd++Ir85Y2P55/vWNtr2ye2HcwvfebO/MFVi/Obl85PuQ8XFQAAwHAnAAYAgCG2bX97fv8bD+W2NTuP2Xbm+Kb81dvOzcWntQxCZQBwamqsq8mfvP7MvOLMKfnINx7Opr1tR23b2VPJn9/waG59Ykf+19vOzZRxjYNYKQAA9L/hexksAACMAD9cvTVX/e1P+xT+/vIFs3Pjhy8X/gJAH11y2qTc+OHL87bls47Z9rY1O3PVJ2/LzY9sG4TKAABg4BgBDAAAQ6Ctsyd/dsMj+do9G47ZdtKYhvy/b1maly+ZOgiVkRye0nnZnDFH3QZJsq+tOw+sO3DEbcvnjU1zk7fcOJ8MB2Mb6/KJt52bV501LX/4rYez82DnUdvubu3Mu790f9510dz8P1cvGfKlFgAA4ER4NwoAAIPssa378/6vrcyT2w8es+1VZ03L/3jz0kwcXT9g9dTVlrNk+qijbhuJasqlTBhdN9RlMMxVKtUT2sbI4nzyQkP1uvPKM6fm/DlX5P/59s9y4+qtvbb98t3rc/fTu/KpX1mWM6aNG7CaAABgIAiAAQBgkFSr1fzLfc/kT69fnY7uSq9tR9XX5GOvPytvu2BWSqXSgNZVWy5l+viGAX0MAHjOUL7utIxpyP9+5/n5xv0b87Hvrs6hzp6jtl2z/WDe+Ok78vE3nJVfftHsAX89BgCA/jIyL+cHAIBBdqC9Kx/6+oP56LdWHTP8PWdWc2744OW5xofNANDvSqVSrnnR7NzwwctzzqzmXtt2dFfy0W+tyoe+/mAOdnQPUoUAAHByBMAAADDAfrZpX17/qdtz/UObe21XKiW/c+Vpue59l2T+pNGDVB0AjEzzJ43ON3/7krzvytNyrOutrn9oc17/qduzevO+wSkOAABOggAYAAAGSLVazZfuWpc3//2dWbfrUK9tZzQ35tr3XJQ/uOqM1NX4Nx0ABkN9bTn/5aoz8tV3vzjTxjX22nbtztb80t/fmS/fvT7VqnW+AQAYvnyyBAAAA+BgR3fe/7WV+ZPvrE5nT+9TPr/6rKn5wYeuyEULWgapOgDg+S45bVJu/PDlefVZU3tt19ldyR//35/l/V9baUpoAACGLQEwAAD0szXbDuSNn749N6za0mu7+ppyPv6Gs/LZdy5P86i6QaoOADiS8aPq89l3Ls/H33BW6o8xG8cNq7bkDZ++PWu2HRik6gAAoO8EwAAA0I+uf2hz3viZO/LUjtZe281tGZXr3ndJfv2SeSkda+FBAGBQlEql/Pol83Ld+y7J3JZRvbZ9ekdr3viZO/LdhzYPUnUAANA3AmAAAOgHnd2VfOz61fngtStzqLOn17avO2d6vveBy7J0VvMgVQcAHI+ls5rz3Q9clqvPmd5ru0OdPfnAtSvz8e+uTmd370s+AADAYKkd6gIAAOBUt2VfW373qyuyYsPeXts11JbzsTeclbe/aLZRv8NcR3clqzcdeRT3WTNHp6HWtbRA3zifnLrGNdbl0+9YlosXtOS/fe+RXgPeL9yxLg9v3Je//9XzM3Vc4yBWCQAALyQABgCAk3DP07vyu19bkZ0HO3ttN7dlVP73ry7PmTPGDVJlfdfZXcmT29uOuG3hlKbUj8BwolKpZu+h7qNuA+gr55MXOpVed0qlUt550dwsmzM+v/PVFVm/69BR2z6wfk+u/rvb8ulfOT8XLWgZxCoBAOAXDZ//qAEA4BRSrVbz5bvW5Vc/f88xw99XLJma699/2bAMf5Okp1LN1n2dR7z1jNBwAoCBcyq+7pw1oznXv/+yvGLJ1F7b7TzYmXd+/p586a51qVaH5+8CAEDxCYABAOA4dXT35KPXrcoff2d1unv5oLpcSv7LVWfkH961PM1NdYNYIQDQ35qb6vIP71qej7x6ccq9rOTQXanmT76zOh+9blU6unsGr0AAAHiWKaABAOA4bN/fnt/+ygPHXO+3ZXR9PvWOZblk4aRBqgwAGGjlcim/+9KFOW/2+Hzg2pXZ3Xr0WUD+5f5nsmb7gXz2ncszxbrAAAAMIiOAAQCgj1Zu2JPXfer2Y4a/588Znxs+eLnwFwAK6tKFk/K9D1yW82aP77Xdig178/pP354Hn+n9fwcAAOhPAmAAAOiDbz6wMb/8ubuz/UBHr+3eedGcfP29F2das5E+AFBkM8Y35f/7jxfnnRfN6bXdtv0dueZzd+W6BzYOUmUAAIx0AmAAAOhFpVLNX/zgsfz+Nx5KZ0/lqO3qakr5n29emj9/09LU1/o3GwBGgvracv78TUvzP9+8NHU1R18YuLO7kv/8jYfyFz94LJVKdRArBABgJLIGMAAAHMWhzu58+OsP5oePbOu13eSxDfnsO8/P8rkTB6kyGHz1teUsmzPmqNsgcZwwcr3jwjlZNGVMfvsrK7Lz4NFnC/nsrU9l7c6D+ZtfPi+j6n0sBwDAwPDuCwAAjmDLvra87bN3HTP8PXf2+Hz3/ZcJfym8mnIpE0bXHfFWUz76qDdGFscJI9kF8ybmux+4NOfMau613U2rt+Vtn70rW/e1D1JlAACMNAJgAAD4dx56Zm/e+Ok7snrz/l7bvXX5rPzLey+y3i8AkCSZ3nx4XeA3L5vZa7vVm/fnjZ+5Pas27hukygAAGEkEwAAA8DzfX7Ul13zurmw/cPTpG8ul5I9fd2Y+8dZz0lhXM4jVAQDDXWNdTf7XNefmv169JL0NfN+2vyNv+9ydufFnWwavOAAARgQBMAAAJKlWq/mHnz6V3/nqinR0V47abkxDbf7p11+U37psfkol05kCAC9UKpXy7ssX5J9+/UUZ03D0tX7buyr57a+syGdvfSrVanUQKwQAoMiO/h8oAACMED2Vaj7+3dX50l3re203c3xT/vk3XpTF08YOUmXAcDamoSYLpxx5CvgxDWYHAJKXnjEl33zfxfmtL96fTXvbjtruL37wWDbtacvH3nCW9bIBADhpAmAAAEa0Q53d+eC1K3Pzo9t7bbd87oR87l3LM2lMwyBVBgx3dbXlzGlpGuoygGHujGnj8n9/99K898v3Z+WGvUdt9+W712fr/vb83duXpaneRSQAAJw4U0ADADBi7TjQkXf8w93HDH/fdN6MfPXdLxb+AgAnZPLYhlz7novyhnNn9NruR49sy9v/8e7sPNgxSJUB8P+zd+fxcdX1/sff58ySSdIsXdImXdJ0oaVQoC3QTQHBDVB/FxTZBUUEueoFvSreexWu/rhelauC+BMBRVZZBAWUHdmUrrSlQBfapku6pWmSNvus5/z+6A1Cc04ySWbObK/n4zF/kM83kzfTyXdOzud8vwcA8hENYAAAABSk+v2d+vStr2ntrrZ+x/3rR2fo5+fNUSjAShwAADB0oYBPN58/R1//yIx+x63deVCf/tUSbWvu8igZAAAA8g0NYAAAABScVTsO6DO3LtHOVvd78QV8hm46b46+9uEjZBjciw8AAAyfYRi6+iNH6Kbz5ijgcz++aGjt1qd/9ZpW7TjgYToAAADkC+4BDAAAgILy0sYmXXX/KoVjluuYspBft33ueC2eNsbDZEB2i8QtrdvtvBrt6AmlKvJzfTF4nwDJOmvuBI0tL9KV965SRzjuOOZAd0wX/WaZbr3oeJ165FiPEwIAACCX8ZcXAAAACsYfV+/S5fe83m/zd3xFSI9etZjmL3AYy7J1sDvu+LAsO9PxkCV4nwDJWzxtjB758mKNrwi5jgnHLF1+z+v64+pdHiYDAABArmMFMAAAAArCHa9u1X89tUGjS4t04znHO4/52zu66fw5GlfufiIWAAAgVWZWl+mP//wBXf3gG7ry5JmOY771yCp94+G1au2K6vKTpnqcEAAAALmIFcAAAADIa7Zt67+f2qD/emrDgGN/eeE8mr8AAMBT1RUh/b8L5w447oYnN+jHz2yUbbOaHgAAAP2jAQwAAIC8FU9Y+tYjb+q2V7cmNb4k6EtzIgAAgL5Ki5LbpO/Wl+t17aNvKp5wv50FAAAAwBbQAAAAyEuReEJf+/0aPbd+X6ajIAcF/KZm1ZS41gBJ6gjHtXpHh2Nt3uQylYX4kxvMJ0i9h1/fpYPdMd1y4VwV+bl4DQAAAH3x1ygAAADyTnc0rivvXaW/bW7OdJSc4PcZqhvjvPW132d4nCY7+E1DNZVFmY6BLBdP2HJbhBdPsEUrDmE+6YvPneF7bv0+XX7367r9cyeomB1MAAAAcBgawAAAAMgr7eGYvnjXSq3cfiDTUXJGwGdqalVxpmMAAAoEnzup8bfNzbr0zhX67edPUFkokOk4AAAAyCLsNQQAAIC80doV1UV3LO+3+VsU4BAYAADkjmA/W4Wv2N6qi36zXAe6oh4mAgAAQLbj7BcAAADyQlN7WOffvlRv7W5zHVMW8uumc+d4mAoAAGB4fn7unH7vKf7mrjadf/syNXWEPUwFAACAbEYDGAAAADlv14Fuffa2pdq0r9N1zKjSoB740kIdM7HCw2QAAADDc9ykCj3wpYUaVRp0HfPOvg6dd9sy7T7Y42EyAAAAZCsawAAAAMhpO1u7dd5ty7Sjpdt1zLjyIj185ULNnkDzFwAA5J7ZEyr08JULNa68yHXMtuYunfvrpdrZ6n5MBAAAgMJAAxgAAAA5q6GlW+ff3v9ql0mjivWHKxdr+tgyD5MBAACk1vSxZfrDlYs1cWSx65jdB3t0/u3L1NDPhXEAAADIfzSAAQAAkJO2N3fpvNuX9tv8nVZVqj9cuVi1o0s8TAYAAJAetaNL9IcvL9LUMaWuYw41gZdqR0uXh8kAAACQTWgAAwAAIOdsa+7S+bcv0962sOuYo2rK9dCVi1RdEfIwGQAAQHrVVBTroSsX6chq991N9rSFdf7ty7S9mSYwAABAIfJnOgAAAAAwGPX7O3XB7cvU1BFxHXPcxArdc9kCVZQEPEyGfBKNW9rS5Ly6fPrYYgX9XEsLIDnMJ0iHqrIiPXjFQl165wqt3dXmOGZvW1jn3b5UD16xSFP6WTEMAACA/EMDGAAAADljS1OnLrhjmfb30/ydM6lS93xxvspDNH+TFUtY2tnq/JpOGlWkgK/wmhMJy1ZjW9SxNmUMq8oBJI/5pC8+d1KjsiSoey9foEt+u0Jv7DzoOGZfe0Tn3bZUD1yxUNOqRnicEAAAAJlCAxgAAAA5YXtzly4coPk7r7ZSd182X2U0fwclnrC1vdl5O+2aiqACPo8DAQDyGp87qVMeCujeL87XpXeu0OoG5yZwU0dEF9y+TA9fuUh1rAQGAAAoCFxSCQAAgKy3s7VbF97R/7bPJ0weqXu+uIDmLwAAKChloYDuvmy+jp880nVMU0dEF96xTDtbuz1MBgAAgEyhAQwAAICstudgjy64Y5n2tDmvFJKk+VNG6e7L5mtEERvcAACAwtPbBD6xzr0JvKctrAt/s0x725zvSQ0AAID8QQMYAAAAWWtfe1gX3rFMuw64n6hcOHWU7vrCiSql+QsAAArYiCK/7vrCfM2vG+U6Zmdrjy68Y7ma2t0vrAMAAEDuowEMAACArLT/f7cq3N7ivlXh/LpRuvPzJ6okSPMXAACgtMivuy47UfOnuDeBtzV36aLfLFdLp/utNQAAAJDbaAADAAAg6xzoiuri3yxX/f4u1zFzayt15xcG3/w1TUOVJX7Hh2kaw40OAAAwaKk8PikJ+nXn50/U3NpK1zGbmzp18W9X6GB3dLjRAQAAkIVYKgEAAICs0hmJ6/O/W6F39nW4jjlmQoXu+sLQ7vlb5Dc1b3LZcCICBSngNzWrpsS1Bki8T4ChSvXxSe920Bf/Zrne2t3mOGbD3nZdeucK3f+lhUM6pgIAAED24ugOAAAAWSMcS+hLd7+utbucT1RK0qyact37xfmqKA54mAyA3zRUU1mU6RjIcrxPgOxRURzQvV+cr/NvX6aNjc4X1q3d1aYr7nldd37+RIUCPo8TAgAAIF24/BYAAABZIZ6w9LUH1mjp1hbXMTPGjdB9X5yvypKgh8kAAAByU2VJUPdfvkBHjB3hOmZJfYv+5YE1iicsD5MBAAAgnWgAAwAAIOMsy9a3H3lTz6/f5zpm6phS3Xf5Ao0ewcoyAACAZI0eUaT7L1+gKWNKXcc8t36frn30LVmW7WEyAAAApAsNYAAAAGSUbdv6wV/W649rdruOmVBZrPsuX6CxZSEPkwEAAOSHseUh/f5LCzShsth1zKOrd+n/Prletk0TGAAAINfRAAYAAEBG3fTCZt21ZLtrfcyIoO67fIHG93PCEgAyoaTIp5qKoOOjpIh7aQLILjUVhy6oGzPC/VYav3ttu27+62YPUwEAACAd/JkOAAAAgMJ177Id/Z5kLAv5dc9l/W9ZCACZUuQ3NWs88xOA3DFlTKnuuWyBzrt9qTrCcccxN72wWaNLg/rcojpvwwEAACBlaAADAAAgI555e69ufmGzRpc639M3FDD183PnaMqYUvVEE4N+/qKAKdMwBhwXjllp2+ow6DflMwfOEIlbabvnXsBvyp9EBjfhmDXsDH6foYBv4M2HYglL8UR6XgefaSjoHzhD3LIVi1v9/n8P9TUxTUNFSWRIWLai8eG/7k4Mw1AoMHAGy7YVScG/vZviYHKrY4fyu58s5ohDkp0jonFLiTRlyMU5YjCSnU8KaY4Y6DVhjjgkXXPElDGl+u0lJ+qah99w/Xe8+a9bVFVWpNNn1yT9vAAAAMgehs2NPQAAAOCxFdtadfFvl+vXFy1M289YNK08qRPIS7a0paTJ6WRu7QiNLA0MOG71jg4d7HZehTNcs2pKVFPp3GTv1RNNaGl9e1p+viTVjQlpatXAW3hv3d+j7c3htGSorgjqqCRWau49GNGGvd1pyVBZ4te8yWUDjjvQFdOahs60ZAgFTC2eXjHguHS/J06bNTKpcS9uOJC2DMwRhyQzR0jS+j1damyLpiUDc8QhzBH/wBxxSKbniC/fv0z3fXGB5k8ZlfLnBgAAQHpxD2AAAAB4atO+Dl1+98q0rV4aSMKydaAr9u4jXavqAAAAhqMjHNeBrljaVt8PJBq3dPndK7VpX0dGfj4AAACGjgYwAAAAPLPnYI8uvXOF2l3uOeeFaNzSmobOdx/RNG0nCgAAMBxbmsKHjlUydNGcJLWH47r0zhXa29aTsQwAAAAYPBrAAAAA8ERbd+x/TyCmZ/tOAAAApN7etrA+f+dKtfXEMh0FAAAASaIBDAAAgLSLxi1dce/r2tyUnnsWAgAAIH3e2dehK+55XZF4ItNRAAAAkAQawAAAAEgr27b1nUff1PJtrZmOAgAAgCFavq1V//boW7Jtbp8BAACQ7QybozYAAACk0U0vbNJNL2x2rI0uLdLsCeW66by5CgVSe21iUcCUaRh9vt4TTWhpfbvj98ytHZHSHEG/KZ/ZN8PhInFLlpWew/KA35R/gAzpfk38PkMB38DPEUtYiqfpnsw+01DQP3CGuGUrFrcUjh26V7STob4mpmmoKIkMCctO2/0eDcNIKrtl24rE3p8hla9JcdCX1LieaPpWmrnNEYcLx6y0NTtyZY6QDu3kkEgiw1DeJ7k4RwxGsq9Jrs8RgzHQazKyNJDU8+TTHNHfa7JoWnm/82Yq54hwzNLVD63Rut3taumKOI75+kdm6OqPHJGSnwcAAID08Gc6AAAAAPLXH1fvcm3+SlJliV83nTcn6RO96RYKmEk3plIpmRP+meLlaxLwmQp4//K/j9805A/65PcZqhsTchwzIuRLqlk1VD7TyMj78L1MY3AZ0vU+yfTrIKnfZlhXJK61O7sca8dNKlVpUWr+5M6GOSKZ5uhAhvs+yaY5YlDfk+L5JBfniMFIx8Uk6ZTqC9iGIpVzRHHQp5vOm6Nzbl3i2gD++QubVDu6WGfPnZiynwsAAIDUogEMAACAtFi2tUXXPvqma33MiKDu+sJ8jSwNepgKTnymoeoK53+HZFYn5qOAz9TUquJMx0CWi8ZthV1WQUbjtkqLPA6ErMR80hefO9ltVGlQd182X2f/aomaO52bwNc+8pbGVxRrwdTRHqcDAABAMmgAAwAAIOXq93fqyntXKeayVWcoYOo3l56oSaNKPE4GJ0G/qaPGl2Y6BgCgQPC5k/0mjSrRby49QeffvtTxQpdowtKV963SH69arKlVIzKQEAAAAP3J/D41AAAAyCsHuqK67K6VauuJOdYNQ7rpvLmaM6nS42QAAABI1pxJlbrpvLlyuxXywe6YLrtrpQ50Rb0NBgAAgAHRAAYAAEDKxBKW/vn+1drR0u065t/PmKXTZ1d7mAoAAABDcfrsav37GbNc69tbunXV/asUSzhvhw8AAIDMoAEMAACAlPn+n9dp6dYW1/rFC2t1+UlTPEwEAACA4bj8pCm6uW8R5wAAIABJREFUaEGta33Z1lb95xPrPEwEAACAgdAABgAAQErcu3S77lvW4Fr/0Mwq/eenjpbhto8gAAAAso5hGPr+/zlaJ8+och1z//IG3bt0u2eZAAAA0D8awAAAABi217Y06z//vN61PnNcmX554Tz5fRx+AgAA5Bq/z9T/u3CuZo4rcx3zn39eryVbmj1MBQAAADecgQMAAMCwbGvu0j/fv1oJy3asjyoN6jeXnqARRX6PkwEAACBVykIB/ebSEzSqNOhYT1i2rrp/tbY3d3mcDAAAAIejAQwAAIAhaw/HdPndK9XWE3OsB3yGbr1oniaNKvE4GQAAAFJt0qgS3XrRPPlN51t6tPXEdPk9r6s97HxsCAAAAG+wDAMAAABDYlm2vvHQG6rf777K44azZmvB1NEepgJSI5awtLM14libNKpIAbYzB5Ak5hPkmwVTR+uGs2brO398y7G+palTX3/wDd1xyQkyXRrFAAAASC8awAAAABiSW17cohc2NLnWL/vAFJ13Yq2HiTBUccvW/vaoY62qPOi6yiefxRO2tjeHHWs1FUEFfB4HApCzmE/64nMn950/v1YbGzt015LtjvW/bmzSL17crGs+MsPbYAAAAJBEAxgAAABD8NcN+/TzFza51k+eUaV/P/NIDxNhOGJxSxv2djvWKkv88gcLsDsBAEgbPnfyw3c/MUv1+zv1t83NjvWbXtisYyZU6MOzxnmcDAAAAOwzBAAAgEHZ1tylax56w7U+dUypbrlgrvxsaQkAAJC3/D5Tv7xgnqaMKXUdc81Db2hbs/vtQgAAAJAenJUDAABA0jojcV1xz+vqCMcd66VBn26/5HhVFAc8TgYAAACvVZQEdMclx6vUZdV2RziuK+99XV0R52NHAAAApAcNYAAAACTFtm19+5G12tzU6Trmp+fO0fSxZR6mAgAAQCZNH1umn547x7W+aV+nvv3om7Jt28NUAAAAhY0GMAAAAJJyx9+26qm3Gl3rXz11uk6fXe1hIgAAAGSD02dX6yunTnOtP/nmXt3+6lYPEwEAABQ2GsAAAAAY0IptrfrxM++41k+ZUaWvf3SGh4mGzjAMhQKm48MwjEzHAwAABSgfjk++8dGZOnlGlWv9J8++o+VbWzxMBAAAULj8mQ4AAACA7La/I6Kv/n61Epbztn21o0r0i/PnymfmxsnJUMDU4ukVmY4B5By/z1DdmJBrDZB4nwBDlQ/HJz7T0C/On6NP/fLv2tna06eesGx97YE1eurqkzRmRFEGEgIAABQOGsAAAABwlbBsXf3gGjV1RBzrxQGfbr/keFWUBDxOBsBrAZ+pqVXFmY6BLMf7BChslSVB3XbxCfr0ra8pHLP61Js6IrrmwTd092Xzc+biQQAAgFxEAxgAAACubn5hk5bUu2/V99+fPkZHVpd7mAgAkG964m1q6t6quB3NdJQBlforVVU8VT6TC58AN0eNL9ePPn2srnnoDcf637c06xd/3Zwztw8BAADIRTSAAQAA4Ojld5p0y0tbXOsXLqjVWXMneJgIAJBv1ux/Qkv23ivLjmc6StIqi8br9MnfVFXxlExHAbLWWXMnaOX2Vt2/vMGx/osXN+uEupE66Qj3ewYDAABg6MxMBwAAAED22XOwR19/6A3Zzrf91ewJ5bruk0d5GwoAkFeWNz6ov+/5XU41fyXpYGSP/lR/nfZ3b810FCCrfe+TR2n2BOedYmxbuubBN9TYFvY4FQAAQGGgAQwAAID3iScsXf3gGh3ojjnWy0J+/erC4xUK+DxOBgDZJRQwVVHsc3yEAvy53Z/ljQ9qxb6HMh1jyCKJTv1p6/U0gYF+hAI+/erC41UWct6AsKUrqq89sFrxRN97BQMAAGB4+IsUAAAA7/OLF7do5fYDrvWffvY41Y4u8TARAGSn4qBPx9eVOz6Kg1wk4ybXm7+9aAIDA6sdXaL/+exxrvWV2w/olhfdbzkCAACAoaEBDAAAgHctrW/RLS9udq1fcfJUfezoag8TAQDySb40f3vRBAYG9vGjq3X5B93vmX3Li5u1bGuLh4kAAADyn/MeLAAAACg4rV1RXfPQGtf7/h4/eaS+9fGZ3oYCAOSNgZu/hoJmsWd5BsOWpZjlfK/S3ibw2VO/r6qSqR4nA3LDtWccqdUNB7S64WCfmvW/9wN++uqTNLI0mIF0AAAA+YcGMAAAAGTbtr79yFrta4841stDfv3igrkK+HJ/AxnLthWJOd9rrihgyjQMjxMBQP4bqPlryNRHa/9FM0ee4mGq5CWsmJ7ecaO2ta90rNMExnDl+/FJwGfqlgvn6cyb/6a2nlifemN7WN965E3dccnxMnL8/xUAACAb0AAGAACA7lqyXS9saHKt/+Sc4zShMjtXZQ1WJGZpaX27Y23RNO7bCbiJJSztbHW+SGTSqKK8uEAEw+f0PtnU/og2d/7R9XuyvfkrST4zoDMmf4smMNKmEI5PJlQW68efOUZfvm+1Y/2FDft077IdumRRnbfBAAAA8hB/oQMAABS4dXva9N9PbXStX7ywVqfP5r6/QKGLJ2xtbw47PuIJl73jUXAOf5+saHww55u/vXqbwFPKT3Qdwz2Bgf6dPrtGFy2oda3f8OQGrd/j3AgHAABA8mgAAwAAFLBwLKFrHnxD0YTzloNHVpfpu584yuNUAIB80BR/TPutJ1zrudT87UUTGBi+733yKM0cV+ZYi8YtXf3gGoVjCY9TAQAA5BcawAAAAAXsx89s1OamTsdaKGDqlgvmKhTI/S0HAQDeysfmby+awMDwhAI+3XLhXBX5nU9Lbm7q1I+fcd+dBgAAAAOjAQwAAFCg/rZ5v3732nbX+n9+6mgd4bI6AwAAN/nc/O01mCZwc5gmMHC4GePKdN2n3HeZ+d1r2/W3zfs9TAQAAJBf/JkOAAAAAO8d6Irqm39Y61o/Y3a1zjtxkoeJgOziMw1VVwRda4Ak9UQTWr+ny7F21PhSFQcLbweFVfsfyvvmb6/eJvDTO27UtvaVjmMiiU493fADHVf2HZUF6hyeg/kEhevC+bX6++ZmPf12o2P9m39Yq2evOVmVJc6fxwAAAHBHAxgAAKDA2Lat/3jsLe1rjzjWx5YV6YdnHyPD4KR0oTBNQ5Ulzn8amAXanAj6TR01vjTTMZDlwjFLbT3O96kMx6yCawAvb3xQa5r/4FrPp+Zvr2SbwGs7fqSzp35fVSVTPU6YnfjcgSQZhqEfnn2MVu04oKaOvsel+9oj+o/H3tYvL5jLcSkAAMAg0QAGAAAoMH9cvVtPveW80kKS/uezx2lkKSstCkmR39S8yWz3DWDoljc+qBX7HupnhKFTxn81r5q/vZJtAv9p6/U0gf8XnzvoNbI0qP/57HG65M4VjvUn39yrj8waq7PnTvQ4GQAAQG7jHsAAAAAFZNeBbl3/xDrX+ucX1+nkGVUeJgIA5Lpkmr8TfJdresXJnmXy2mDuCby/m3sCA+918owqfX5xnWv9usfWadeBbu8CAQAA5AEawAAAAAXCtm1d++ib6ozEHetHjB2h75xxpMepAAC5LNnmb6VvkWeZMoUmMDB03znjSE0fO8Kx1hGJ69pH35Rt2x6nAgAAyF00gAEAAArE/csb9NqWFsdawGfopvPnKBQorPtVAgCGjuZvXzSBgaEJBXy66bw58rvcA/q1LS26f3mDx6kAAAByFw1gAACAArCztVs/fGqDa/0bH52po8dXeJgIAJDL1rW8QPPXBU1gYGhmT6jQ1z86w7X+w6c2aGcrW0EDAAAkgwYwAABAnrMsW996ZK26ownH+vGTR+qKk6d6nAoAkKts29ayxt/3M6Jwm7+9aAIDQ/PlU6bp+MkjHWvd0YS+/cibsiy2ggYAABgIDWAAAIA8d++yHVq2tdWxVuQ3deM5x8rnst0eAACHiyQ61R0/4FgzZBZ887cXTWBg8HymoRvPOVZFfudTlku3tui+5Ts8TgUAAJB7aAADAADkse3NXfrR0xtd698+/UhNrRrhYSIAQK6zZbnWPlD9JZq/70ETGBi8qVUj9O3Tj3St//dTG9XQwlbQAAAA/aEBDAAAkKcsy9a3H31TPTHnrZ/n143SFxbXeRsKyBFxy9begxHHR5ytJwFX40rcmzaFypZfcyr/RTXFx7uOoQkMvN8XFtfpxDrnraB7Ygl985G1bAUNAADQDxrAAAAAeeqBlQ1asc156+figE8/OedYmWz9DEkJy9aBrpjjI1GgJ1djcUsb9nY7PmJx99WPAHC4WNzSpsaYKuNXqMyY4zqukJrAfO5gIKZp6MZzjlMo4HzqcsW2Vj2wssHjVAAAALmDBjAAAEAeamwL60dPuW/9/J0zjlTdmFIPEyGbReOW1jR0Oj6iNDsBICVMI6CJ/qtoAovPHSSnbkypru1nK+gfPbVRjW1hDxMBAADkDhrAAAAAeca2bX33sbfVEYk71hdMGaXPLZzscSoAAEATGBicSxfVaf6UUY61jkhc333sbdk2q8YBAAAO5890AAAAAKTWU2816oUN+yRJ5aGAvnzKjHdrpmHo2IkVemNnp46eUKoiP9cDAgDgpd4m8K74reqw33Ac09sEPnvq91VVMtXjhEB2iMQtrdvdpWs+PEtv7mqT9Z5G769f2aT2cEwvbNinp99u1JnH1GQwKQAAQPahAQwAAJBHDnZHdf0Tb7/73wGfqSOrK943JhyzFY7FZXGPPQAAMqK3CdxVdIcaOl93HEMTGIXOsmwd7D60o82MceXvqwV8/7iI8brH1+kD08aooiTgaT4AAIBsxpIPAACAPHLDkxvU3BnNdAwAADAA0wjowxP+VVPKT3Qdw3bQwMCaOyP64VMbMh0DAAAgq9AABgAAyBNLtjTrkVW7Mh0DAAAkyWcGdMbkb9EEBobpodd3akl9c6ZjAAAAZA22gAYAAMgDkXhC333s7YEHQsVBn06bNTLTMYCc4zMNVVcEXWuAJJmGeJ8MUm8T+OkdN2pb+0rHMWwHnf84Phm+7/7pbT19zUkq8vsyHQUAACDjaAADAADkgdtf2aqtzV2ZjgEgjwX9po4aX5rpGMhyAd4nQ0ITGBi+rc1duv2Vrfrah4/IdBQAAICMYwtoAACAHLejpUu3vLQl0zEAAMAwsB00MHy/fGmLGlq6Mx0DAAAg42gAAwAA5DDbtnXd4+sUjVuO9TNmV3ucCAAADBVNYCA5bse4kbil6554W7Zte5wIAAAgu9AABgAAyGFPvdWoVzbtd6xVFAf0lVOneZwIAAAMh88M6JQJX9Lo0GTXMTSBUei+cuo0VRQHHGsvv7Nfz7zd6HEiAACA7EIDGAAAIEd1hGP6wV/Wuda/c8aRqiwJepgIAApL0G8oFDAdH0G/kel4yEHt0SY9tOmbumvDFWoJ7+h3bG8TuLlnuzfhgCxSWRLUtacf6Vr//p/XqzMS9zARAABAdqEBDAAAkKN+/vxm7WuPONbm1VbqvBMmeZwIAApLaZFfi6dXOD5Ki/yZjoccY9u2/rLth2rqqU/6eyKJTj3f8AtZdiKNyYDsdP6JkzS3ttKx1tge1s+f3+RxIgAAgOxBAxgAACAHbdrXobuXbnes+UxD/3X2MTJNVp8BAJArWiM7B1z166Q5vE0HI3vSkAjIbqZp6IazZsvtkPeuJdu1aV+Ht6EAAACyBA1gAACAHGPbtr7/53VKWLZj/bIP1GlWTbnHqQAAwHD4DOf7mQJwd/T4Cn1+8RTHWsI6dMxs287HzAAAAPmMBjAAAECOeebtRr22pcWxVl0e0jUfmeFxIgAAMFwVwWpNKJ096O+rLpmpUSFu+4DC9Y2PzdC48iLH2mtbWvTsukaPEwEAAGQeNyUCAADIIT3RhG54coNGlzqf5PqPTxwl0zDUEz10L8BwzHJ9LrdaUcCUaQy8fXQ4ZqVtRUXQb8qXxBbWkbgly2UltJtwzNKahk7H2tzaEQoFDl0jGfCb8ieRIRq3XFdjD5ffZyjgG/iazVjCUjwx9Az9vU9iCUvF8g34HHHLVizu/jzDYZqGivwDvw4Jy1Y0RRn6e036Y9m2IkP83mQUBwf+t5D07hyQSgnbVktHTAGfIeOwOaKqPNjn9yVX54hkFdIccbieuPv7K2HZ2nuw7/3pLctWRalfviQ+XwYrE3PE4QzDePfzYzAOn2s+WPMVPbnjOnXG9g/4vT4jqImlx+mkmqve/Z3P5BzRK9njCDdDnX/fKxfniGSPTwYjU3PEe/lMQ8Ekfj+djiOSPY71GYa+94mjdf0T6xzH/t+/bNCHZo5VKJDc7wcAAEA+oAEMAACQQ379Sr12H+zRnZcudh2ztL49qedyO8m4aFp5UieQV+/oSMlJWidza0doZOnAW2Gu292lg93xlP3c974ms2pKVFPp3Gh/ry1NPWpsi6Ysw3vVjQlpalXxgON2tka0vTmclgw7WiI6ZuLA/xb726PasLc7LRkqS/yaN7lswHHtPXHX97VXIjEr6d/BoTht1sikxqUzg5PKEr/8h80b+ThHvFchzxFx2/2emvGErY1pmgvcZMMcEQqYWjy9YtDf1zdPkWr0LW3XjxWT824fklRkTFCd/9vyR8u0ZockHfqdz4Y5ItnjCDep+DfKtzliqK9JNhxHVFcEddT40gHHDfY44vDXpCQY0o3nHO849rK7l+i2V7bq6o8ckfTzAwAA5Dq2gAYAAMgRO1u79etX6jMdAwAApFHQGKO6wLUKaLTrmIi9Ww3xm5WwvW22A7nq1le2aPfBnkzHAAAA8AwNYAAAgBzxX09uUCRNW1cCAJAK6dr2u9Ak0wTusbdqR/xnNIGBJIRjln741IZMxwAAAPAMDWAAAIAcsHxri55Z15jpGAAA9GtF072y7FimY+QFmsBAaj355l4t3+q+tToAAEA+oQEMAACQ5SzL1g1PsmIByCTDOHSf0coSv0zTyHQcZIlI3NKGPV2Oj3zescFUkSTn34NdXWu0M/5LmsDvYZrGu/NHWWhw98alCQyk1n89tUGWxU4FAAAg/9EABgAAyHKPr92tt3a3ZToGUNCK/KbmTS7TvMllKvLzZxQO6Y4ktLct6vjojiQyHS9tTKNIJcYM13qn/RZN4Pd47/wxe0LpoL9/ME3gSKJrOFE9YxhcSIPMeHNXmx5fuzvTMQAAANLOsLlBDwAAQNbqiSZ02k9f1t628Pu+Prq0SJJ08wVzdHztSNfvD8csrWnodKzNrR2hUKBvI6soYMpM4sRsOGal7V6PQb8pXxKrLCNxa9CrOJJ9TQJ+U/4kMkTjlhJpWkni9xkK+AZuNsYSluKJ9GTwmYaCSTQ845atWJpWPJqmkVTTNWHZiqYpg2EYjr8vh7NsW5FY+lZ+FgeTWz3YE01987G/351F08r7ZMvVOSJZAb+pjp54v/PJyNJA3s4RByO79ecd31Uk0eE6ZoRxjCb5vyrTCEhy/9wZrkKZIzqiTXqy4Xp1xva7jhlXMkP/NPU6Ffn6bzSnY47ole/HEcka7HHEUI7ZBpLrxxHDeU3W7Dyor/1+jSSppSvyvtr4ipBe/OaHFAoMbkU+AABALvFnOgAAAADc/fbvW/s0f6VDJ7I+etQ4fXD6mCE/dyhgJt1Mcvv+TEv1SsyhvCbJnNRMt4DPVKbPYfpNQ/5hvJ9SwWcaw3pPp4JpZD6DlHyjOJ3ycY4YinydI4qDtTp72vf1WP31Crs0gXtXAvc2gYf7uTNcuT5HFAdr9JnpN+iPW76rDpcm8L7uTXp86w8GbAJn+nWQmCN6JTNHpPt3JxePIwZ6TRZPG615kyv1/Pp9fWp72sL67d+36SunTh9SVgAAgFyQ+SNdAAAAOGrqCOtXL9c71vymoX8748gBnyPgNzWrpsTxEciCk54AgNxVVTxFZ037vkK+MtcxbAedWuXBsfr09BtUFqhyHdPbBM6V7aABN8M9jv23M450XYX9q5e2aH9HxLEGAACQDzjrBwAAkKV+9twmdbts0XjxwsmaWjViwOfwm4ZqKoscH8lsSwgAQH+qiqfo7Gk/SKoJHLeiHibLXzSBUSiGexw7tWqELl442bHWFU3oZ89vSnVkAACArEEDGAAAIAtt3tehh1/f6VgrD/l19YeP8DgRAADOxhTXJdUEfmHXT2gCpwhNYCA5V3/4CJWHnO+A99DKBm3a534fcwAAgFxGAxgAACAL3fjsO7Js59q/fPgIjSwNehsIAIB+9DaBi/ppAu/qekNPbf8xTeAUoQkMDGxkaVBfO835wknLlv7n2Xc8TgQAAOANGsAAAABZZtWOA3pu/T7H2uTRJbpkUZ23gQAASMKY4jqdWXu9fHK/RcGOjtU0gVMo2Sbwk9v+W5btfFsJIN9dsniyakeVONaeW79Pq3Yc8DgRAABA+tEABgAAyCK2bevHT290rX/r4zMV9HMIBwDITqNDdarzf4smsIeSaQLv7lqn+rZlHqYCskeR36drTz/Stf7jZzbKtl223gEAAMhRnD0EAADIIi+906QV21sda8dMqNCZs2s8TgQUpoRl60BXzPGRcNufHYAkKWROogn8Hl7MJ8k0gZu661Pys4BcdOYx1TpmQoVjbcW2Vr28ab/HiQAAANKLBjAAAECWSFi2fvKM+33Irj39SJmm4WEiFArLttUTTTg+rAJdERONW1rT0On4iMatTMcDsh5N4H/waj7pbQKX+kc51i07nrKfNVx87sBrhmH0uwr4J8+8I4sLvAAAQB7xZzoAAAAADnn8jd3a2NjhWPvg9DH64BFjPE6EQhGJWVpa3+5YWzStXMVBn8eJAOSD3ibw9viNSqjTcUxvE/jMumvlN4MeJ8w/5cGxGlsyTdvanXcTyRZ87iATPnjEGH1g+mi9tqWlT23D3nb9+c09+qc5EzKQDAAAIPVYAQwAAJAFonFLP3t+k2u9vxULAABkK1YCA8gm3/64+zH1T5/bxC4fAAAgb9AABgAAyAJ/WLVTuw70ONY+eWyNjpnofM+ygUTjltbv6XJ8cIILAOCF3iZwka/MdQxNYACHS8dx7HGTKnXmMdWOtYbWbj2yatdwIgMAAGQNGsAAAAAZFokn9MsXtzjW/Kahb35s5pCfO2HZamyLOj4S3OcMAOCRkDlJZ9ZerxBNYABJStdx7L9+bKZ8puFY++WLmxWJJ4b83AAAANmCBjAAAECGPbRyp/a2hR1rnz1hkurGlHqcCACA1BsdqtPZ035AExhARk2rGqFzT5joWNvTFtbDK3d6nAgAACD1aAADAABkUDjmvvo36DP11dOme5wIAID0GVNMExhA5n31tCMU9DmfFv3lS1sUjrEKGAAA5DZ/pgMAAAAUsvuXN6ipI+JYO3/+JE2oLPY4Uf4rCphaNK3ctQbAmWkaqixx/hPSdNlKE4UnmfdJbxP4T/XXKZzocBzb2wQ+s+5a+c1g2vIC2YLjE29NqCzW+fMn6Z6lO/rU9rVH9PvlDbrsg1MykAwAACA1aAADAABkSHc0rltfdln96zf1lVNZ/ZsOpmGoOOjLdAwg5xT5Tc2b7L5qE5CSf5/QBAbej+MT7/3zh6brwZU7FY1bfWq/erleF8yv5d8EAADkLC4hBAAAyJB7l+5Qc6fz9pYXL5isceUhjxMBAOAdtoMGkEnVFSFdtKDWsdbcGdF9y/quDgYAAMgVNIABAAAyoCea0B1/2+pYCwVMXfWhaR4nAgDAezSBAWTSVR+appDLFtu/fqVePVHuBQwAAHITDWAAAIAMeHBlg+vq30sX1amqrMjjRAAAZAZNYACZMrYspM8tnOxYa+mK6oEVDR4nAgAASA0awAAAAB6LxBO67RXn1b/FAZ+uOHmqx4kAAEPh9xnymXJ8+H1GpuPlFJrAADLlylOmqcTlXr+3vVqvSJxVwAAAIPfQAAYAAPDYI6t2qbE97Fi7eGGtRo9g9S8A5IKykF+nzBzp+CgL+TMdL+fQBAaQCWNGFOlil1XA+9ojenTVbo8TAQAADB8NYAAAAA/FEpZufbnesRb0m/rSSaz+BQAULprAADLh8pOmKOh3Pk36q5e3KJawPE4EAAAwPDSAAQAAPPT4G3u060CPY+38EydpbHnI40QAAGQXmsAAvDa2LKTzT5zkWNt1oEdPvLHH40QAAADDQwMYAADAIwnL1q9e2uJYC/gMXXnKNI8TAQCQnWgCA/DaladMk990vn/7r17eooRle5wIAABg6LgpEQAAgEeeebtRW5u7HGufmTdREyqLPU5UmMIxS6t3dDjW5k0uUyjANZKAk4Rlq70n7lgrL/bL53LSHIUlle+T3ibwn+qvUzjhPG/3NoHPrLtWfjM4pMxANuD4JPMmVBbr0/Mm6OHXd/Wp1e/v0jNvN+oTx9ZkIBkAAMDg0QAGAADwgG3b+vUrzvf+NQ3pqg+x+tcrtm0rHHO+j5tts7IDcBONW1rT0OlYWzStXMVBn8eJkI1S/T6hCYxCwfFJdrjqQ9P1yKpdclrs++tX6nXmMdUyDC54AgAA2Y/LBwEAADywdGuL3trd5lj7P8eN1+TRpR4nAgAgN7AdNACvTBlTqk8dN96x9tbuNi3d2uJxIgAAgKGhAQwAAOCB217Z6lr7Mqt/AQDoF01gAF755w9Nd631d0wPAACQTWgAAwAApNmGve16ZdN+x9qpM6t0ZHW5x4kAAMg9NIEBeGFmdZlOnVnlWHtl035tbGz3OBEAAMDg0QAGAABIs9tfdV8pcOUprP4FspFhGAoFTMcH9/5Dr1jcUkNLj+MjFne+lyeGJ9km8JPbf5Q1TWDmEyD3XHGy+zF6f8f2AAAA2cKf6QAAAAD5bNeBbj2xdo9j7bhJlVowZZTHiQAkIxQwtXh6RaZjIMt1RhLa0hR2rJWF/Brp55rrdBhTXKezpn1fj9Vfr3Ciw3FMQ8caPbn9R/pE3XfkN4MeJ3w/5hMg9yycOkrHTazQ2l1tfWpPvLFH3/zYTI2vLM5AMgAAgOQua/CSAAAgAElEQVTQAAYAAEijO/++XQnLdqx9+eSprPxBVigO+nTarJGZjgEASasqnpJTTWC8H587yHaGYeiKk6fpK79f3acWt2z97rVt+o9PHJWBZAAAAMnhcmQAAIA06QjH9PDrOx1rdaNL9LGjqz1OBABA/uhtAve3HXRvEzhbtoMGkDtOn12t2lEljrUHVuxURzjmcSIAAIDk0QAGAABIk4df36XOSNyx9qWTp8pnpn/1r99nqG5MyPHh97H6GACQ22gCA/kr08exPtPQl06a4ljrjMT1h9d3pT0DAADAUNEABgAASIOEZevuJdsda6NKg/rMvIme5Aj4TE2tKnZ8BHwcCgIAch9NYCA/ZcNx7DnHT9KoUuct5O9a4n6rFwAAgEzjrB8AAEAa/HXDPjW0djvWLlpQq1DA53EiAADyV7JN4OWND3qYCkCuKw76dNGCWsdaQ2u3XtzY5HEiAACA5NAABgAASIM7X9vm+PWAz9DFCyd7nAYAgPyXTBP4jeY/K25FPEwFINddvHCy/C63bvmdyzE/AABAptEABgAASLH1e9q1bGurY+0Tx9RoXHnI40QAABSG0aFajSuZ4Vq37Lgs2/IwEYBcN648pE8cW+NYW1Lfoo2N7R4nAgAAGBgNYAAAgBTrbyXAZR+c4mESAAAKh2Un9OyOn2lHxyrXMTUlRypgciEWgMH5wgfcj+Hvem27d0EAAACSRAMYAAAghVo6I3p87R7H2gmTR+rYiZUeJwIwFJZtqyeacHxYtp3peAAO09v83dK2xHVMwCzWKROvkGE4b+WaLswnQO6bM6lS82qdj+P/tGa3WruiHicCAADonz/TAQAAAPLJH1btUjTuvLVkfysHAGSXSMzS0nrnLR0XTStXcdDncSIAbpJt/p419XpVFXv/Wcx8AuSHL3xgilY3rOnz9Ujc0kMrd+qqD03LQCoAAABnNIABAABSJGHZun/5Dsfa+IqQPn70OI8TAcnpiSZoTgDISYNp/laXzvQwGfrD5w5y0emzq1VTEdLetnCf2u9X7NCVJ0+VaXq7wwAAAIAbtoAGAABIkVc37dfO1h7H2kULJ8vv49ALAIBUofkLwEsBn6mLF052rO1s7dErm/d7nAgAAMAdK4ABAABS5N5lzqt/Az5D554wyeM0h8QSlna2Rhxrk0YVKUBTGgCQgxJ2XM/t+DnNXyCPZeNx7HknTtJNL2xSLNH3/t33L9uhU2eO9TwTAACAExrAAAAAKbCztVsvvdPkWDtjdo2qyoo8TnRIPGFre3PfbeokqaYiqAA7LAIAcgzNX6AwZONx7JgRRTpjdo2eWLunT+2vG5u060C3Jo4s8T4YAADAYVjyAQAAkAK/X9Egu+9CAEnS5xY5bxUHAAAGh+YvgExz2wbatqUHVjR4nAYAAMAZDWAAAIBhisQTemjlTsfazHFlOmHySI8TAQCQf2j+AsgGJ9aN1IxxIxxrD63cqWjc8jgRAABAX2wBDQAAMEzPrtun1q6oY+3iRZNlGIbHidCfoN/U3Frnk3ZBP9dHAm4Mw1Ao4Pw7wjyHXul6n9D8Rb7j+CR3GIahixdO1nWPr+tTa+6M6tl1jfrUceMzkAwAAOAfaAADAAAM08Muq39Lgz6dPXeCx2kwEJ9paGRpINMxgJwTCphaPL0i0zGQ5dLxPqH5i0LA8UluOXvuBP3o6Y3qjib61B5c2UADGAAAZByXEAIAAAzDztZu/X1Ls2PtrLkTNKKI6+0AABgqmr8AslFZKKCzXC70fG1Li3a2dnucCAAA4P1oAAMAAAzDw687r/6VpPNPrPUwCQAA+YXmL4BsduF892P9/v5GAAAA8AINYAAAgCGKJyz94fVdjrWjaso1e0K5x4kAAMgPNH8BZLvZEyp0VI3z8f4jq3YpYdkeJwIAAPgHGsAAAABD9Orm/WpsDzvWzp8/SYZheJwIAOAl03Sf5/uroX80fwHkivPnT3L8+t62sF7dvN/jNAAAAP/ATekAAACG6MEVzlu7FflN/dNxzvcEAwDkj4piv06bNTLTMfIKzV8AueSfjpugG57coGjc6lN7aMVOnTpzbAZSAQAAsAIYAABgSPZ3RPTixibH2pnH1KiiJOBxIgAAchvNXwC5pqIkoDNmVzvWXtiwT82dEY8TAQAAHEIDGAAAYAgef2O34i739Tr3BOet4AAAgDOavwBy1Xkux/5xy9afVu/2OA0AAMAhNIABAACG4FGXkzl1o0u0cOooj9MAAJC7aP4CyGULp47WpFHFjrVHV+/yOA0AAMAh3AMYAABgkNbvadeGve2Otc/MmyjDMDxOhMGIxC2t293lWDt6QqmK/FwjCTixbFuRWN97HEpSUcCUydwHDf59QvMXOITjk9xlmobOPX6Sfvr8pj61jY0d2rC3XbNqyjOQDAAAFDIawAAAAIP0pzXuV/KfPW+Ch0kwFJZl62B33LUGwFkkZmlpvfPFL4umlas46PM4EbLRYN4nNH+Bf+D4JLedPW+CYwNYkv60ZjcNYAAA4DkuHwQAABiEeMLSY2/scawtnDpKE0eWeJwIAIDcQ/MXQD6ZONL9NjCPrdmtBE18AADgMVYAAwAADMJr9S3a3xGRJI0uLXpf7ZzjJ6knmkjJz0l2O9VwzJJtu59QCrtswzlQTZKCflM+c+AMkbiVtpUpAb8pfxIZonEr6RNrg31N/D5DAd/A103GEpbiifS8Dj7TUDCJrR/jlq1YvP9/VyfJvCamaSS1/WTCshUdQoZkGIahUGDgDP1tQZusgX4/kpGq+cBJquaIwRjqa5Jrc8RgFcIckYzBzBHhWFQv7b5Z2zqWuo4LmMU6o/Z7qghMT/p3ycs5oj+DWQ2firnmcIN5r6dyjjhcsscRh0vla5JLc0S8n58/3Nck1+aI3uOI4RzHOkn3HHHOvEnavO/923i3dEXU1BHRa1uadfKMqkE/JwAAwFDRAAYAABiEP67+x/bPN55zfJ+627aXg5Xsdqqrd3QM+aTgmobOfutza0doZGlgwOdZt7vLdcvC4ZpVU6KayqIBx21p6lFjW3TYP8/pNakbE9LUquIBv3dna0Tbm8PDzuCkuiKoo8aXDjhuf3tUG/Z2p/Rn974mlSV+zZtcNuD49p74gO+toQoFTC2eXjHguP62oPVSOjN4MUekSj7NEU4KfY7olewccbA7rL9s+5nardddx5gKaaL5DdXvqVa9kv89ypY54rRZI5Mem4758kDM+fdte8dqde9oe9/XmjuicrsuocfaqqiaUh3PkaliTfJfpRHm7JS+Jrk0R+w5GHGtDfc1yaU5ItnjiKG8JumeI0aVlvb5++Cyuw/tcvCnNbtpAAMAAE/RAAYAAEhSZySuZ9c1ZjoGACCLhKMJHeiK9fl6WbFPfpO7Lr2XZcf1932/GLD5O9n/ryoxp3mYrDAcjOzWwcjuTMdwZKlHO+I/03jf5zXSd3Km4wAp98zbjbrhrLhKizgVCwAAvMFRBwAAQJKeX9+Y8ZV0ADJvMNu7Iv81tsfU2N63AXxoFwUawL1sO66Xdt+shs5lrmPytflbHPQ5rgp+ccOBDKTJbnsSd9EARl7qiSX07LpGfXrexExHAQAABYK/RgEAAJL057V7Mx0BAICcY9tx7Urc3u89f/O1+ZsJhhHMdAQADv7yJn9LAAAA79AABgAASMKBrqhe3bQ/0zEAAMgpvc1ftn32TolxRKYjAHDw6qb9OtidnntNAwAAHI4GMAAAQBKeWdeouGVnOgYAADmD5m9mVJqLNbZ4ZqZjDMlE35WZjgCkTdyy9czbjZmOAQAACoRh2zZnMgEAAAZw4R3LtKS+5X1fG11apJqKkB6+cqEMw0jpzysKmDKTeM5wzFK6DueCflM+c+AMkbglK03N8YDflD+JDNG4pUSSGcIxS2saOh1rc2tHKBR4/zWSfp+hgG/g6yZjCUvxRHpeB59pKOgfOEPcshWLp+c+1aZpqCiJDAnLVjRNGQzD6PPv48SybUXSeL/uZO8B3BNNpC1DJuaI/n53Fk0rd31dcm2OGIy2nrjW7+l2rB26B3Dg3f8ulDmiJ5rQ0vr2pJq/AbNYZ9R+T2OLZ6QkA3PEPxhmRDs6Vmpv10Yl7LjruIQlvXPwhbTlSFZ5sEYn13xF1SVHpvR5Mz1HSMkfR3SE41q5rcOx5nR8MhjZNEcMJB+OI2zb1rm3LdPetrBauiLvq31w+hjdd/mCIT83AABAsvyZDgAAAJDtmtrDWrq1pc/XW7oiOvfEiSopytwh1XBOBqZKMifz0i2Zk5rJCAXMpE/cHy7gMxUY2remjN805B9i/lTxmcaQX8NUMY3MZ5CSbwKlE3PEIamaIw4XHkSDoJDmiGSbv2dNvV7Vpd6vVC2MOaJEM0eeopkjT+l31Oqmx/XOwf6f6dSJX9bs0R9PYbbsk645YjD6a1QP5/hksBk4jkjNHPHBI8bo16/U9/n6kvpm7e+IqKqsaFjPDwAAMJDMH+ECAABkuSff2iu3BXSfOna8t2EAAMhiVpY3f/EPq5se12t77+p3TCE0f4F0+OSxNY5ft2zp6bf3epwGAAAUIhrAAAAAA/jLm84naaZVlWpWTZnHaQAAyE4JO66Xdt9M8zcH0PwF0uvo8eWaOqbUsfaXtTSAAQBA+tEABgAA6EdjW1irdhxwrH3quPEpv/cvAAC5KGHH9dyOn2tbx1LXMTR/swPNXyD9DMPQJ49z3iloxfZWNbaFPU4EAAAKDQ1gAACAfjy3vtG19km2fwYA4N3m75a2Ja5jTIV0Ru33aP5mGM1fwDufctkGWpKe7+dvDAAAgFTwZzoAAABANnv6LeeTMzPGjdD0sSM8TgPAKz3RhJbWtzvWFk0rV3HQ53EiIDsl2/yd7P9XjS2e4WGy7JEt8wnNX8BbR4wr04xxI7RpX2ef2jPrGvW5RXXehwIAAAWDBjAAAICL1q6olm9rcaydPtv9in4g14Rjllbv6HCszZtcplCAjYMA9DWY5m+JOc3DZDjcjvbVWdX85XMHheL0o6u1ad+WPl9ftrVVB7qiGlkazEAqAABQCDiiBgAAcPH8+kZZtnPt9KOrvQ0DpJFt2wrHLMeHbbv8EgAoaDR/c8va5qf6rXu98pfPHRSKj892/pshYdl6YcM+j9MAAIBCwgpgAAAAF8+87bz98+TRJZpVU+ZxmqGJW7b2t0cda1XlQflNw+NEAIBcR/M397RH3e83yrbPyFb5cBx7VE25Jo0q1s7Wnj61Z9c16rMnTMpAKgAAUAhoAAMAADhoD8f09y3NjrXTj66WYWT/CSdJisUtbdjb7VirLPHLz31MAQCDQPM3v8yrOpvmL7JWPhzHGoah04+u1h1/29an9urmZnVG4hpRxOlZAACQemwBDQAA4OCljU2KJZy3IDzdZSs3AADyWTLN34BZTPM3h5QHx2Y6ApD33P52iMYtvbSxyeM0AACgUNAABgAAcPDCBueTMdXlIR03sdLjNAAAZFayzd8zar9H8xcA3mPupJGqKityrD23nvsAAwCA9GCPEQAAgMPEEpZefse5Afyxo8fJzIH7jcFdwG9qVk2Jaw0A8H7JNn/Pmnq9KgLTVa92D9MB+YHjk/xlmoY+fvQ43besoU/tlXeaFEtYCvj4NwYAAKlFAxgAAOAwK7e3qiMcd6x9eNY4j9Mg1fymoZpK51UYANwVB306bdbITMeAxwbT/K0unSlJvE+AIeD4JL999KhqxwZweziu17cf0KJpozOQCgAA5DMuLwMAADjMX122fy4N+rRw6iiP0wAAkBlDaf4CAPpaOHWUSoI+x9qLG9kGGgAApB4NYAAAgMO8uNG5AXzSEVUq8jufuAEAIJ9YdoLmb57Y27VRHdH9mY4BFLQiv08nHTHGseZ28SkAAMBw0AAGAAB4j/r9ndrW3OVYO23WWI/TAADgPctO6NkdP6P5mwf2dm3U41t/oLgddaz7DO4Mhv/P3p3GyHnmh4H/11tXN/vi0TwlHiIpjShRHklzONR4NB6N7cx4glwbIOtZBAsEewGBvQl2g2R3gQTeIDEcIxvEwQLO7n4JsLGRDwskC0/iWXsczwwyiufQMaNjRiNKIikeEm92N/uoaz9wKFHs962uvqq63vf3Axog36e66s/iW089z/N/Dvol6yiZt67MxVuXZ/scDQCQdxLAAAD3+Prr6VuwlUoRzz0qAQxAvkn+5sfd5G+jPZ/5mN3bjvUxIii2z38suy+RtQMRAMBameoJAHCPrC3Ynjy4PabH632OBoCtbMdYNZ47sWPQYWwYyd/86CX5+/jOX4rdow/1MSoott0T9fj4we3x8rkby8q+/vr78V999ugAogIA8soKYACAn5pZaMT3z1xPLfuC1b8A5Jjkb370kvw9PvWZ+PkH/5s+RgVERPxCRp/iu+9ci5mFRp+jAQDyTAIYAOCnnj99NZrtTmrZ5yWAAcgpyd/86DX5+2cP/61ISuU+RgZERDx3Ir1P0Wx34vnTV/scDQCQZxLAAAA/9Y03Lqde3z1Rj8f2T/Y5GgDYfJK/+SH5C1vfY/snY89E+rEy3/xJel8EAGAtnAEMABARnU4nc9Dl2Yd3R6lU6nNEbJalZjvefD99cPz4ntGoVcyRBIpB8jc/JH+Hn/ZJMZRKpfjsw7vj/3nh3WVl33zjygAiAgDySgIYACAi3rl6O85dSx90e/aR6T5Hw2ZqtTtx6eZSatlD0yN9jgaGx/xSK54/fSu17NSxyRitSSoNk81K/rpP+k/yNx+0T4rj2UemUxPAZ6/djjNX5+LwrrEBRAUA5I3pgwAAEfHNjO2fS6WIzz68u8/RAMDmsfI3PyR/Yfj83PHpyNpcKKtPAgCwWhLAAACRff7vzzwwFTvHan2OBgA2h+Rvfkj+wnDaNV6PkwemUsu+YRtoAGCDSAADAIW31GzH86evppY9+4jVvwDkg+Rvfkj+wnDLOmLm+dNXYqnZ7nM0AEAeSQADAIX30rkbMd9opZZJAAOQB5K/+SH5C8Pv2YwjZuaWWvHSuRt9jgYAyKPKoAMAABi0rNW/Y7VyPHlwe5+jAbaCejWJU8cmM8sgIuL6XCNePDubWvbUofHYMVbtc0TpJH8HayPrE8lfyIenD++I8XolZheby8qeP301Pv3QzgFEBQDkiQQwAFB43z6dftbWzx7dFdWyRA/5V6sk8dSh8cyyIkpKpRitSZ4w/CR/B2+j6pM8JX9971B01XISn35oZ/zxj95fVvb8W1fiv4+HBxAVAJAnEsAAQKHNL7XixbPp26w9c2xXn6OBwSgnpS2zUhHYOJK/+dFL8vfg+MfjFw/92pZP/kb43oGIiFNHd6UmgF84cyMWGq0YqW79zzIAsHVJAAMAhfb9M9djqdVOLTuVgwRwkpRi+7b0Jl+SlPocDQD9IvmbH5fm3lgx+RsRcW725fi/Xv0v49jUqfj5B//bqCb1PkUImyPv7disvsZSqx0vnLkezxyf7nNEAECeSAADAIX2/Fvp2z9v31aNE/vSz+sbJvVKEk8fnhh0GAD0keRvfjTai/G1s/9kxeTvh49fiB9d/w/RiXb80qG/ucnRwebKezv2sf2TMTVajZvzjWVl3z59VQIYAFgXB6sAAIX27dNXU6//mYd25WJlAQDFIvmbL+dnX4lbS8u3iF3JT278x2i0FzchImCjJEkpfvahnallz7+V3kcBAOiVBDAAUFizi834wbs3U8ueOT782z8DUCySv/nT6ixfGdiLdqcZ5ZJN32CreyZjG+iXz92IucVmn6MBAPJEAhgAKKwXzlyPVruTWpY1GAMAW5Hkbz4dmngqRsrjq/6941OnIimVNyEiYCOdOpa+zXOz3Ynvnbne52gAgDyRAAYACut771xLvb5rrBbHdq9+sBUABkHyN7+qST3+4tFfj+31Az3/zlRtfzz7wH+9iVEBG+WRveOxa6yWWvb9jL4KAEAvJIABgML6TsagyqeO7IxSyfm/AAyHb5z/PyV/c2z3tqPx1x793+NXHvmnMVbZ0fWxU7X98ZeP/4MYq3Z/HLA1lEql+NSR9HOAv/uOFcAAwNo5EAYAKKSlZjteOncjteyTRwyaQtEtNNrxwpmZ1LKnD0/ESNVcWraG6wvn45WrX8ssl/wdvI2oT+abt+IPz/6zmGtmJ4TuJn/Hq46xgGHyySM74g9evbTs+ovnrkej1Y5qWZsDAFg9CWAAoJBeuXAzFhrt1LKsWfiQV4vNdrx6fi617PEHxqJeKd7AY6fTyawjOp30s8NhEC7Pv51ZJvm7Nay3Pplv3op/c/rvx5WFdzIfM2zJX9878KGsvsdCox2vXrgVTx7c3ueIAIA8kAAGAAop6/zfbbVyPH5gss/RwGC12524cbuZWQZsXe1I/+wmpYrkbw7kMfkb4XsH7vXYgckYrZZjvtFaVva9d65JAAMAa2JKJQBQSN95O30LxacObY9KjrZZa7U7cX2ukfrTMsAKkFujlSnJ3yGX1+Qv9Koo7dhqOYmnDqUneb+bMWkVAGAlVgADAIXT6XTi+2fSB1Pytv3zUrMdL56dTS07dWwyRmvlPkcEAKxE8heK1Y795OEd8e3TV5dd/94716PT6USpVBpAVADAMMvP8hYAgB69c/V2XL/dSC3LWwIYABgukr9QPJ/M6INcnVuKt6+kn5cNANCNBDAAUDgvnUvf/jkpRXzcGVsAwIBI/kIxPXVoeyQZi3xffvdGf4MBAHLBFtAAQOG8dDZ9EOWRvRMxXtc8yrtKuRRHpkcyywBgECR/i037pNgmRqrxyN6J+NGlmWVlL529EX/pqQcHEBUAMMyMcAIAhfPSufQE8JNW/xZCtZzE0d2jgw4Dhk69msSpY5OZZRDhPlkryV+0T/j4g9vTE8Dv3hxANADAsJMABgAKZaHRitcu3kotkwAGyJaUSjFaKw86DLY498nqSf4CERFPHtoe//p755Zdf/3CrVhstqJeUbcCAL0z/RYAKJTXLt6KRquTWub8XwCgnxaaM5K/QERkT0ZdarXj9YvLVwYDAHQjAQwAFErW+b/bauV4ZO9En6MBAIqq2ZmNf3f21yV/gYiIeHjPeIxW01f5vnT2ep+jAQCGnQQwAFAoWef/PvHAVJSTUp+jAQCKqNmZjTPN34pri+9kPkbyF4qlUk7iiQenUstedg4wALBKzgAGAArllfPpgydPHrL9MwCrMzFajqcOjWeWQZZ3m78TC53lZ33etb22P/6S5C8UzpMHt8d33r627HrWJFYAgCxWAAMAhTGz0Ii3rsylln38QQlgAFankiSxY6ya+lNJdLfJtq/8V6Mc6ZMHJH+huLLOAX77ylzMLDT6HA0AMMz0SAGAwnj94kxm2ckD6dutAQBstJHkYByp/O0YKU9+5LrkLxTbEw9k90m69WUAAO4nAQwAFMarF9K3f54YqcTBnaN9jgYAKLKR5GB86dDf+yAJLPkLPLhjNCZH0k/sy+rLAACkcQYwAFAYr5y/lXr95IGpKJVKfY6GQWm02nHu2mJq2cGd9aiWzZEEoD92jRyJv3Ts1+NP3v0X8cUj/6Pkb4FpnxARUSqV4rEDk/Gf3lp+DvCrF9L7MgAAaSSAAYDCyJo1//iBydTr5FOz1Yl3riyklu2fqkW13OeAYEgsNNrxwpn07SefPjwRI1XJCdwnazE9eiT+s+P/yGS0gtM+4a7HD0xJAAMA6yYBDAAUwkKjFT95fza17GSXs7YAuKPT6cRCo51ZBhHuk7WS/AXuypqc+pP3ZmKx2Yp6xWwAAGBlpt4CAIXw40sz0WqnDzyffMAKYAAAYPCyJqc2251441L6hFYAgPtJAAMAhfDaxfQt00ar5XhoerzP0QAAACx3dHos6pX0IdusI20AAO4nAQwAFMKPL6WfR/ixfRNRTmy7CAAADF6lnMSj+9N3KPpRRp8GAOB+zgAGAArhjfc+HCzZNVb/4M9PHtwe80utDXudejWJpIdz/BYa7U07C7FWSXpKai+1OhEb+G+/V7WSRKWXGJrtzK2516tSLkW1vLr5jlnnVq5VOSlFLWMFx72a7U40mhv72nclSSlzFUkvNuI9KZVKMVJdOYZ2pxOLG/x/cK/RWm9n5s0vtaLd7sRjB7allrfbnTXXG8NURyw229G+5/PZ7V5Y7X0yTHVEo9WOZis9hpmFVrxyfi617OQDYzEx0v2e24g6YqmZHlun09t92msd0Wp3YqmHemot98kw1hGrsZr6ZJjriNVY6T7JSx2xGuv5vt0K7Yhe64jVWO17Mqx1RJqnDm6Pd6/Nf/D3q3OLEfHRPg0AQDcSwABAIdy7Avi3/sonPlL2/On07aHX4tSxyZ4Gh144M7Phyca7njo0HjvGqis+7o1Lt2NmYXMSwCf2b4v92+srPu7N9+fj0s2lTYnhyPRIHN09uqrfefHsxp6rtm+qFo8dGFvxcZdvLcXrF29v6GvftX1bJZ4+PNH1MdVKEod21uPstcVlZRvxnoxUk3jmePp5dvdabLQ39PN4v+dO7OjpcZsZwzDVEa+en4sbt5s9Pedq75NhqiPOXVuMd64srPr5sxLD99qIOuJGaz71+lKz09O93EsdERFxa7657vog6/fVER/Kax2xGi+enS1EHbGRBt2OiNiYOmK98lRHPPvwgXj24QMf/P2v/8tvR4QEMADQO1tAAwC5d2V2Ma7Obc7gIORBJSnFrvGVB/sBABicK7NLcWV2+YQ9AID7WQEMAORe1vm/RdBtW00nHwMAMAzub8+WetgqPa/eeG8mpsdXXiEPABSbBDAAkHtFTgB321bzhTPFfV8AABgOvW4TXxRvXJqJZ45NDzoMAGCLswU0AJB7zsoCAADy4MfvDfasZQBgOEgAAwC5JwEMAADkwY8v3Rp0CADAECh1Op3OoIMAANgsnU4nnvxf/zBuzjc+uLZr7M6ZWX/7zz4Sf+HJBzb09erVJJIeziRbaAJik9gAACAASURBVLRjs5phtUoS5WTlGBab7Wi3NyeGaiWJSg8xLDXb0dqkGCrlUlTLy+c7zi+14vnT6QNnTx0azzwzeS3KSSlqlZWfr9nuRKPZ3rDXvVeSlKLeQwytdieWNimGbmdR36vd6cRiY3NiiIgYrZV7etz8UmvTYhjmOmKh0Y4Xz6avOlrtZ2cr1xH3a7Ta0Wylx3BzvhmvXbidWvbYgW0xNdr91KWNqCN+cvOb8Y0Lv73s+rbKzvjKw//His+90XXEWu4TdcSHhrmO2Eh5qSNWo9tn59Sxya73p3bEHXmrI/7tS+fjt772RkREXJ1b/OD61Gg1Xvp7v1joc5ABgJU5AxgAyLVrc0sfSf5GfDiAcmR6rOeBnI22kUnGteplMG+z9ZL46KeRajKQe6KSlKIyoHvxrnJSGtjn4a6kNPgYInof4N1Mw1ZHbNZnZyvUEdVyEtWMf9pCl0RDvbJx70m3OqJWSU8AlDb487QRdcR67xN1xIeGrY7YLFu9jugX7Yg78lZHPDQ99pHE71035xtxbW4pdo3XN+R1AIB8GnxLGQBgE711ZS6z7OjusT5GAgAA0JuHuvRV3u7SxwEAiLACGADIubcup2+lN1GvxG6z5oEMi812vHo+fXD18QfGtsTKN2A4qE+Atdg9Xo+JeiVmFpvLyt66PBefPLJzAFEBAMNCAhgAyLW3LqcPuB7dPebcLPippWY73nx/PrXs+J7RLbHFZr+12524cXv5gOvdMoBeqU+W870DKyuVSnF091i8/O7NZWWnr6RPcgUAuEsCGADItdMZCeBju8f7HAlsXa12Jy7dXEote2h6pM/RAJB3vnegN0d3j6cmgN/O6OMAANwlAQwA5NpbGbPji3L+b7vTicVGO7WsXk0isQoaAIAtSDs24qHp9D7LW84ABgBWIAEMAORWs9WOs1dvp5YdLcgK4MVGO54/fSu17NSxyRitlfscEQAArEw7NnvS6pmrc9FstaNStl06AJBOKwEAyK2LNxeimXG2XtZsegAAgK3g6HT6pNVGqxMXbiz0ORoAYJhIAAMAuXX2Wvrq34iIQzu39TESAACA1Tkynd1nOXc9u68DAGALaAAgt7ISwNPjtRirawYVVTkpxb6pWmYZAEC/aZ+QZlutEtPjtbgyu7Ss7Oy12/GZAcQEAAwHI58AQG6dy0gAH7T6t9BqlSQeO2ALcFitWiWJpw6lb0VZq9hcijvcJ7A22idkeXDHttQEcFZfBwAgQgIYAMixrBXAB3dIAAOsVjkpxY6x6qDDYItznwBsrEM7t8VL524su97tuBsAANNvAYDcypoV7/xfAABgGBzcOZp6/dz1+T5HAgAMEwlgACC3smbFSwADAADDIGv3IltAAwDdSAADALk0s9CI67cbqWXOAAYAAIZB1uTVa3NLMbvY7HM0AMCwcAYwAJBLF24sZJZlbaMGAKsxXi/H8T0jmWUAsF7dJq++e/12PLpvso/RAADDQgIYAMilCzfTz8RKShF7J9MH6wFgNaqVJA7tMqkIgM2zf2okklJEu7O87OKNBQlgACCVLaABgFy6mLECePdEPaplTSAAAGDrq5ST2D1RTy27eDN71yMAoNiMfgIAuXQxYwXw/ikrtQAAgOGR1Ye5lNHnAQCwBTQAkEtZs+EPbLf9c9E12524fGsptWz3ZC0qSanPEQEARad9Qjf7p0bipXPLr1sBDABkkQAGAHIpawXwvkkrgIuu0WzH6xdvp5Zt31aJSq3c54hgOCw22/Hq+bnUsscfGIt6xQZTuE9grbRP6GbfVPok1ku3JIABgHQSwABALmWdAWwFMMDatNuduHG7mVkGEe4TgM1wIGML6As3bAENAKQz9RYAyJ1Op5O5HZozgAEAgGGStQL44s2F6HRMrgEAlpMABgBy59ZCM+YbrdSyrMETAACArWh/Rh/m9lIrbi2k77oAABSbBDAAkDuXZxYzy/ZM1PsYCQAAwPrsncyexNqt7wMAFJczgAGA3Lkymz0IslsCGOhBtZLEif3bMssgImJmoRkvnJlJLXv68ERMjOhyoz4B1q9bH+bK7GIc3zPex2gAgGGgNwoA5E7WLPiJeiVGquU+RwNbX6VciiPT6StLKuVSn6PZGipJKfZvN2GE7pqtTrTa2WUQoT5J43sHVmekWo6JeiVmFpdv99xt8isAUFwSwABA7mQNglj9C+mq5SSO7h4ddBgAFITvHVi96Yl6egLYFtAAQAp7DQEAuZO1AnhaAhgAABhC0+O11OtXZpf6HAkAMAysAAYAcicrAbx7vHgJ4NFaOZ47sWPQYQAAwKpox37UdEZfxhbQAEAaK4ABgNyxBTQAAJAnWQngrMmvAECxSQADALmTtQ1a1rZpAAAAW5kVwADAakgAAwC5c2M+PQG8c8wKYAAAYPhMT6RPZr065wxgAGA5CWAAIHduzDVSr2/fVu1zJAAAAOu3Y1t6AvjmfHrfBwAoNglgACBXGq12zCw2U8skgAEAgGG0fTS9LzOz0Ixmq93naACAra4y6AAAADbSrS4z4LePOgMY6M1Ssx1vvj+fWnZ8z2jUKubSAr1RnwAbYarLZNZbC83YOaavAwB8SAIYAMiV67e7JICtAIZUjVY7zl1bTC07uLMe1XLxkhOtdicu3Uw/U++h6ZE+RwMMM/XJcr53YPW2Z2wBHRFx4/aSBDAA8BESwABArtycTx9gjZAAhizNVifeubKQWrZ/qhbVcp8DAiDXfO/A6mVtAR0RccM5wADAfUypBABy5UbGCuBaJYlRo4kAAMAQ2lYrR7VcSi272WUXJACgmKwABgByJSsBvH20GqVS+oBJns0vteL507dSy04dm4zRmqQ4wDCrJaOxvbZ/2fXR6vYBRAOwcbRjP6pUKsXUaC2uzC7fPv1Gl12QAIBikgAGAHJlZiE9ATzZZcs0ABhWR6d+No5O/eygwwCgD6ZGK+kJYCuAAYD72AIaAMiVuaVW6vWxunlvAADA8BofSZ/UOrfY7HMkAMBWZyQUAMiV2YzBjwkJYH4qSUqxfVv6/ZAkxdsmHAAYPO0TejFeT9/2enYxfRIsAFBcRkIBgFyZXUhPAI9lDJZQPPVKEk8fnhh0GDB0qpUkTuzfllkGEe4TWCvtE3oxVksfyr29ZAUwAPBREsAAQK5kbX9mC2iA9akkpdi/vT7oMNji3CcAm2c8o0+TtQsSAFBcpt8CALliC2gAACCPsia1OgMYALifBDAAkCtzGdufWQEMAAAMs6w+ze0lZwADAB8lAQwA5MrsYvrghwQwAAAwzMbr5dTrtoAGAO5nJBQAyJX5rBXAtfTBEgBYq231cuyfqmWWAcBGsgU0ANArCWAAIFcWm+3U6yNVA/EAbKx6JYkTB8YGHQYABTGa0adZaKT3gQCA4pIABgByZTFj8KNedfIFAJuk04mYmYlYWoqo1SImJiJKpUFHBUDOZPVpljImwQIAxSUBDADkykIz/QzgesUKYAA20A9/GPF7vxfxne9EvPBCxPXrH5bt2BHx9NMRn/50xFe+EnHy5ODiBCA3svo0ixl9IACguCSAAYBcyVwBXLECmDta7U7cmk8/J21ytBLlxKo9oIuvfjXiN38z4lvfyn7M9esRX//6nZ/f+I2Iz3424u/+3Yhf/uX+xQkMFe0TelErp/dpso7BAQCKSwIYAMiNTqeTOfvdCmDuWmq248Wzs6llp45NxmjNvQJplprtePP9+dSy43tGo5b3iTZXr0b86q/eWfW7Wt/61p2fr3wl4rd/O2LXro2Pb4so/H0Ca6R9Qi9sAQ0A9EoCGADIjWa7E+1OepkzgAHWp9XuxKWbS6llD02P9DmaPvvBDyK+9KWICxfW9zy/+7sRf/InEX/wBxFPPLEhoW01hb5PADZZ1qTWZrsTzVY7KhkrhAGA4tEqAAByo9vWZ7aABmBNfvCDiJ//+fUnf++6cCHic5+7c4YwAKxCt10UllpWAQMAHzISCgDkRretz2w5CcCqXb16Z+Xv9esb+7zXr0d88Yt3nh8AetRtUqttoAGAexkJBQByo9nOHvSoJKU+RgJALvzqr27cyt/7XbgQ8Wu/tjnPDUAuVbts8WwFMABwL2cAAwC50SX/G0lJAhjoXaVciiMZ55VWyuqTQvjqVyN+7/e6PmTu8LF4+Xf+dWrZx/+7vxpjZ053f43f/d2Ir3wl4stfXmuUDAH1CbBRyl0mtXbrCwEAxSMBDADkRqvTySzrNlgCRVdOSrFvqpZZVkTVchJHd48OOgwG6Td/c8WHLO2cjoXDRzPLVkwAR0T8438sAZxz6pPlfO/A2nT7eLS79IUAgOKRAAYAcqPdzh70sAIYstUqSTx2YGzQYcDW8cMfRnzrW/15rW9+M+KVVyJOnuzP68EW4HsH1qZbn6bVpS8EABSPBDAAkBv3D3oc3z3xwZ8XGu24PtfYsNeaGC1HJck+g+uum/PNronp9Rivl6NaWTmGLDfnm7HQWN9ecdvq5aj3EMPcYjOWmpvzPoxUkxitlVd83PxSKxYa7VhsZv+b1/qe1CqlGKuv3LRebLbj9mJr1c/fi0q5FBMjK8fQaLZjdpNiSJJSTI2uHEOz3Y6Z+c2JISJix1i1p8dtZJ1wv2GqI2YWmtFsrRzDWj47w1hHRETEH30j4qmfXfF3Zh55rKey2rUr3VcD/97vRfzDf5iLOqLbfTKz0Orp/0Id8aFhqiPWYmjriA1Wq5R6mqyYhzqim17bEREb047NspXriKTLEmALgAGAe0kAAwC5cf8W0P/zLz/xwZ/PXWvEuWsbN0jz1KHx2DG28oDl99+Z2bDXvN/xPSNxaFf3LSXr1SSSUkTa2PFrF26vO4b9U7U40cMKnpfPzW3aIN3UaDk+cWRyxce9dmEubq6QUFjrezJSTeKZ41MrPu6t9+fj4s2lNb3GSspJxOc+tmPFx128uRhvvr+wKTFERDx3YuUYZuZb8eLZ2YHGEBGbGsOw1BERES+cmYnWOj+eWZ+doa0jvvhf3PlZhzf//j/54M8jZ96KZ770yewHf+c7EZH/OuKV83Px3GT6tr/3Ukd8KC91RJahrSM22Eg1iacOja/4uLzXEREf/XzWq0mcOrb8/+bmfHND2rG9xNDNIOqIcrcVwDLAAMA9JIABgNzYrBUywywplaJUighvDcDW9f3vW7oFcJ+kVEpdnb1ZkwGGQbdzfq/OLsZD07ZWBwDuWPuegQAAW4xZ7wAMpevXI2Y3byUZAPnQ6LIc/8zVzVsVDQAMHwlgACA3SrHy2WkAsCUtLg46AgC2uG7zXXs4RhoAKBAJYAAgNxKDHgAMq3p90BEAsMV12+9IAhgAuJcEMACQGyWjHgAMox07IsbHBx0FAFtcx5E3AECPKoMOAABgo5TvWwL8j/7dDz/487/4a5+InWO1DXutidFyT4/7xJGJaLc3Z6BmvN5bDE8fnohma3Ni2NZjDB8/OBZLzc2JYaTa25zGxw6MxUKjHYvNdrx2If2MtMcObIt6ZfVzJGuV3iYfHN0zGvumNu4+vFel3FsM+6fqMTGyOd2ApMdl+BOj5Xjq0OCTXd1iaLY7cfnWUmrZ7slaVFb4t+axjljLZ2cY64iIiPhbfzPie99f8XdmHnks3vz7/yS17Piv/w8x8cZrERFRu3al+xN94hMRpVIu6ohu98nJB8Z6eo5hqCNWI60+uTrXiOu3m3FwZz2q5ex7dJjqiLUY2jpig2lH3JGndsR6ZbUjKkn2/bp3cmSzwgEAhpAEMACQG/ePGb15eeaDP4/WktgxVu1zRBFTo4Nvbm3WIN1qjNUrMTbg3U1Ha+UYrZVjfqmV+Zip0UqM1nobjF6LeiVZU4J5I1UrSey4L4b1JjtXq5IksWNs8JsRdasT5pda8cNbjdSyh3aPbth9Mkx1xGZ+drZSHREREdNTES/+6bqeb+KN12JHr8/x6U9HxNatI1aj230yMdLbPTIMdcRqdKtP9k/VotrlbRmmOmI17n7vpCVU0753tlwdsQm6fXbuykMdsRHyVkesRrlLov6B7aN9jAQA2OoG35MAANggSZctoNu2S4NMjWY7Xr+YvmJv+7ZKVDZxwBu2pF/5lYjf+I3+vh4UiO8dWJtWl9X49++GBAAU2+CnywEAbJBuRwDL/wLQsyeeiPjsZ/vzWs8+G3HyZH9eC4Ch1urSqZEABgDuZQUwAJAb3VYAtzbp/LytbqHRjhfOzKSWPX14oudz7wAK5+/8nYhvfas/rwPAMtqxy3Xr05S7zYYFAAqneC0lACC3up1T2mwvP2OuCDqdTiw02qk/HcuiAbJ9+cubvzXzV74S8cu/vLmvATCktGOX65oAtgIYALiHBDAAkBu1SnbTZrFZzAQwAOvwz/95xIEDm/PcBw5E/PZvb85zA5BLEsAAQK9sAQ0A5Ea9Us4sW5IA5qdKpVLmloElW+cB99q1K+IP/iDic5+LuH594553x447z7tr18Y9JzDUtE/oRaOV3aeplK3zAQA+JAEMAOSGFcD0YqSaxDPHpwYdBgydSrkUR6ZHMsty64knIr7xjYgvfjHiwoX1P9+BA3eSv088sf7n2oIKe5/AOmmf0IuFRiuzbKRLXwgAKB4JYAAgN8pJKcpJKXVrNCuAAdanWk7i6O7RQYcxGE88EfGDH0T82q9F/O7vrv15vvKVO9s+53jlb6HvE4BNljWptZKUrAAGAD5CywAAyJV6xsx3CWAA1mXXroh/9a8ifv/3I559dnW/++yzEV/96p3fz3HyF4DNlbUCOKsPBAAUlxXAAECu1CpJ3F5aPjCy1OW8LADo2Ze/fOfnlVci/ugb2Y/71CcjvvSFiF/5lYiTJ/sXHwC5lbUCeKRa7nMkAMBWJwEMAORKLWPrs8Vm9nlZALBqJ09GPPSxiLOz6eX/2z+NGKv2NyYAci0rAWwFMABwPwlgACBXsma/LzSsAAZgY41Uk5gaTf/eGakajAdgY2VtAW0FMABwPwlgACBXttXSBz/mFpt9jgSAvButleMTRyYHHQYABZG1ArhmBTAAcB+tAwAgV8bq6fPb0s4FBgAAGBZWAAMAvZIABgByxQpgAAAgj2YW0vs0EyM2eQQAPkrrAADIlfGMFcBzSxLA3NHudGIx40zoejWJpFTqc0QAQNFpn9CL2cVG6vWxmiFeAOCjtA4AgFzZljH4MbdoC2juWGy04/nTt1LLTh2bjNGMVeRQdI1WO85dW0wtO7izHtWyDaZwn8BaaZ/Qi6w+zbgVwADAfbQOAIBcGavbAhpgMzRbnXjnykJq2f6pWjh+kAj3CcBmytoCOmsXJACguEy9BQByZSxj8OP2khXAAADA8MraAloCGAC4nwQwAJArYxnb481YAQwAAAwxW0ADAL2SAAYAcmVytJp6/dZ8+mx5AACAYTCbMak1axckAKC4tA4AgFyZykgA35QABlahnJRi31QtswwiIuaXWvHahbnUsscOjMVoxq4UFIv6BNgoMwtZW0D7vgEAPkoCGADIlW4J4E6nE6WSgVa4X5KUYvu29K5BUtDkRK2SxGMHxgYdBlvcQqMdN+fTt+NcaLQlgIkI9Uka3zuwep1OJ27cTk8Abx9Nn2QCABSXBDAAkCvbt6UPfrTanZhdbMbESHqCGIqsXkni6cMTgw4DgILwvQOrN7vYjGa7k1q2fZs+DgDwUc4ABgByJWsFcERkzpgHAADYyrr1ZXZkTIIFAIrLCmAAIFe2d0kA35xvxME+xrIV1CpJPHVoPLMMAAC2Iu3Yj7p+eymzzApgAOB+EsAAQK5MrpAALppyUoodYwaEAAAYLtqxH5W1AjgpRUw65gYAuE/xpssBALlWTkoxMZI+x80W0AAAwDDKWgE8NVqNJCn1ORoAYKuTAAYAcmfnWPoZWNfmFvscCQAAwPplTWZ1/i8AkEYCGADInV0ZCeDLs9nnZgEAAGxVmSuAnf8LAKSQAAYAcmd6vJ56/cqsFcAAAMDwyerLZE1+BQCKLf2APACAITY9kZ4AvioBDPSo2e7E5VvpK212T9ai4qw9oEfqE2AjXJ5J78vsnhjpcyQAwDCQAAYAcmc6Yxb8FVtAQ6pWuxO35pupZZOjlSgXMDnRaLbj9Yu3U8u2b6tEpVbuc0TAsFKfLOd7B1YvMwE8bgUwALCcBDAAkDtZK4BtAQ3plprtePHsbGrZqWOTMVrA5AQAm8f3Dqze5Yy+zO6Mvg8AUGzOAAYAcifzDOCMWfMAAABbVafT6bIFtAQwALCcFcAAQO5kJYDnlloxv9Qq1KqSxWY7Xj0/l1r2+ANjUa+YDwgAwNajHfuh2cVmLDTaqWUSwABAGglgACB3prucg/X+zEIc3jXWx2gGq93uxI3b6WfstdudPkcDAAC90Y79UNbq34iI3eMjfYwEABgWxZkqBwAUxr6p7EGQizcX+hgJAADA+nRLAE9PZE9+BQCKSwIYAMidbbVKTI1WU8suSQADAABD5NKt9D7MeL0S22o2eAQAltNCAAByaf/USNycbyy7bgUwo7VyPHdix6DDgKFTTkqxbyp9lVE5KfU5GrYq9wmsjfYJ3Vy4kd6H2d9l5yMAoNgkgAGAXNo3NRI/ujSz7Pqlm/MDiAZg+NUqSTx2oDhnqLM27hOAjXcxow+zf/tonyMBAIaFLaABgFzaN5k+G94KYAAAYJhkrQB+YLsVwABAOglgACCX9mVsh5Z1fhYAAMBWlLkCeMoKYAAgnQQwAJBLWedhZc2eBwAA2IqydjFyBjAAkMUZwABALu3LmA1/ZXYxFhqtGKmW+xwRAHlTq5RipJo+r7pWKfU5GgDyaKHRimtzS6llB5wBDABkkAAGAHLpwR3ZgyHnb8zHsd3jfYwGgDwaq1fimeNTgw4DgBzLWv0bYQUwAJDNFtAAQC490GU2/Llrt/sYCQAAwNq8ez277+IMYAAgiwQwAJBLI9Vy7J2sp5aduz7f52gAAABW72zG5NXdE/UYrTnWBgBIJwEMAOTWgzu2pV5/1wpgAABgCJy9mt53ObQzva8DABDhDGAAIMcO7hiN75+5vuz6uS7bqJF/80uteP70rdSyU8cmraSADM12Jy7fWkot2z1Zi0pS6nNEbEXuE1gb7ROyZK0AlgAGALqRAAYAcutgxqDIuWu2gAZYrUazHa9fTB+E3r6tEhXJCcJ9ArDRzlgBDACsgS2gAYDcOpixBbQVwAAAwFbX6XTinBXAAMAaSAADALn14M7R1Os3bjfi5u1Gn6MBAADo3Y3bjZhZbKaWHdolAQwAZJMABgBy66Hpscyyt6/O9TESAACA1TmTsfo3IuKwFcAAQBfOAAYAcmvvxEiMVssx32gtK3v7ymw8eXD7AKIChkGSlGL7tvTuUpKU+hwNW9Visx1vvZ9+rvzRPaNRr5hzjfoEWLt3rqRPWq1Xktg9Ue9zNADAMJEABgByK0lKcWR6LF6/eGtZ2duXrQCGu0qlUoxU0xNVpVIxkxP1ShJPH54YdBhscbcXW3Hx5lJq2b6pmgQwEaE+SeN7B3rz1uXZ1OsPTY/5rAAAXUkAAwC5djQjAXw6YzY9FNFINYlnjk8NOgwACsL3DvTmdMak1WO7x/scCQAwbExHBgBy7eju9HOArQAGAAC2stMZK4Cz+jgAAHdZAQwA5NpD0xkJ4Ctz0el0cr91WrWSxIn92zLLAABgKyp6O7bd7sTbGbsWWQEMAKxEAhgAyLWsBPB8oxXv3VqMfVMjfY6ovypJKfZvrw86DAAAWJWit2PP35iPxWY7tcwKYABgJRLAAECuHZ1ePjt+19idgaSfvDcbU6PVDX29ejWJpIdVxQuNdnQ6nQ197btqlSTKycoxLDbb0W5vTgzVShKVHmJYarajtUkxVMqlqJZXtzpkoZE+yLZW5aQUtR5WqDTbnWhkDPCtV5KUot5DDK12J5Y2KYZSqRQj1ZVjaHc6sbjB/wf3Gq2Ve3rc/FJr02IY5jqi2+djtZ+dYaojGq12NFvpMWQNzN8tW+leymMdsZb7RB3xoWGuIzZSXuqI1VhPG2SY6oi1KGod8eb7sx/0W67OLX6k7KgVwADACiSAAYBcm9pWjenxWlyZXfrg2m/9lU9ERESjFfH86Vsb+nqnjk32NDj0wpmZDU823vXUofHYMbZyYvvV83Nx43ZzU2I4sX9bTys23nx/Pi7dXFrxcWtxZHokju4eXdXvvHg2/Zy1tdo3VYvHDqy8QuPyraV4/eLtDX3tu7Zvq8TThydWfNyt+eaG//vvGqkm8czxqRUft9hob/hn8l7PndjR0+M2M4a81hGrvXeGqY44d20x3rmysOrnf+3Cyp/potURWb+vjvhQXuuI1SpCHbGR8lJHZCluHVH9oN/y1//ltz+4uneyHuN1Q7oAQHf5PzADACi8R/auPGgFAACw1Tn/FwDohQQwAJB7EsAAAEAeHN8jAQwArEwCGADIPQlgAAAgDz62T98GAFiZBDAAkHuP7DVLHrppdzqx2NycsyQBANg4HzO5FQDogQQwAJB7Dxskga4WG+147cLtQYcBAMAKHrECGADoQanT6XQGHQQAwGb7M//o63Hp1kJEROwaq39w/W98/lj8yqcPbdjr1KtJJKXSio9baLRjs5phtUoS5WTlGBab7Wi3NyeGaiWJSg8xLDXb0dqkGCrlUlTLy+c7zi+14vnTt1J/56lD4zFS3bg5kuWkFLXKys/XbHeisUkrcJOkFPUVYtjs96RUKvX0HO1OJxYbm7cSebRW7ulx80utWGi048Wzs6nl63lPhrmO2Mj3ZCvXEfdrtNrRbKXHcHO+mTl54rED22JqtNL1uYeljoiIaLU7sdRDDGu5T4axjliN1bwnw1xHrMZK78nEaCUXdcRqdHtPTh2b7Hp/DlMdsRZ5ryPS/N//6Uz8zjfe+uDvV+cWIyLige2j8R//7nPrfn4AIP+690YBAHLikX0THySA7w6gRES8cv5mKWQmWgAAIABJREFUz4M5G2kjk4zdLDXb8eb786llx/eMDuTffq9eEh/9NFJNBvKeVJJSVAb8f5Gln+9JUioN/J6MWHmAtx/vSb/qiG56GfC/a7Pek61QR1TLSVQz/mkLXRIN9crGvSdboY4oJ+v/fK73PhmWOmI11vqeDFsdsRoj1d4miERs/TqiX/JSR9xvpXbs/f//eaojXrlw8yN9lruc/wsA9EoCGAAohI/tHY9vvnF52fXXLqavesyLVrsTl24upZY9ND3S52gAAKA3RW7H/vjSTOp1CWAAoFeDnyoJANAHjx2YTL3+5vuzsdBY/zZtAAAA67XUbMfpy+nbgX9srwQwANAbCWAAoBAePzCVer3Z7sRP3ksfYAEAAOinN96biUbGudKP7pcABgB6YwtoAKAQjk6PRb2SxGJz+XmNr164GU88mJ4gJn/q1SROHUtfEV7fAmcqwlaVJKXYvi29C5n0eF4n+ec+gbXRPuGuVy/cTL1eryRxfPd4n6MBAIaVBDAAUAiVchKP7p+Ml8/dWFb26oV8nwPMRyWlUozWyoMOA4ZOvZLE04etPKI79wmsjfYJd71yPr1v8uj+yaiUTQYAAHqj1QAAFMbjGecAZ82yBwAA6KdXMvomJzP6MgAAaSSAAYDCeGx/+qDJjy7NRKudfs4WAABAPzRb7Xj9YvoK4JMPOLIGAOidBDAAUBhZK4BvL7Xi7StzfY4GAADgQ6cvz8VCo51advKABDAA0DsJYACgMB7dNxnlpJRa9oN3l58NDADdVMqlKCeR+lMpp3/fAECWV86nb/9cSUrxyL7xPkcDAAyzyqADAADol9FaOR7ZO5G6rdpL527EX376wQFEBcCwmhipxOc+tmPQYQCQEz/MSAA/snci6pVyn6MBAIaZFcAAQKE8eTB967SXz1kBDAAADM5LGX2Skw+kH2UDAJBFAhgAKJSPP7g99fprF2/FYrPV52gAAAAiFputeO3C8p2KIiKePGi3CQBgdSSAAYBC+fjB9ARwo9WJ1y/O9DkaAACAiNcu3IqlVju17KlD6X0YAIAszgAGAArl4T3jMVotx3xj+Wrfl8/diCczEsTkx0KjHS+cSU/2P314Ikaq5khCmla7E7fmm6llk6OVKCelPkfEVuQ+gbXRPuHFs+nbP2+rleORvRN9jgYAGHYSwABAoVTKSTzx4FR85+1ry8qcA1wMnU4nFhrpqys6nU6fo4HhsdRsx4tnZ1PLTh2bjNFauc8RsRW5T2BttE/IOv/3Zx6cMnkGAFg10wcBgMLJWuX7ogQwAAAwAFkJYOf/AgBrIQEMABTOxx9MTwC/fWUurs4u9jkaAACgyK7OLsbZa7dTyxxRAwCshQQwAFA4Tx/OHkT53pnrfYwEAAAouqzzfyMinjokAQwArJ4zgAGAwtk/NRoPbB+N8zfml5V9/8z1+LOP7xtAVMBWUiqVYqSaPl+2VHIOH3c0mu24eDN954j9U/WoVsy5Rn0CrOy771xLvX5gaiT2To70ORoAIA8kgAGAQvrUkR1x/qXlCeCswRegWEaqSTxzfGrQYbDFzS624s33F1LLJkYqsUMCmFCfACv7TkYf5JNHdvY5EgAgLySAAYBC+sSRnfFvXrqw7Por52/GQqMVI9XyAKKCwRitleO5EzsGHQYABeF7Bz40v9SKH757M7XsUw9JAAMAa2M6MgBQSJ86kj7o2Gh14uVz2WdwAQAAbJQXz12PZruTWpbVZwEAWIkVwABAIT2yZyImRioxs9BcVva9M9fjZ4/uGkBUG69SLsWR6fRzwypl5w4CALA1FaUd+923r6denxqtxiN7JvocDQCQFxLAAEAhJUkpPnF4R/zJjy8vK/vO29fib3x+AEFtgmo5iaO7RwcdBgAArEpR2rHfO5Nx/u/hHZEk+Ul0AwD9ZQtoAKCwPnk4fUu1771zLRqtdp+jAQAAiqTZascLZ9JXADv/FwBYDwlgAKCwsrZ5nltqxQ/P3+xzNAAAQJG8euFWzC21Uss+dUQCGABYOwlgAKCwPv7g9hitllPL/tNbV/scDQAAUCTfPp3e56hXknjigak+RwMA5IkEMABQWLVKEp88kr4N9PMZgzEAAAAb4dunr6Re/+SRHVGrGLYFANauMugAAAAG6c8c3RXf+snygZfvvXM9lpptAy9QUO1OJxYb6WeB16tJJKVSnyMChpX6BEiz1GzHd9+5llr2zLHpPkcDAOSNBDAAUGinjqWfAzzfaMUP3r0Rn3T2FhTSYqMdz5++lVp26thkjNbSt48HuJ/6BEjz4tnrsZAxOeSZjD4KAECvJIABgEJ74oGp2FYrx+2l1rKy509flQCmEOaXWpITAPSN7x3IPv93vF5x/i8AsG72NAQACq1aTuJTGUnerEEZAACA9Xg+o6/xsw/tjErZkC0AsD5WAAMAhXfq2K74xhuXl13//pnrcXupGdtqw9tkarTace7aYmrZwZ31qBpcAgBgC8pzO/b2UjNePHc9tSzriBoAgNUY3tFMAIAN8nPHp1OvL7Xa8advXYvPP7qnzxFtnGarE+9cWUgt2z9Vi6odFgEA2ILy3I79ztvXotHqpJZ9JqNvAgCwGsM7VQ4AYIM8tn8ydo3VUsu++ZPlK4MBAADW6ptvXEm9vnOsFh/bO9HnaACAPJIABgAKL0lK8XMPp8+0/2bK1tAAAABr9Y033k+9/pnj05EkpT5HAwDkkS2gAQAi4rMP745/+9KFZddPX56L8zfm44HtowOIis1QqyTx1KHxzDIgXalUipFq+mekVDJYzR3uE1gb7ZPiePf67Th9eS617HOP7O5zNABAXkkAAwBExGczVgBHRHzrjcvxn3/6UB+jYTOVk1LsGKsOOgwYOiPVJJ45PjXoMNji3CewNtonxZG1/XNExLNd+iQAAKthCiEAQETsnRyJR/eln7f1rZ9kD9IAAAD0Kmv75xP7J2PP5EifowEA8koCGADgp7JWAX/rJ5ej2Wr3ORoAACBPGq12fPvNq6lltn8GADaSBDAAwE999uH0QZdbC8144eyNPkcDAADkyYtnb8TMYjO1TAIYANhIEsAAAD/16Yd2xmi1nFr29R+91+doANjqkqS0pjIAiuk//Dh9++exWjk+cXhHn6MBAPKsMugAAAC2ipFqOT5zfDr+6PXlyd4/fv39+J++dGIAUQGwVU2NVuK5EwbsAejN11P6GRERp47tilrFOh0AYONoWQAA3OMXTuxJvf6T92fj7NXbfY4GAADIg3PXbscb782mln3+0fQ+CADAWkkAAwDco9vgyx/bBhoAAFiDtF2G7vrCo3v7GAkAUAQSwAAA99g7ORJPPDCVWvb1H6Wf2QUAANBNVgL4iQemYt/USJ+jAQDyzhnAAAD3ee7RPfHD8zeXXf/Tt67F3GIzxuqaUMNssdmOV8/PpZY9/sBY1J2/BqnanU4sNtqpZfVqEkmp1OeI2IrcJ7A22if5dmuhEX/61rXUsi9kHEEDALAeRi8BAO7zhRN74p99/SfLri+12vHNNy7Hl57YP4Co2Cjtdidu3G5mlgHpFhvteP70rdSyU8cmY7RW7nNEbEXuE1gb7ZN8++Ybl6OZ8f/4Cyds/wwAbDzTBwEA7nPywFTsnqinln3t1Ut9jgYAABhmX389/SiZfZMj8fiByT5HAwAUgQQwAMB9kqQUv5CxFdvXf/R+LDXTt7YEAAC4V6PVjj/+UXoC+Asn9kTJ1vgAwCaQAAYASPFLj+9LvT6z0Izn37ra52gAAIBh9Pzpq3FzvpFaZvtnAGCzOAMYACDFM8d2xUS9EjOLy89i+9qrl+Jzj+weQFQAbCXNdjtm5lupZROj5agk5lwDFN2/fyX9CJmxWjlOHdvV52gAgKKQAAYASFGvlOPzj+6J//flC8vK/r9X34t/8BdORjmxXRvk1WitHM+d2DHoMNjiZuZb8eLZ2dSypw6Nx44xCWDUJ1BkrXYn/vC19ATwcyf2xki13OeIAICikAAGAMjwxZP7UhPAV2YX44Wz1+NTR3YOICrYePVqEqeOTWaWAcBG8r1DUXzvnWtxZXYptexLJ9OPnAEA2AgSwAAAGT73yO6oV5JYbLaXlX3tlUsSwORGUirFaM0KFAD6w/cORZG1/fNINYmf/5gjZQCAzSMBDACQYaxeic8+vDv+6PX3lpX9+1cuxf/y5RNRKm3tbaDLSSn2TdUyywAAYCsa9nZsu92Jr72angD+3CO7Y1vNsCwAsHm0NAAAuvjiyX2pCeDzN+bjhbM34hOHt/aZfrVKEo8dGBt0GAAAsCrD3o59+d0bcfHmQmrZl07u73M0AEDROFgFAKCLXzyxN6rl9BUGv/+D5ecDAwAAfPUHF1OvV8ul+Pyje/ocDQBQNBLAAABdTG2rxmcfTj+f66s/uBitdqfPEQEAAFtZu92J389IAH/m+HRMjVb7HBEAUDQSwAAAK/hzP5O+Rdv7M4vx3Xeu9TkaAABgK/vOO9fi0q307Z//3M8c6HM0AEAROQMYAGAFv/jY3qhVklhqtj9yfddYPf7otffi4w9u3/DXrFeTSErpW0/fa6HRjk5nc1Yh1ypJlJOVY1hstqO9SSuhq5UkKj3EsNRs97wae6HRXlVZpVyKannleZONVjuarc15H8pJKWqVlWNotjvRaGb/+9YjSUpR7yGGVruz7LOyUUqlUoxUV46h3enEYpf/5/UarZV7etz8UmvTYhhEHdHts9PNsNURq7G4intdHXGHOuJDeasj7pfXdsRq9dqOaHZ5/bXWv3epI+7oZx3xh6+9F7vG6nF1bvEj12uVJH7p8b3rem4AgF5IAAMArGBipBqf/9ju+Nqr733k+m/9lU9ERMTzp29t+GueOjbZ0wDyC2dm1j0omOWpQ+OxY2zl7elePT8XN243NyWGE/u3xf7t9RUf9+b783Hp5tK6X+/Fs7PLrh2ZHomju0dX/N1z1xbjnSvpKz3Wa99ULR47MLbi4y7fWorXL97elBi2b6vE04cnVnzcrflm6vu4EUaqSTxzfGrFxy022pvyubzruRM7enrcZsawFeqIXuWpjlgPdcQd6ogP5b2OKGI7Ik2v7YgLNxYzy9b7mVFH3NHPOuIzx/bHZ47tj7/+L7/9keuf/9jumByx/TMAsPkkgAEAevDnfubAsgQwUEzzS62eV/gBzC+1NjXZCwyPP//xBwYdAgBQEBLAAAA9+MKJPTFaLcd8Y/O2awQAKIKFRjteODMTEavbSh2G2VitHM89umfQYQAABbHywRcAAMS2WiWeO2HABgBgvTqdTiw02j89g3jQ0UB//OJje+0gAgD0jQQwAECP/uKTtmwDAABW788/eWDQIQAABSIBDADQo889sjt2bKsOOgwAAGCIbN9WjZ87vnvQYQDw/7N339FxlGf7x6+ZbeqSe+827k3uBocSQknovUOAAKEnQBKSN+UNIYSQTgu9GEInkIQWCCVgbBPbcsEV925LtlWsurszvz/4+Q1YM6tV2dn2/Zyjczi6H7SXx+tnR3PP8wyQRQzbZrMdAACAeP3k1U/15NxNkqQu+aH/+75pSH+9ZuaXvtceoYAp0zBaHPf51onup3MNYUtlm/c71ib2L1BOwP1+wKDflM9sOUNjxJJlJeaUMuA35Y8jQ1PEUjTODK09Jn6foYCv5fsmw1FLkWhijoPPNBT0t5whYtkKt+FZivEcE9M0FIojQ9Sy1ZSg5zkahhHzPXuAZdtqDLcvQ6xjMmNIUVxbONY3Je6Z4R01R7RGW49Jus0RrVFVH9GK7XWOtYn9C9Qp/783DaXzHBGPA3NEfVNUc9dVO46ZMaRIQb+ZEXNELAf/W4h1TFr6LG6rZMwRB4t1HuHVMUn2HCHFfx5R0xDRfzbUONbae0xSaY5oyRfPI9pzHusk0XPEntpGnXrvx/riW2lPbaMk6YLp/fWLU8a2+mcCAAC0lT/ZAQAAANLJqRP7/F8D+MAFnQPe/HSnLp812NM87bkYmBMwO+Q5ZPFczEu0eC5qxqM9xyTgMxVI8mPd/KYhfwc/W661x8RnGkl/vp1pJD+D1LwJlAyJaCy1VibNEQdraEWDIFPniNZijviyjvosbs/rp5pkHJNEzRGtEatR7dUxSac5IpHHpK1zxJvzd6p8f6Nj7fTSvu2NBQAA0Co0gAEAAFphQr8SDeqarw0Vtc1qfy3b5nkDGK0X8Jsa2SvPtQYAAOA1zk/S30uLtjl+f3DXfE3oV+JxGgAAkO1oAAMAALSCYRg6dWIf/e7tNc1qy7dXa/XOGg3vWZiEZIiX3zTUq6RjtuoGsklu0KejRnZKdgykON4nQNtwfpLeVmyv1sodztuanz6pr4w4tmQHAADoSNxCCAAA0EqnTOjjWnthwRYPkwAAAABItpcXbXWtnTLR/XcHAACARKEBDAAA0Er9u+RpykDn1U0vl21TUyT+Z0ICAAAASF/hqKVXFm93rM0Y3EV9SnI9TgQAAEADGAAAoE3OnNTP8ft7a5v07qpdHqcBAAAAkAzvrtqtiv2NjrXTJ/X1OA0AAMDnaAADAAC0wTfG9VJ+0OdYe+4/bAMNAAAAZAO3c//cgE/HjenpcRoAAIDP+ZMdAAAAIB3lh/w6YVxvPefwzN8P1pRrZ1WDehbnJCEZAMArnfIDOmqk8yMBAACZb0dVvd5fvduxduL4XioIcekVAAAkByuAAQAA2uisKc7bQFu29NKirR6nAQAAAOClFxZslWU7186e0t/bMAAAAF9AAxgAAKCNSvuXaGj3Asfa8wu2yHK7GgQAAAAgrVmW7br987DuBSrtX+JxIgAAgP+iAQwAANBGhmHo7MnOq4A37anTvPV7PE4EAAAAwAtz1lVoW2W9Y+3sKf1kGIbHiQAAAP6LB1EAAAC0w6mlfXTnm6sUcVjt+/T8zZo5tGsSUiGWpoiltbudL9YN7Z6roJ97JAEAgLc4P0k/z7qs/g36TJ1W2tfjNAAAAF9GAxgAAKAduhaEdPTIHnpz+c5mtbeW79Tu6gZ1L8pJQjK4iVq2dlY1OdYGdeXvCnBT3xTV3HXVjrUZQ4qUG/R5nAipiPcJ0Dacn6SX8ppG/dPh/F+SjhndQ53zgx4nAgAA+DJuHwQAAGin86f3d/x+JMZzwQAAAACkp+cXbFE42nwHIEk6Z4rz7wYAAABeogEMAADQTocO6aqBXfIca898sllRh+2hAQAAAKSfSNTS0/M2Odb6dc7VzCFdPE4EAADQHA1gAACAdjJNQ+dNc77Tf3tVg95dtdvjRAAAAAAS4d1Vu7W9qsGxdsG0ATJNw+NEAAAAzdEABgAA6ABnTuqnoN/51Orp+c4rBAAAAACkl9kuq3+DflNnTu7ncRoAAABn/mQHAAAAyASd8oM6YWwvvVy2rVntgzXl2rynTv1dtokGkHpCAVMzhhS51gBJ2lcbVtnm/Y61if0L1Ck/4HEipCLmEyBzbKio1YefVTjWThjXS53zgx4nAgAAcEYDGAAAoIOcP72/YwPYtqXZ8zbqR98YlYRUQMuCflMT+xe41rKRaRjKDfqSHQNABmA+aY7PHaQrt2f/StKF0wd4mAQAACA2GsAAAAAdpLR/J43oWahVO2ua1Z79zxbdePQhyg9x+oXU4zMNVioCADzD5w7SUX1TVC8s3OpYG9unWBP6lXicCAAAwB23VQIAAHQQwzB04QznO/9rGiJ6eZHzBaNEMk1DJXl+xy/TNDzPAwAAAMQj1c5jXy7bqqr6sGPtwukDZBicWwMAgNTBEhQAAIAOdNrEvvr1m6sdLw49/vFGnT9tgKcXrEJ+U6UDCj17PQAAAKAjpNJ5rGXZevSjDY614tyAThzf2+NEAAAAsbECGAAAoAPlBn06Z2o/x9q68lp9uLbC40QAAAAA2uPfn5VrXXmtY+2syX15zjcAAEg5NIABAAA62EUzBsptke9jc5xXDgAAAABITY/O2ej4fdOQLp450NMsAAAA8aABDAAA0MH6lOTq2NE9HWvvry7XuvL9HicCAAAA0Baf7arRv9eUO9aOG9NTfTvleZwIAACgZTSAAQAAEuCbhw5yrT3usoIAAAAAQGp57OONrrVLY5zzAwAAJBMNYAAAgASYMrCTRvcucqy9sHCL9tY2eZwIAAAAQGvsq23Sy4u2OtbG9y3WpAGdPE4EAAAQH3+yAwAAAGQiwzD0zUMH6eYXljSrNYQtzZ67STccPSwJyQDEoyFsadGmGsda6YBC5QS4lxZAfJhPgPT19PxNaghbjrVLDxskwzA8TgQAABAfGsAAAAAJcuL4Xvr1m6u0u6axWe3JuRt15eGDlRPweR8MOEhjxNLybbWOtdF98hXyZ19zwrZt1wu+tm17nAZAOmM+aY7PHaSDhnBUj7ts/9yjKKTjx/TyNhAAAEArcEYNAACQICG/T5ccOtCxtqe2SS8udN5ODvCaZdmqrIs4fllWdjYnAACJw+cO0sGLC7eqYr/zY1sumjFQQW5UAAAAKYwzFQAAgAQ6f9oA5QedV/k+/OF6RRN8kTNq2dpXG3b8SvRrAwAAAG2VzPPYqGXroQ/XO9bygj6dP61/Ql8fAACgvdgCGgAAIIGKcwM6Z2p/PfLRhma1jXvq9PaKnTougdvHNUUslW3e71ibMaRIuS7NaQAAACCZknke+9byndq0p86xds6U/irJCybstQEAADoCK4ABAAAS7NLDBslnGo61B/69Pmuf/wcAAACkGtu29ecP1jnW/Kahy2YN8jgRAABA69EABgAASLA+Jbk6cZzzKt+yzZWat36vx4kAAAAAOJm7fo+Wbq1yrJ00vrf6lOR6nAgAAKD12AIaAADAA1d8ZYheWbzdsXbve2s1Y0gXjxNlL7/P0MCuOa41AAAAr3F+kjr+/IHzs38l6YrDB3uYBAAAoO1oAAMAAHhgVO8izRrWVR9+VtGs9tHaCi3eUqkJ/UqSkCz7BHymBndj5QbQWqGAqRlDilxrgMT7BGgrzk9Sw9Ktlfr3mnLH2pHDu2lET+f5DQAAINXw2xcAAIBHrjlyqGvtnnfXepgEAFrPNAzlBn2OX6bB6jR8jvcJgHR2d4xz8qsOH+JhEgAAgPahAQwAAOCRaYM6a/KATo61d1bu0qqd1R4nAgAAACBJK3dU6+0VuxxrE/uXaOqgzh4nAgAAaDsawAAAAB4xDEPXHOW+Cvje99Z5mAYAAADAAbF25Ln+qGEy2MUAAACkERrAAAAAHjrikG4a08f52WH/WLpd68v3e5wIAAAAyG5rd9fo9U93ONbG9CnSEcO7eZwIAACgfWgAAwAAeMgwDF1zhPMqYNtmFTAApJPCXJ8m9i9w/CrM9SU7HgAgTve+t0627Vy79khW/wIAgPRDAxgAAMBjx47uqaHdCxxrfy3bqg0VtR4nAgC0hd801Sk/4PjlN/l1GwDSwcaKWr26eJtjbXiPQh0zqofHiQAAANqP30gBAAA8ZpqGrjlyiGPNsqW7//WZx4kAAACA7HTPe2tluaz+veaooTJNVv8CAID0QwMYAAAgCU4c11uDuuY71l5ZvE3reBYwAAAAkFDryvfr5UVbHWuDu+XrG2N7eZwIAACgY/iTHQAAACAb+X2mrjtqqL77/JJmNcuW/vSvz/THcyYmIVnmC0ctbdnb6Fjr1zmkgI97JAEAgLc4P0mOP77zmfvq3yOGysfqXwAAkKZoAAMAACTJSeN765731mp9efNn/v5tyXZde+RQDetRmIRkmS0StbWxosGx1qs4qIDP40BAmmgIW1q0qcaxVjqgUDkBmhPgfQK0Fecn3lu9s0Z/X7rdsTa4a75OntDb40QAAAAdh9+8AAAAksTvM3XDV4c51mxb+gPPAgaQQmzbVkPYcvyybZflU8g6vE8ApIs/vLNGbtPSDUcPk59V1wAAII1xJgMAAJBEJ4zrraHdCxxrry/boVU7qz1OBAAAAGS25dur9ManOx1rw7oX6IRxrP4FAADpjQYwAABAEvlMI+Yq4N+8tcbjRAAAAEBm+/3b7ufY3/naITz7FwAApD0awAAAAEn2jbG9dEgP51XA76zcpYWb9nqcCAAAAMhMZZv36Z2Vux1rI3sV6bjRPT1OBAAA0PH8yQ4AAACQ7UzT0HeOPkTffnqRY/3ON1bruSunyzBYiQB4Jeg3NbG/840ZQT/30eJzVfURLdxY41ibNLBQxbn8yg3mEyCV2LatX72xyrX+3a8dIpPVvwAAIAPw2ygAAEAKOG5MT43rW6ylW6ua1T7ZuFfvrynXkcO7JyEZskHAb2pkrzzXWjbymYY65QeSHQMpzrLsNtWQXZhPmuNzB8ny/ppyzd/gvLvO+L7FOnok59sAACAz0AAGAABIAYZh6PvHjdD5D893rP/6zdU6fFg3ViQgIfymoV4loWTHAABkCT53kAyWZevOGKt/bzpmODvuAACAjMFtlQAAACni0KFdddjQro61lTuq9fel21v9Mw3DUE7AdPziAhcAAABSVUefx766ZJtW7XTetv/QoV00a5jzeTgAAEA6YgUwAABACrnl2OH6aG2FY+23/1yj48f0atXzAnMCpmYOLe6oeAAAAIAnOvI8tjES1W/eWuNa//5xI7g5EgAAZBRWAAMAAKSQ8f1K9PWxPR1rm/fW6en5mzxOBAAAAKS3p+dt1rbKesfaN8b10ri+JR4nAgAASCwawAAAACnmpmOGy+fyrN8//uszVdWHPU4EAAAApKfqhrDueW+tY81vGrr5mOEeJwIAAEg8GsAAAAApZki3Ap01ua9jrbIurHtdLmABAAAA+LJ731urvbVNjrVzpvbToK75HicCAABIPBrAAAAAKejGow9RbsDnWHt8zkZt2VvncSIAAAAgvWzZW6fHPtroWMsN+HT9V4d5GwgAAMAjNIABAABSUI+iHF3xlcGOtaaopTvfXOVxIgAAACC9/OrNVWqKWo61y2cNUvfCHI8TAQAAeMOf7ACJP6hHAAAgAElEQVQAAABwduXhg/XMJ5u1u6axWe0fS3fo0sP2qbR/pyQkAzJfY8TS8m21jrXRffIV8nMvLYD4MJ8AybFg4169tnSHY61bYUhXHT7E40QAAADeoQEMAACQovKCft18zHB976WlzWpd8kP64zuf6f7zS2UYRoe+bihgyozjZzaELdm23aGvfUDQb8pntpyhMWLJslqXoSHsvArk4FrAb8ofR4amiKVoKzPEy+8zFPC13BgIRy1Fom3PEI7a2rinwbE2pFuO8kMt/9oQsWyFI+7Htj1M04irQRK1bDV1UIaGsKXKuohjLdZ7zrJtNcZ4j7VXbtB5a/iD1TdFO/y1Y/3bcRufjnNEvAJxNu0yYY6IxWcaCsZ5LFr7HopXMuaIgxmGoZyAcwbLsl3nk7rGaIe+R5M5RxwQz3lEU8TS6p11cvqTD+ySo4Cvfec2qTJHtOY8It7zk9ZIpzmio88jLNvWH/61Vl3yQ9pT2/xmypuPOSSu8xsAAIB0xZkOAABACjt9Ul89OmeDVu2s+dL37zpjkiRp3voap/+tXWYMKYrrAvKiTTUJu5g/sX+BOuUHWhy3fFut60X1tijbvP///ntkrzz1Kgm1+P+s3V2vnVVNHZbhiwZ2zdHgbrktjtuyt1EbK5wbuO1lSBrbt6DFceXVTVq5IzHPpi7J86t0QGGL46rrI1/6O0yGxrClueuqE/bzjxoZ36r/RGaIVybOEV80sleea8PvizJ9juhZHNSo3vlxjU3Uv89UmCNyAqZmDi1u9f/X0XlSYY6I5zwiatkqrwk71ipcvt8aqTJHdNR5RFvfJ+k0RyTiPOLSmZ8/3/fSJz7+0vdH9irSGZP6dehrAQAApBr2GQIAAEhhPtPQj74xMtkxAAAAgIzwP98YGdcKcQAAgHRGAxgAACDFzRrWTYcf0i3ZMQAAAIC0dvTI7jp0aNdkxwAAAEg4GsAAAABpgJUKAAAAQNv5TUO3fp2ddQAAQHagAQwAAJAGhvUo1EUzBiQ7BgAAAJCWLpg+QEO6FSQ7BgAAgCdoAAMAAKSJG48+RJ3zg8mOAQAAAKSVTnkB3Xj0sGTHAAAA8Ixh27ad7BAAAACIzzOfbNatLy9Tl/xQs9rgbnl69JKp8n9hq+iGsKWyzfsdf9bE/gXKCTS/HzAUMGUaLW833RC2lKhTyaDfjGvL68aIJctKTIaA3/zSsXTTFLEUTVAGv89QwNfyPZvhqKVItO0ZYr1PJg8sUFFuoMWfEbFshSNWmzPEYpqGQv6Wj0PUstXUQRliHZMZQ4qUG/Q51izbVmM4McdBkuvrHqy+Kdrhr23Ztmoaogr6DBkHzRFFuf5m/2azYY6oqY/EnGM75QcyYo6IxWcaCn7h32fUslVdH2k2LmrZyg3G9/nSWsmYIw5mGIbjZ6r0+b/HueuqHWtun8Vtlcw54oB4ziMSfUxSZY7IlvOIWA6eI9w4nUe05jw2HLV18WPztXlPfbOxe2ob9ctTx+q8af1bmR4AACB9+ZMdAAAAAPE7a3I/PTVvk5Zvb37RdE9to577z2ZdPmtwXD8rJ2DGfaHY7f9Ptngu+CdaPBc1Ey3gMxVo+19liz87Hn7TkL8d76eO4DONdr2nO4JpJD+DFH8TqLXyQ/H/Cskc8blMnyMO5jMNdcpv+aaRZEiFOeJg7f0sbqtUOw5f5OUxYY74nJdzhJvWnkcc/D6Z/e91Kttc6Th2TJ8inT2lX7szAgAApJPkn2UCAAAgbj7T0P+eNNq1/vu312hnVYOHiQAAAIDk2V3doD++85lr/X9PGhPXinAAAIBMQgMYAAAgzUwe2FknT+jtWKttiuq211Z4nAgAAABIjtteW6lal23NTyvto0kDOnmcCAAAIPloAAMAAKShW48fqXyXbfJeW7pD/15T7nEiAAAAwFv/XlOuvy/Z7lgrCPn1g+NHeJwIAAAgNdAABgAASEM9i3P0na8d4lr/yaufqiHsvBICANAxCkI+De2e4/hVEErdZ6wCQCZoCEf141c/da3fePQwdS/M8TARAABA6qABDAAAkKYumTlQI3oWOtY27qnTnz9Y53EiAMguAb+p/l1yHb8Cfn7dBoBEuu/9ddq0p86xdkiPAl08c6C3gQAAAFIIv5ECAACkKb/P1C9OGeNav+/9ddq6r97DRAAAAEDibd5bpz+/736z4+2njlXAx2VPAACQvTgTAgAASGOTB3bW2ZP7OdaaIpZ+9/ZqjxMBAAAAifXbf65WU9RyrJ09uZ+mDOzscSIAAIDU4k92AAAAALTP948fobdW7FRlXbhZ7ZMN+3TmpCSESmERy1Z5dZNjrVtRUH7T8DgRAADIdpyftM7CTZWO3++cH9QPjh/hcRoAAIDUQwMYAAAgzXXOD+rW40fo+y8tS3aUtBCOWFq5w/l5cSV5fvmDPo8TAemhMWJp+bZax9roPvkK8cxbiPcJ0Facn3SMH359pDrlB5MdAwAAIOloAAMAAGSAMyf10wsLtmrBpn3JjgIgQ1mWrcq6iGsNkHifAEieaYM66/TSPsmOAQAAkBK49RYAACADmKahO04bq4CP7QEBAACQXQI+Q7efOkaGwbkwAACARAMYAAAgYwzrUairjxia7BgAAACAp646fIiGdi9MdgwAAICUQQMYAAAgg1x95BAN7V6Q7BgAAACAJ4Z0y9e1R3ETJAAAwBfxDGAAAIAMEvL79KvTxuqMP89NdhQgrQX8pkb2ynOtAZJU0xDRok01jrXSAYUqzOFXbjCfAIlkGNKdp49TyO9LdhQAAICUwm+jAAAAGWbywM66cPoAzZ63KdlRkCb8PkMDu+a41rKR3zTUqySU7BhIcZGorajlXgMk5hMnfO6go1w0fYAmD+yc7BgAAAAphwYwAABABvreccP19opdCtOAQBwCPlODu+UmOwYAIEvwuYOO0Ls4R7ccNyLZMQAAAFISew0BAABkoMKcgG47ZUzMMZ9uq/YoDQAAANA6LZ2r3n7aWBWEWNsCAADghLMkAACADPW1UT302tLtuvSJjx3rg7vm6/UbZiknwDPTAAAAkDrqm6L6/ktLtL6i1rF+yoTeOnJ4d49TAQAApA9WAAMAAGSwn500Wt0KnZ87uL6iVr/952qPEwEAAACx3fXWatfmb9eCoH5y4miPEwEAAKQXGsAAAAAZrCQvqF+eOta1/vBHG7Rw014PEwEAAADu5q/fo8c+3uBav/3UseqcH/QwEQAAQPqhAQwAAJDhvjaqh06d2MexZtvSTc8vUW1jxONUAAAAwJfVNkZ0y4tLZdvO9VMn9tGxo3t6GwoAACAN0QAGAADIAj89cZTrVtAb99Tp9tdXepwIAAAA+LJfvbFKm/fWOda6F4b0M7Z+BgAAiAsNYAAAgCxQkhfUHTG2gv7L/M16d9UuDxMBAAAA//Xeqt2aPW+Ta/3O08epOC/gYSIAAID05U92AAAAAHjj6FE9dFppH728aJtj/XsvLtNbN5aoS4HzSmEgmzRFLK3dXe9YG9o9V0E/99ICiA/zCdCyPfsbdcuLS13rZ03uqyNHdPcwEQAAQHqjAQwAAJBFfnbSaM1fv1fbKptfiK7Y36hbX16mBy6cJMMwkpAOyRKOWtqyt9Gx1q9zSAFf9jUnopatnVVNjrVBXXM8TgMgnTGfNMfnDr7Itm394OVlqtjv/J7oXZyj/zlhlMepAAAA0hsNYAAAgCxSlBPQb88ar3Mfmifbbl7/54pdemHhVp01uZ/34ZA0kaitjRUNjrVexUEFfB4HAgBkND538EXP/meL3l7h/iiSu84cr6Ictn4GAABoDW6pBAAAyDLTB3fRt2YNdq3/79+Wa/OeOg8TAQAAIBttqKjVz/++wrX+rVmDdOjQrh4mAgAAyAw0gAEAALLQTcccohE9Cx1rtU1RXf9smcJRy+NUAAAAyBbhqKUbn1us+nDUsT6iZ6FuPna4x6kAAAAyAw1gAACALBTy+/SHcyYo6PKMvcVbKvX7t9d4nAoAAADZ4k//+kxLtlQ61oJ+U384Z4JCfvYDBwAAaAsawAAAAFlqRM8i3RJjVcX9H6zTnLUVHiYCAABANvh4bYXueW+ta/37x43QiJ5FHiYCAADILDSAAQAAsthlhw3SzCFdHGu2LX3nucXas7/R41SJZZqGSvL8jl+maSQ7HgAAyELZdH5Ssb9RNzy3WLbtXD9saFd9c+ZATzMBAABkGn+yAwAAACB5TNPQ78+eoOP+8G/tqws3q++uadQtLy7VIxdPlmFkxsXHkN9U6QDn5x8DcBfwmxrZK8+1Bki8T4C2ypbzE8uydfMLS1Re43yDYXFuQL85c3zGNb0BAAC8RgMYAAAgy/UoytFvzhyvy55Y4Fh/d9VuPf7xRn3z0EEeJwOQSvymoV4loWTHQIrjfQIglkc+2qD3V5e71n99xjj1LM7xMBEAAEBm4vZbAAAA6Ksje+iSGFvt3fH6Kn26rcq7QAAAAMgoS7ZU6s43V7nWL54xQMeO7ulhIgAAgMxFAxgAAACSpB8cP0IjexU51pqilq5+epGq6ptvEw0AAADEUt0Q1nXPlCliOT/4d2SvIt369ZEepwIAAMhcNIABAAAgScoJ+HT3uROVG/A51jfvrdP3Xlwi23a+cAcAAAAczLZtff/Fpdq8t86xnhf06Z7zJirH5RwUAAAArUcDGAAAAP9naPcC/eykUa71t5bv0qNzNnoXCABSWF7Ip17FQcevvBCNDACQpMfmbNQbn+50rf/85DEa0q3Aw0QAAACZz5/sAAAAAEgtZ03upzlr9+hvS7Y71u94faUm9i9Raf9OHicDgNQS8psa2Ts/2TEAIGUt3LRPv3x9pWv91Il9dHppHw8TAQAAZAdWAAMAAOBLDMPQL08bq8HdnJsaEcvWtU8v0r7aJo+TAQAAIF3s2d+oa/+yyPW5v4O65uu2U8bIMAyPkwEAAGQ+GsAAAABopiDk133nlyon4Hy6uL2qQd99frEslwt6AAAAyF5Ry9aNzy3WjqoGx3rIb+q+80tVEGJzQgAAgESgAQwAAABHI3oW6baTx7jW31tdrnveW+thoo4RtWztqw07fkVpaAMAgCTItPOTe95dqw8/q3Ct/+KUMRrZq8jDRAAAANmF2+wAAADg6szJ/fTJhr16YeFWx/rv31mjsX2KdeSI7h4na7umiKWyzfsdazOGFCk36PM4EZAemiKW1u6ud6wN7Z6roJ/7i8H7BGirTDo/+WBNuf7wrzWu9bMn99OZk/t5mAgAACD70AAGAABATD8/eYyWbq3S6l01zWq2Ld3wbJn+du1hGtjV+ZnBADJD1LK1s8r52d+DuuZ4nAapivcJkN0276nT9c+UyXZZtDyyV5H+9+TR3oYCAADIQtx6CwAAgJhygz7dd0Gp8l1WnlQ3RHTVUwtV1xTxOBkAAABSRV1TRFfMXqCq+rBjvTDk133nlyonkD6rmQEAANIVDWAAAAC0aEi3Av32rPGu9VU7a/SDl5bJdlvuAQAAgIxl27a+9+JSrdrZfMeYA+46c5wGsWMMAACAJ2gAAwAAIC7Hjemlbx8xxLX+tyXb9eicjd4FAgAAQEp46MP1+sfSHa71K74yWMeN6eVhIgAAgOzGM4ABAAAQt5uPGa5lW6v00doKx/ovX1+pkT0LNXNoV4+TAR3L7zM00OV5pX6f4XEapKraxoiWbKl1rI3vl6/8EL9yg/kEme/Dz8r1qzdWudYPHdpF3zt2uIeJAAAAwG+jAAAAiJvPNHT3uRN1wt0faVtlfbN61LJ19V8W6dVrDtWALmzxly58pqGexUHXWjYK+EwN7pab7BhIcU0RWw1hy7WWH/I4EFIS80lzfO5kji1763TdM2WyXJ4C0qckV3efWyq/j00IAQAAvEQDGAAAAK3SKT+oBy6cpNPv/1iNkeaNj8q6sC5/YoFevnqmCnMCSUiI1gr6TY3qTcMeAOANPncyw/7GiC5/YoEq68KO9ZyAqQcvmqTO+c7NfgAAACQOt98BAACg1cb0Kdbtp451rX+2e7++89xiRd2WgwAAACBtRS1bNz5bptW7alzH3Hn6OI3uXexhKgAAABxAAxgAAABtcsakvrpk5kDX+jsrd+u3/1ztXSAAAAB44q63Vuudlbtd65cdNkgnT+jjYSIAAAB8EQ1gAAAAtNn/fGOkDhva1bV+3/vr9OribR4mAgAAQCK9tHCr/vzBOtf6jMFddOvxIzxMBAAAgIPRAAYAAECb+X2m7jlvogZ2yXMd870Xl2rJlkoPUwEAACARFm7ap1tfXuZa7985T/edXyq/j0uOAAAAycTZGAAAANqlJC+ohy+erMKQ37HeGLF0+ZMLtHVfncfJAAAA0FG2VdbrytkL1BS1HOuFIb8euXiyOuUHPU4GAACAg9EABgAAQLsN7V6oP507UYbhXC+vadRljy9QdUPY22AAAABot5qGsC57/D+q2N/kWDcN6U/nTdSwHoUeJwMAAIATGsAAAADoEEeO6B7zeW+rd9XomqcXKeyyagQAAACpJxK1dO1fyrRqZ43rmB9+faSOHN7dw1QAAACIxXmfPgAAAKANvjVrsFbtrNHLi7Y51j/8rEI//dty3X7KGBluy4WBFBCOWtqyt9Gx1q9zSAGebQggTswnSGe2bevHry7XB2vKXcecPbmfLjtskIepAAAA0BIawAAAAOgwhmHojtPGauu+en2yYa/jmL/M36xBXfL1ra8M9jgd3EQsW+XVzls6disKym9mX7M+ErW1saLBsdarOKiAz+NAANIW80lzfO6kjwf+vV7PfLLZtT51YGfdxo19AAAAKYcGMAAAADpUyO/TAxdM0mn3f6wNFbWOY375xkr165yr48b08jgdnIQjllbuqHOsleT55Q9mYXcCAJAwfO6kh38s3a5fvbHKtT6gS57uv6BUQT+r2AEAAFINZ2gAAADocJ3yg3r0kikqyQs41m1buuHZxVq4yXmVMAAAAJJn4aa9+u7zS1zrJXkBPXbJFHUpCHmYCgAAAPFiBTAAAAASYlDXfD144WRd8PB8NUWtZvXGiKWbX1iq+8+fpAFd8jr89UMBU2YrtyNsCDfP2R5BvylfHNtYNkYsWZbdoa99QMBvtmsrzY44Jn6fEdczLsNRS5FoYo6DzzTiWqEUsWyFI1bMP3dbj4lpGgrFkSFq2WqKdOx78QDDMJQTaDmDZdtqPOjP2ZHHJDfO1X31TdFW/dzWiHeOaAhbsm3n92VjjL+nxojVYv50miOaIpaicWRoy/skHeeI1oj3mKT7HNEaLR2TTJkjWqM9n7cdPUds3lunW15Y6vo+C/pMPXjhZA3uVtBhrwkAAICOZdgdcZYKAAAAuPhr2VZ95znnFSSPXjwzYa87Y0iR4wXk+qao5q6rTtjrftHE/gXqlO+8CvqLFm2qUWVdJCEZRvbKU6+S2KtzEn1MBnbN0eBuuS2OW19e7/qczPbqWRzUqN75LY7bUdnoui1pe5Xk+VU6oLDFcftqwyrbvD8hGXICpmYOLW5xXKLfE0eN7BTXuHdX7ktYBrc54mAfr63q8JtDDkiXOUKSVmyv1c4q52e2thdzxOeYI/6LOaJ1WRI1R1z6xMeO3//jORN08oQ+Hf56AAAA6DhsAQ0AAICEOnViX93w1WHJjgEAAIB2uvmYQ2j+AgAApAEawAAAAEi4G48epjMm9U12DEn/3d7ywBcAAEAqCvg+P2cxWvlIi0Q5a3JfXXPk0GTHAAAAQBx4BjAAAAASzjAM3XHaWJXXNOqDNeVJzXLw9pZebN0IAADQWmP65Me1TbwXZg3rqttPHZsyzWgAAADExpIHAAAAeCLgM3Xf+aUa26flZwsCAAAgNYzpU6T7L5ikgI/LiAAAAOmCMzcAAAB4Jj/k16OXTNGALnnJjgIAAIAWDOiSp8cumaqCEJsIAgAApBPDtm072SEAAACQXTZW1Or0+z+W5L6N4E3HDNOpE9v+3OBQwJQZxzaFDWFLiTolDvpN+cyWMzRGLFlWYjIE/Kb8LWSob4pq7rpqx9rE/gXtflay32fEtWooHLUUiSbmOPhMQ0F/yxkilq1wxFJD2FLZ5v2OY9p6TEzTUCiODFHLVlMkMduSH3gGdkss21ZjArdGzw364hpX3xRNWIaOmCOq6iNasb3OsTaqd56Kc2M3TNJljpCkpoilaIIypOMc0RrxzifZNEe0dEzi3fY41eeI9kr0HPHXsm367T/XuNYNw9ZL356pAV3yW/2zAQAAkFzcvgcAAADPDeyar0cumaJzH5yn+rDzxdsfvfKp8kN+nTyhT0KztLe52RHiueCfLDkBM+5mXXsFfKYC3ryUK79pyN/CnzfRx8RnGp4dczemkfwMUvyN4kSKNUfEen54yN9x75NUmCPiaY4mWrrMEa3Rlvkk0+eI1nwuJ/s4SOl7HvFK2Tb96JVlcutd5wd9evaKGTR/AQAA0lTyz1IBAACQlSb0K9H9F5S6rjyzbemm55fo3VW7PE4GAPHJCZgqzvU5fqVCUwgAnLyzYpduemGJa/M34DP05wsnaWzfYm+DAQAAoMOwAhgAAABJc8Tw7vrd2RN0w7NljhchI5atbz+1SLMvm6apgzp7HxAAYsgN+jRpYFGyYwBA3D5eV6Gr/7Io5pbuvzlzvGYN6+ZhKgAAAHQ0bkkGAABAUp00vrduO3mMa70xYumyx/+jJVsqPUwFAACQWRZvqdS3nlgQ8xnSt508OuGP3wAAAEDi0QAGAABA0l0wfYBuOXa4a72mMaKLHv1EK7ZXe5gKAAAgM6zaWa1LHvtEtU1R1zG3HDtcF84Y6F0oAAAAJAwNYAAAAKSEq48Yoiu+Mti1XlUf1gWPzNdnu2ra9TqWbau+Ker4Zbk9DA8AACCBEnl+8tmuGp3/0HxV1oVdx1x5+GBdfcSQdr0OAAAAUgfPAAYAAEBKMAxDtx4/QlV1YT23YIvjmL21TTrv4fl6/soZGtQ1v02v0xi2NHed80riGUOKlBv0tennApkuHLW0ZW+jY61f55ACPu4vBu8ToK0SdX6yvny/znt4vvbUNrmOOXdqf/3guBEyDKNNrwEAAIDUQwMYAAAAKcMwDP3ytLHa3xjRa8t2OI4pr2nUeQ/N0/NXzlC/znkeJwSyVyRqa2NFg2OtV3FQAe6dgHifAKlk055anffQfJXXON+UIUknju+tX5wyhuYvAABAhuHWWwAAAKQUn2noD+dM0NEju7uO2VHVoPMenqftlfUeJgMAAEgPW/fV6byH5mtntfMNGZJ01Iju+t1Z4+Uzaf4CAABkGhrAAAAASDkBn6l7zivVrGFdXcds2Vuvcx+apx1VNIEBAAAO2FH1+TnSthg3ys0a1lX3nV/KtuwAAAAZirM8AAAApKScgE8PXjhZ0wd3dh2zaU+dznmQlcAAAACStLOqQec9NF9b9rqfG00f3FkPXjhZOezJDgAAkLF4BjAAAABSVm7Qp0cunqKLHv1ECzftcxxzoAn8zBXT1ack1+OEyFQ+01DP4qBrDZCk+qaoVmyvdayN6p2v3CDNFTCfwDvbKz9f+btpT53rmMkDOumRi6cwPwEAAGQ4GsAAAABIafkhvx775hRd8PB8Ld1a5Thm8946nfPgXD3zrenq2ynP44TpzzQNleQ5/2pgZmlzIug3Nap3frJjIMU1hC1V1UddazRYIDGfOOFzp+Nt3Vencx+aF3Pl74R+JXrsm1OUH+JyIAAAQKbjjA8AAAAprygnoCcvnarzH56v5durHcds2Vv/+Urgb01Xv840gVsj5DdVOqAw2TEAAFmCz52OtWXv57uhxHrm79g+xXri0qkqzAl4mAwAAADJwjOAAQAAkBZK8oJ6+vJpGtOnyHXM1n2fN4G37HXf+hAAACBTbNpTq7MfmBuz+TuyV5FmXzZVxbk0fwEAALIFDWAAAACkjZK8oJ66bJrG9il2HbOtsl5nPTBX68r3e5gMAADAWxsqanX2A/O0varBdczo3kX6y+XTVJLn/BxqAAAAZCYawAAAAEgrB5rA4/q6N4F3VDXo7AfmauUO5+2iAQAA0tmaXTU6+4G52lnt3vwd17dYf7l8ujrl0/wFAADINjSAAQAAkHaK8wKafdk0jY/RBK7Y36RzHpynJVsqPUwGAACQWEu3VuqsB+Zqd02j65jx/Uo0+7JpKs5j22cAAIBsRAMYAAAAaak4N6AnL5um8f1KXMdU1Yd1/sPz9Z+Nez1MBgAAkBifbNir8x6ar8q6sOuY0v4lPPMXAAAgy9EABgAAQNoqzg1o9mVTNWlAJ9cx+xsjuvCR+frws3IPkwEAAHSs91fv1kWPztf+xojrmCkDO+nJy6apKIfmLwAAQDajAQwAAIC0VpQT0JOXTtXMIV1cxzSELV32+AL9c/lOD5MBAAB0jDeW7dC3nlyghrDlOmbaoM56/JtTVRDye5gMAAAAqYgzQgAAAKS9/JBfj14yRVc/vUjvrtrtOKYpaumqpxbq12eMV+e8fI8TIt1ELFvl1U2OtW5FQflNw+NEANIV8wna681Pd+qmFxbLst3HHDG8m+4/f5Jygz7vggEAACBl0QAGAABARsgJ+PTnCybpxufK9Poy55W+li3d8foq3XXGJI/TpbaoZau63nk7yaJcv3xZ2JwIRyyt3FHnWCvJ88vPBXYAcWI+aY7Pndb5xWsrYzZ/vzG2l35/9gQF/Wz0BwAAgM/RAAYAAEDGCPpN/emcicoNLNNLi7YmO07aaIpYKtu837E2Y0gRq4kAAB2Kz52Oc+akvvrV6eNomgMAAOBLuDUQAAAAGcXvM3XXGeN04fQByY4CAACQMJfMHKg7af4CAADAAQ1gAAAAZBzTNPTzk0frmiOHJDsKAABAh7vuqKH66YmjZNL8BQAAgAMawAAAAMhIhmHolmNH6McnjEp2FAAAgA7zw6+P0E3HDJdh0PwFAACAMxrAAAAAyGiXHTl0dBQAACAASURBVDZIvztrfFzbI+6oavAgEQAAwJftjOMcxGca+u2Z43XFV9jhBAAAALHRAAYAAEDGO620rx66aJJyArFPf6+cvUBLt1Z6lAoAAEBatrVKVz61MOaYnICphy+arNMn9fUoFQAAANKZP9kBAAAAAC8cNaKHnrpsmi59/D+69ImPXced/cA83Xd+qY4c0d3DdEDq85mGehYHXWuAxPsEaK13V+3SNU+XqT4cdT0/Kc4N6OnLp2vSgE4epwMAAEC6ogEMAACArDF5YGc9f9UMXfzoJ9pV3eg4pj4c1eVPLtAvThmjc6f29zghkLqCflOjeucnOwZSHO8TIH6z523ST1/9VJbtPqZXcY6evHSqhvUo9C4YAAAA0h5bQAMAACCrjOhZpL9efagO6VHgOiZq2br15WW6661VsmJdlQUAAGgly7J1xxsr9eNXYjd/h3Yv0EvfnknzFwAAAK1GAxgAAABZp3dJrl64aqamD+4cc9y9763Tdc+UqSEc9SgZAADIZA3hqK5/tkwPfLA+5ripgzrrpatmqndJrkfJAAAAkEloAAMAACArFecG9MSlU3XS+N4xx722bIfOfnCedtc0eJQMAABkot01DTrnwXn6x9IdMcedNL63Zl82VcV5AY+SAQAAINPQAAYAAEDWCvl9+sPZE3TV4UNijluypVKn3DNHK3dUe5QMQDoI+g3lBEzHr6DfSHY8AClkxfZqnXLPHC3eUhlz3NVHDNEfzp6gkN/nUTIAAABkIn+yAwAAAADJZJqGfnD8CPUuydHP/rbc9Vl826sadMb9H+vu8ybqqBE9vA0JICXlh/yaObQ42TEApLi3V+zSDc+Wqa7J/ZESpiHddsoYnT9tgIfJAAAAkKlYAQwAAABIumjGQD144WTlBd1X3NQ2RXX5Ewv0yEcbZNsunWIAAABJtm3rgQ/W6YrZC2I2f/OCPj1y8RSavwAAAOgwNIABAACA/+/oUT30wlUz1Ks4x3WMZUu3/WOFvv/SUjVG3C/mAgCA7NUUsfS9F5fqjjdWKdY9Yz2KQnr+yhk6ckR378IBAAAg49EABgAAAL5gdO9ivXrNoRrXN/a2rs8v2KpzHpyn3dUNHiUDAADpYHdNg857aJ5eWLg15rixfYr1t2sP05g+bCUPAACAjkUDGAAAADhI96IcPXfFDB0/pmfMcWWbK3XiPR9p8ZZKj5IByROxbO2obHT8irg9PBtZh/cJst3iLZU66e45WrBpX8xxXx/bU89fOUM9itx3HQEAAADayp/sAAAAAEAqyg36dO95pfrNP1frvvfXuY7bVd2osx6YqztOHavTJ/X1MCHgrXDE0soddY61kjy//DGen43swfsE2eyFBVv0o1c+VVPEijnu+qOG6sajD5FpGh4lAwAAQLahAQwAAAC4ME1D3ztuhAZ3K9APX16mpqjzBd2miKWbXliiFTuqdevxI+T3sdEOAADZIhy1dPtrK/X4xxtjjgv6Td11xjidPKGPN8EAAACQtbgyBQAAALTgjEl99eyV09W9MBRz3CMfbdCFj3yiiv2NHiUDAADJtGd/oy58ZH6Lzd+uBUE9863pNH8BAADgCRrAAAAAQBxK+3fS3687TOP7lcQcN3f9Hp3wp4+0sIVn/wEAgPS2eEulTrz7I81bvzfmuHF9i/X36w7TpAGdPEoGAACAbMcW0AAAAECcehTl6LkrputHf/1ULy3a6jpuZ3WDznlwrn58wihdOH2ADINn/KUb0zRUkuf86xLPbMQBjRFL63fXO9YGd89VyM8912A+yUS2beupeZv083+sUDhqxxx7emlf3X7qGOUEeP41AAAAvEMDGAAAAGiFnIBPvzlznEb1LtLtr62Q5XLdNxy19ZNXl6tsc6V+eepY5QZT98KvYRjKCTg3qrK1eR3ymyodUJjsGEhxdY1R7ahqcqz1LA7SAIYk5hMn6fy5U9cU0Q9fXqZXFm+POc5nGvrxN0bq4pkDU/7PBAAAgMxDAxgAAABoJcMwdNlhgzS8R6GufWaRKuvCrmP/WrZNK3dU688XTNLArvkepoxfTsDUzKHFyY4BAMgS6fq5s658v7791EKt2bU/5rjO+UHde16pZgzp4lEyAAAA4Mu4HRkAAABoo8OGddXfrz1MY/oUxRy3ameNTrz7I72+bIdHyQAAQEd6fdkOnXzPnBabv6N7F+lv1x5K8xcAAABJRQMYAAAAaId+nfP04lUzddbkvjHH1TRGdPXTi/STVz9VQzjqUToAANAejZGo/vfvy3X104u0vzESc+zppX314lUz1bdTnkfpAAAAAGc0gAEAAIB2ygn49OszxutXp41V0Bf7FPvJuZt0+v0fa2NFrUfpAABAW2ysqNXp93+sx+ZsjDku6DN1x2lj9Zszxyk36PMmHAAAABADDWAAAACgg5wztb9euGqG+pTkxhy3fHu1Trj7I/1j6XaPkgEAgNb425LtOuHuj/TptuqY4/p2ytVL356pc6f2l2EYHqUDAAAAYqMBDAAAAHSg8f1K9PfrDtOsYV1jjtvfGNG1fynT/7yyjC2hAQBIEfVNUd368lJd/0xZi1s+Hzm8m/5x3WEa27fYo3QAAABAfGgAAwAAAB2sc35Qj39zqr77tUNktrAY6Kl5m3XKvXO0ZleNN+EAAICjz3bV6OR7P9Izn2yJOc4wpJu+dogeuXiKSvKCHqUDAAAA4kcDGAAAAEgAn2no+q8O09OXT1e3wlDMsat21ujEuz/S7LkbZdu2NwEBAIAkybZtPTVvk0685yOt2bU/5tiuBSHNvnSarvvqMJkt3eUFAAAAJIk/2QEAAACATDZjSBe9fv0sfff5xfrwswrXcY0RSz9+dbk+WFOuO08fpy4FsZvGSKyoZau63nnrz6Jcv3xc9AcQJ+aT1LZnf6O+/9JSvbNyd4tjZw3rqt+dNaHFG7sAAACAZKMBDAAAACRYt8KQnvjmVN33/lr97u01smIs8n1n5W4d98cP9buzxmvWsG6e5LNsW41hy7EWCpgyjexrTjRFLJVtdl4FNmNIkXKDPo8TAUhXzCfNpcrnzvurd+uWF5eqvKYx5jifaei7XztE3z58CKt+AQAAkBZoAAMAAAAeME1D1x41TFMGdtb1z5ZpV7X7xebymkZd+Mgn+tasQbr52OEK+RPbHGgMW5q7rtqxlq3NCQBA4iT7c6chHNWdb67SY3M2tji2d3GO/nTuRE0e2DmhmQAAAICOxDOAAQAAAA9NG9xFb9zwFR09skeLYx/6cINOunuOlm+v8iAZAACZb9XOap18z5y4mr9Hj+yu166fRfMXAAAAaYcGMAAAAOCxzvlBPXTRJP3ilDEK+WOfkq/eVaNT7p2je99bq0jUebtMAAAQW9Sydf/763TS3XO0eldNzLFBv6mfnThKD100WZ3ygx4lBAAAADoOW0ADAAAASWAYhi6YPkDTBnXWdc+UadVO94vR4aitu95arX+t3KXfnjVBg7rme5gUAID0tqGiVjc9v1iLNle2OHZEz0L96dyJOqRHoQfJAAAAgMRgBTAAAACQRMN6FOqVaw7VNw8d2OLYRZsr9fU/fqjZ8zbJtu3EhwMAII1Zlq3H52zQ8X/8d1zN38sPG6RXrz2U5i8AAADSHiuAAQAAgCTLCfj00xNH6yuHdNMtLyxRxf4m17H14ah+/Mqn+ufynbrt5DHqUZTT7tdvCLd9a+mGsJWwZnTQb8pnGi2Oa4xYsqyOzdDaY9IUsRTt4AwH+H2GAr6W790NRy1FoonJEM/fgyRFLFvhSGK2KjdNo8Ut06XPt3ltSlAGwzCUE4jvPurGiKX6pmhCcuQGfXGNS9TrS1IoYMo04ntfHNCeucZJMueIAwJ+U/44/3046YhjkipzRDCOf58H5ohYf+62HpOD54it++r0vReX6uN1e1r8f7sXhvTbs8Zr1rBubXptAAAAINXQAAYAAABSxJHDu+utG7+iH/51md5avivm2A8/q9D68iatL3dvFnth0aaaDm/qHDCxf4E65QdaHLd8W60q6yIJyRCvtbvrtbMqMX8XA7vmaHC33BbHbdnbqI0VDQnJ0LM4qCHdc1WS5/wrpPn/G2Dl1U1auaMuIRlK8vwqHdDyqrzq+ojKNu9PSIacgKmZQ4vjGrtie2KOgyQdNbJTXOPmrqtOWIYZQ4ocG9GmaXzpfVJVH9GBe0Q6+u8lFeaIkb3y1Ksk1Ob/vyOOSarMEaN6t/x4gnjmiLYekwNzhG3beu4/W/SL11Zqf2PLf+/HjOqhX50+Tp151i8AAAAyCA1gAAAAIIV0KQjpzxdM0l/Ltumnry5XTRwXrwEvhPxmXA1YZLeD3ycfr61K2E0iwME276nTD16Ob9VvYcivn5w4SmdM6iujlavZAQAAgFRHAxgAAABIMYZh6LTSvpo+uItueXGJ5qxt+UI2AADZbEdVg85/eKHqwy1vfX7o0C769Rnj1aek5ZXTAAAAQDqK7+FFAAAAADzXuyRXsy+dpp+dOCquZ58CAJCtNu2pbbH5mxvw6ecnj9bsS6fR/AUAAEBGYwUwAAAAkMJM09Alhw7SYcO66eYXlmjxlspkRwIAIO1MGtBJvzlzvAZ1bflZxQAAAEC6YxkBAAAAkAb+X3t3HqXXWdh5/ve+tasWqbSU9l2WZHnDq2zjDbAdcIhJSKBZAqQJhCaTmU5mppt00p2TZSZNkjMn0+nTAQL0BBICodnC6rAE2zI2xrYM3mXtZe0qqSSVSrXXO3/Idhu7kEpSlaS69fmcU+d9q27d+z4qvbo+5e+9z7OirSlf/OD1+f07LnQ3MJwnqqtKqSrnFR9ly4nCeaO2upzffcPqfP4D14m/AABMGqVKpVI514MAAABGb2tHdz70hceyeX/3qL7/Fy+flw/ctDzN9SNPANQ7MJxH24+OuO265S1pqK36mcfuHRjOeP1KUVtdTtUoSlrf4HCGh8d2DKf6M+kfHM7QGI/hBdVVpdRUnTz6DwwNZ3BofMZQVS6ldhQXHgwOVzIwODwuYyiXS6O6+GFouJL+cRpDqVRKfc3JxzBcqaRvYHzGkOSE/yZfqqf/5Guhnq66mnLKpZP/+yzqOeIFNdXlVJ9kDD39Q3lg85ERt12+qGlU76kTmYjniBOdY0/0M+nqHcxH792cr/54V17+thoYGs6R3oGf+trVS1rz4V++NMtnNY3uDwIAAAVhCmgAAJhgls5szOd+49p8+oFt+bO7Npx0zcNP3rc1X/3JrvzhL1yUOy6Zk9Ioos1onWm4GAvnwx3Rowkf462mqpya0XXBcVNdLqV6lHFyvFSVS6MOpOOlXDr3Y0hGH4rHk3PEidXXlM/a39NEOUeM9DOpVCr52mO788dfeyodR/tO+jpTaqvyodevzruuXZyyW/IBAJiEBGAAAJiAXlgb+LWrZ+d3v/RY7t984ITfv7+rL//LP6zPa1bNyh/eeVEWzzANJgDnv+0HuvMfv/JE1m3sGNX333jBzPzpL12ShdOnjPPIAADg/HX+XgYLAACc1KIZU/KZ963Nh998SVp+xhTPL/X9Dftz21/em7/8zrPpPcmdwwBwrvQODOW/fm9jbv/Le0cVf1vqq/MXv3JpPv3ea8RfAAAmPXcAAwDABFcqlfK2axbldRfOzp98/al89Se7Tvj9/YPD+S/f25gvP7ozf3jnmly3bOZZGikT2dBwJUd6Bkfc1tJQPaq1WCk+7xPGwr88szd/9LWnsv3AsVF9/xsvnZs/eOOatLXUj/PIAABgYhCAAQCgIGY11+Wv3n553nzF/PzHrzyRHZ09J/z+9oPH8t6/fThvumx+3vSqxWdplExU/YPDebT96Ijbrlvecl6sN8u5533CmfrQFx7LVx878YVML1g4vSF/8qaLc8uqtnEeFQAATCymgAYAgIK5ZVVbvv07N+U3blo2qrvt7ts0unUVAWC8/eAka9onSXW5lA/esjzf/u2bxV8AABiBO4ABAKCAptRW5/fuuDBvetW8/N6Xn8hPnjt0rocEAGfsysWt+b9/6eKsntNyrocCAADnLQEYAAAK7KJ5U/PlD16fzz/8XP7srmfSeWzgXA8JAE7Z1Iaa/PvXr8rbr16UsrWkAQDghARgAAAouHK5lLddsyg/d9Gc/Pk/b8jnHmpPpTK6fT/8rWfyW69dkVnNdeM7yPNMqVRKfc3IK+aUSsIDxw0MDmf34b4Rt82dWpeaaqsu4XzycvuO9Oa/fX9Tbl45f1TfXyolb7t6Uf7dz63K9MbacR4dAAAUgwAMAACTRGtjbf7zmy/Jv7p6Yf7gn57IYzsOn3Sfrz+2O19cvyO/9doV+bXrl6S+puosjPTcq68p5/oVU8/1MDjPHe0byqZ9vSNua66vTqsATJxPXtA7MJRP3rc1f/39TamvqR5VAL5s4bT88Z0X5bKF087CCAEAoDhKlcpor/0HAACKYmi4ks891J4/v2tDDveMblro+dMa8n/+3Mq86bL5pt+chHr6h/LA5iMjbrtueUsaaifHxQEv1dk9kEfbj4647fJFTWltrDnLIzr3vE94ueHhSr7++O782beeyc5DPaPap3VKTT70+tV561UL/fcGAABOgzuAAQBgEqoql/LOtYtzx8Vz8/9+99n8/YPtGRo+8bWhOw/15Hf+8Sf5xLqt+b07LsyrV8w8S6MFYCK6f1NH/vO3nsnjO08+40SSlEvJO9cuzv9x+8pMm2K6ZwAAOF0CMAAATGKtjbX5ozddnHdeuzh/8vWnsm5jx0n3eXLXkbzzEw/mllWz8h/ecGFWzWk+CyMFYKJ4eveRfPhbz+SeZ/ePep9Xr5iR//TGNVk9p2UcRwYAAJODAAwAAGTl7OZ8+r3X5HtP78v/9Y2nsu3AsZPuc/eG/bn32f35lSsX5LdvXZl50xrOwkgBOF/tPNST/+fbG/LlR3dmtAuOLZ3ZmN+/48K87sK2lEqmewYAgLEgAAMAAEmSUqmUW9fMzo0rZ+ZT92/Lf/3epnT1DZ5wn+FK8vmHd+Qrj+7Kr167OL/5muWZ2VR3lkYMwPngYHd/PnrP5vzt/dvSPzg8qn1a6qvzb29dmXdduzi11eVxHiEAAEwuAjAAAPBT6qqr8hs3Lc+br1iQv/rexvzDg+0ZPMn6wP1Dw/nvP9iaf3yoPb9+w9K876ZlaamvOUsjBuBcONI7kE/cuyWfvG9ruvuHRrXP8TXoF+W3b12Z6Y3W+QUAgPFQqlRGOykPAAAwGW3ZfzR/fteG3PXknlHvM7WhJh+8ZXnec92SNNRWjePoOFt6+ofywOYjI267bnnLpPx77uweyKPtR0fcdvmiprQ2Tr6LILxPJodj/YP5/36wLX9z75Yc7hkY9X63r5mdf//61VnR1jSOowMAANwBDAAAnNCyWU356LuuzMPbDuZPv/l01rcfOuk+h3sG8uFvPZNP3rc1v3nL8rz9mkWprxF+ACay3oGhfObB9nzk7k3pONo/6v2uXNya//CG1blqyfRxHB0AAPACdwADAACjVqlUctcTe/Jndz2TbQeOjXq/tua6fHACheDhSiV9AyOvY1lXU065VDrLIzr33Nn5Su4AfiXvk1cqwvmkd2Aon3/4uXzk7s3Zfbh31Pstm9WYD71+dW5fMzulCfDnBACAonAHMAAAMGqlUilvuGRubl0zO59/+Ln81fc2Zu+RvpPut6+rL3/0tafy13dvzgdvXp53rD2/Q3DfwLCIBYyJiXw+6ekfymd/1J6P3rM5+7pOfq5/wazmuvzOrSvz1qsWpLqqPI4jBAAARiIAAwAAp6ymqpx3rl2cX75iQf7uge3567s3pfPYydeB3N/Vlz/++lP5yD0TIwQDTEbH+gfzmR+252P3bknH0dGH32lTavJvbrb+OwAAnGsCMAAAcNrqa6ry/puW5W3XLMwn1m3NJ9ZtSXf/0En3eyEE//Xdm/LeG5bmV69dnJb6yTddLsD55GjfYP7uge35+LotOdg9+jV+m+qq874bl+a9Nyx1LgcAgPOAAAwAAJyx5vqa/M5tK/Oe65fkI3dvyqcf2J6+wZHXvHypjqP9+fO7NuQjd2/Ou69bnH/96qWZ2VR3FkYMwAs6jvblb3+wLZ9+YFuO9A6Oer/6mnJ+7fql+cBNy9LaWDt+AwQAAE6JAAwAAIyZ6Y21+f2fX5P337gsH71nSz7z4OhCcFfvYP7b9zfnE+u25m1XL8z7b1qWBa1TzsKIASav5w4ey8fXbck/PvTcqM7VL6itKucdaxflN1+zPG3N9eM4QgAA4HQIwAAAwJhra6nPH/zCmvybm08tBPcNDudTD2zPZx5sz52vmpcP3LQ8q+Y0n4URA0weT+8+ko/dszlfe2x3hoYro96vrvp4+P3ATcszZ6rwCwAA5ysBGAAAGDcvDcEfu3dL/v6HowvBg8OVfGn9znxp/c7ctHJW3n/j0tywYmZKpdJZGDVA8VQqlTyw+UA+vm5Lvr9h/yntW19TzruuXZz337TMHb8AADABCMAAAMC4a2upz39645p84OZl+Zt7tuQzD7anZ2BoVPve++z+3Pvs/qye05z33bgsd142L7XV5XEeMS9XKpVSXzPyz12Y5wXeJ+efvsGhfPXHu/LJ+7bmmT1dp7TvlNqqvPu6JXnfjdZnBwCAiaRUqVRGP9cPAADAGDjY3Z+/vX9bPnX/thzuGTilfdua6/Ke65fknWsXZdqU2nEZX0//UB7YfGTEbdctb0lDbdW4vC4TS2f3QB5tPzritssXNaW1seYsj4jz0bk6nxzs7s9nfrg9n3pgezqO9p3Svs311Xn3dYvz6zcsy/TG8TnPAgAA40cABgAAzpmjfYP57IPt+fi6LdnXdWqBor6mnF+6fH7ec/2SrJ7TMqbjEoAZDQGY0Tjb55ONe7vy33+wLV9av2NUU+6/VFtzXd5349K8/ZpFaa73/gUAgIlKAAYAAM65vsGhfPGRnfnYvZuz/cCxU95/7dLp+bXrl+S2NbNTXXXm00MLwIyGAMxonI3zyeDQcL7z1N58+oHteWDLgVPef9nMxnzg5mX5xcvnp67a+Q0AACY6awADAADnXF11Vd6xdlHeetWC3PXknnx83db85LlDo97/wa0H8+DWg5k3tT7vvHZx3n7NItOWAoW3v6svn/tRe/7hR+3Zfbj3lPe/dMHUfPDm5bn9ojmpKlujGQAAisIdwAAAwHmnUqnk4e2d+fi9W/Kdp/fmVH9rqa0u5+cvmZt3rF2Uqxa3plQ6tbDhDmBG43DPYB7Z1jXitiuXNGdqg2uuGfvzSaVSyfr2znz6ge355uO7MzB0aifIUil53erZ+fUblubaZdNP+fwIAACc/wRgAADgvLa1ozufvG9LvvDIjvQOnNp6lklyQVtT3rF2Ud58+YJMnTK6KXkFYGCsjNX55PCxgXz50R357I+ey4a9I194cCINNVV5y1UL8q9fvTRLZzae8v4AAMDEIQADAAATwsHu/nzmh9vzdz/cnn1dfae8f111OW+8dF7esXZhrlh04ruCBWBgrJzJ+eSF2RA++2B7vvH47vQNnvpFMHNa6vOe65fk7dcszLQppsYHAIDJQAAGAAAmlP7B4dz15J58+v5teXh752kdY9Xs5rzlqgX5xcvnZ2ZT3Su2C8DAWDmd80lnd3++uH5HPvfQc9m07+hpve7li6bl165fkjsumZuaqvJpHQMAAJiYBGAAAGDCemLn4Xzq/m35p5/sSv9p3BlXXS7ltavb8parFuaWVbNejCQCMDBWRns+GRgazj0b9ucLj+zI957Ze8pr+ybHZzq487J5efd1S3LJgqlnNG4AAGDiEoABAIAJ72B3fz73UHv+/oHt2XW497SOMbOpNr90+fy85aqFWdg6RQB+meFKJX0/Yw3muppyyieYUpvJw/vklU4WgLd2dOeL63fkn368Mx1H+0/rNRZOb8ivrl2ct161MK2NpnkGAIDJTgAGAAAKY2i4krs37Ms/PNie72/Yl+HT/G3n1ctn5tdvWDnitskagN0VzWh4n7zSiX4mf3Pvhvxw64HTOm6plNx0way8+7rFuWVVW6rKky+uAwAAI6s+1wMAAAAYK1XlUl534ey87sLZ2XWoJ5976Ln840Pt2Xuk75SO88yernEaIcD/tPE01ved01Kft169MG+9akEWtE4Zh1EBAAATnQAMAAAU0rxpDfnfb1uZ/+21K/Ivz+zLZ3/Unruf3Z8znQPpvk0duXnlrNRWl8dmoEBh9Q4M5Z5n96e2qu6MjlMuJa9d3Za3X7MoN6+cleoq5x8AAOBnE4ABAIBCq64q5/aL5uT2i+Zk56GefOmRHfnC+h3ZfuDYaR3vd7/4eAaGhnLbmjl546Vz8+oVM8Vg4EUDQ8O5f/OBfOOxXfnWE3tSW1WVv/iVK0/rWPOnNeRfXb0wb7lqQeZObRjjkQIAAEUlAAMAAJPG/GkN+V9fd0F+67Ur8qOtB/M/HtmRbzy2Oz0DQ6d0nCO9g/ni+h354vodaamvzu0XzcnPXyIGTzaDw8Pp6hn5vdPcUJXqsvfCZNE3OJQfbOrINx/fk+88tTeHewZe3Daj8dTWPZ5SW5U7LpmbX75iQdYunZ6ytX0BAIBTVKpUznQCNAAAgInraN9gvvnY7vyPR57LQ9s6z+hYL8Tgn7toTm68YGbqa04t/JzPevqH8sDmIyNuu255Sxpqi/NnHa3O7oE82j7yGq6XL2pKa2PNWR7RuTeZ3ie9A0NZt7Ej33x8d7771N509Q2e0fGuWzYjv3zlgrzh4jlprHO9PgAAcPr8RgEAAExqTXXVeevVC/PWqxdm+4Hu/NOPd+UrP96ZLfu7T/lYR3oH84VHduQLj+xIQ01Vblo5M7evmZPXrm5La2PtOIweOJs6u/vz/Q378t2n9+aeDfvT3X9qswe83NKZjfnFV83Pm6+Yn4XTp4zRKAEAgMnOHcAAAAAvU6lU8sTOjEn2mQAAEjxJREFUI/nKj3fmqz/Zlf1dfWd0vKpyKVcvac3ta+bktjWzJ2TomUx3do6WO4BfqYjvk+0HuvOdp/bmO0/tzcPbOzM0fGb/G6WtuS53XjYvd75qXi6ZPzWlkimeAQCAsSUAAwAAnMDQcCX3b+7IVx7dlW8/ueeMp3lNkpWzm/KaVW25ZVVbrlrSmpqq83+t2CKGvTMlAL9SEd4ng0PDWd9+6Pidvk/tzcZ9I/8dn4qW+urcccnc3PmqeVm7dEaqrOsLAACMI1NAAwAAnEBVuZQbL5iVGy+Ylb7Bi7Pu2eNrfn7nDNb8fHbv0Ty792g+du+WNNdV58aVM3PLqrbcsnJW2lrqx/hPAJzM3iO9uWfD/tz97L6s29iRrt4zv9Cjqa46r7uwLXdcMje3rJqVuurzP34DAADFIAADAACMUl11VW5dMzu3rpmdvsGhMYnBXX2D+ebje/LNx/ckSS6a15IbLpiZG1fMylVLWlNfIxrBWOsbHMqj7Ydyz7P7c/eG/Xl698h3LZ+q5vrq3LZmdu64eG5uuGCmf78AAMA5IQADAACchpFi8D8/uSfffXpvOo8NnPZxn9x1JE/uOpKP3bMlddXlXLN0em5YMTM3XDAzF85pSdnUsXDKhocreWr3kfxgU0d+sPlAfrT1QHoHhsfk2FMbanL7mtm549K5efXymamtPv+ndAcAAIpNAAYAADhDL43Bg0PDeWR7Z7791N58+6k9ee5gz2kft29wOOs2dmTdxo7kW8mMxtpct3xGrl02I9cum57ls5pSKgnC8HKVSiXbDhzL/Zs7cv+mA7l/c8cZXZjxcgtaG3Lbmtm5bc3sXL1k+oRYxxsAAJg8SpVKpXKuBwEAAFBElUolz+zpyrefPB6Dn9w1NtPMvmBmU23WLp2RtcumZ+3SGbmgrWnc7hDu6R/KA5tHHv91y1vSUDv5prrt7B7Io+1HR9x2+aKmtDbWnOURnXvn6n0yPFzJs/u68qOtB1/82NfVN6avcdmCqbnt+Qs9Vs1udvEFAABw3nIHMAAAwDgplUq5cG5LLpzbkn976wXZc7g3d2/Yl+9v2Jf7Nnaku3/ojI7fcbQ/33h8d77x+O4kyfTG2ly9pDVXLj7+cdG8qdYgpZD6B4fz1O4jeWjrwTy49WAe2nYwh3vG7g7fJJlSW5Xrl8/Ma1bPyq0Xzs7slvoxPT4AAMB4EYABAADOkjlT6/O2axblbdcsSv/gcB7adjDff2Zf/mXDvmzZ333Gxz/Y3Z9/fnJv/vnJvUmS2qpyLp7f8mIQvmJRa9pELCagPYd7s769M4+2d2Z9+6E8vvNw+gfHZg3fl7qgrSm3rJqVW1a15aolramrdgEFAAAw8ZgCGgAA4Dyw/UB31m3syH0bO3L/5o4c6R0cl9eZP60hly2cmksXTMul86fm4gVT01J/8qmKTQH9SqaAfqWxeJ909Q7kyV1H8viOw/nxc4eyvr0zuw/3jvVQkyTNddW5dvmM3LJqVm5eOSsLWqeMy+sAAACcTe4ABgAAOA8sntGYxTMa86vXLs7QcCWP7TiUH2zqyLqNHVnf3pmBobG5dnfnoZ7sPNSTbz6+58WvLZvZmEsXTM0lC6bl0gVTc+HcljTV+XWR8ffS2Pv4zsN5YufhbOk487vhf5baqnKuWDwtN6yYmetXzMyl86emuqo8bq8HAABwLrgDGAAA4DzX3TeYH209mAe2HMiDWw7kiV1HMjQ8vr/KLZo+JRfObc6auVNz4dzmrGhrzraO/hG/1x3Ar+QO4FdaMrM2m/Z15Zk9XXlmz5E8vbsrW8cx9iZJqZRcNK8lr14xM69ePjNXL5k+Kd+rAADA5CIAAwAATDBH+wbz8LaD+eGWg3lw64E8vuNwBsc5CM9orMtf/MqVI267dllzpkzCO4YF4Fc61jeYH27pGnHbv/vCIznQ3Teur19dLuXSBVNzzdIZWbt0eq5c0jqqKc4BAACKZPL9hg4AADDBNdVV55ZVbbllVVuS43cIr2/vzEPbOrN+e2cebe9Md//QWRvPHf9lXWY012XFrKZcMLspS2Y0ZsnMxiyaPiW11abXLaKBoeHs6OzJ5n1Hs2n/0RcfO4/25w9+4VVnbRwNNVW5bOHUrH0++F6+qNUdvgAAwKQnAAMAAExwjXXVufGCWbnxgllJkqHhSjbs6coj7Z15dHtnHmnvzPYDx8bt9bv6hrLtYGce2d75U18vl5J50xqydGZjlsxozOIZU7J0ZmMWTp+S+dMa0jgJ7xqeSHoHhtJ+8Fi2dXQffzzQne0HjmX7gWPZeahnxGnIZzTWjeuYlsyYkssXteaKRdNy+aLWrJ7TbA1fAACAl/HbNgAAQMFUlUtZM68la+a15F3XLk6S7O/qy4+fO5THdhzKYzsO57Edh9J5bGBcxzFcSXZ09mRHZ0/Wbex4xfbWKTWZ39qQBdOmHH9sbcj8aQ2ZN60hbS11mdFYl6pyaVzHOFlVKpUc6O7PrkM92XWoJzsP9b74/PjnPek4OvKaz2fL1IaaXDJ/ai5bODVXLGrNqxZOy4ym8Q3MAAAARWANYAAAgEmoUqlkR2fPizH4sR2H88TOw+nqGzzXQ3tRVbmUtua6tLXUZ3ZzXeZMrc/slvrMaqrL9MbaTG+qzYzG2kxvrE1TXXVKpbMbi8+3NYArlUqO9Q/lYHd/Dh0byP6jvdl3pC/7uvqyr+v4871dfdl/pDf7j/ZlYOj8+d8BL8Tei+dPzSXzp+bSBVOzoLXhrP+dAgAAFIEADAAAQJL/GYWf2n0kT7/40ZX2g+M3ffRYqa0uZ/qU2sxoOh6EW+pr0tJQ/fxjTVrqq48/Pv+8oaY6U2qrMqW2Kg21VWmoqTrlqYTHOgAPDg2nd3A4Pf1D6R0YSlfvYLp6B3K0b/DF50d6B5//fCCHjg2k81h/DnYPpLO7PweP9ad/cPiUXvNcWDxjSlbNbs7quS1ZPac5l8wXewEAAMaSAAwAAMAJdfUO5Jk9XXlm95Fs3Hc0G/cezcZ9R9NxtO9cD21M1VaV0/B8FK6tLqemqpzqcunF5zVVpecfyymXSpnZVJfb1ywY8VjffXpH9h7pzeBwJYPDwxkcqjz/vJLBoeEMDA2nd2A4vQND6Rk4HnzPpztyx8L0xtqsmNWU1XObs3pOS1bPbc7K2c1psvYzAADAuBKAAQAAOC2d3f3ZtP94EN6072g27uvK1o7u7DzUk8nwm+aKWc35vTsuGXHbn37z8Wza33WWR3RuLGhtyIq2piyf1ZQVbU0vPp/eWHuuhwYAADApuewWAACA09LaWJurG6fn6iXTf+rrfYNDee7gsWztOJZtHd3ZduD5j45j2XV4csThIqkqlzJ/WkMWz5hy/GN6YxbNmJIlMxqzaPqUNNRWneshAgAA8BLuAAYAAOCs6R8czp7Dvdlx6Fh2dPZkZ2fP8cdDx7LzUE92Hzo+bTJnT21VOfOm1WfetIYXP+ZPq8/8aVMyv7UhC1obUnOK6yMDAABw7gjAAAAAnDeGhys50N2fvUd6n//oe8nz458f6O7Lwe7+wq2ZO9aqyqXMaqpLW0td2prrMqu5Pm3NL3x+/PncafWZ2ViXcrl0rocLAADAGBGAAQAAmHAqlUq6+gZz8Gh/DnT352B3fw529+VAd38O9wzkSM9gjvQM5EjvwPOPxz8/3DMw4e4wrqsup7m+Ji311Wmqr05zfXWa62rS0lCd6Y11md5Yk9YptZneWJvWxtpMn1Kb1im1aa6vFnYBAAAmIQEYAACASaNSqaRvcDg9/UM5NjCUnv7BHOsfyrH+ofQMDB3/ev9QBoeGMzA0nP6hSgaGhjP4kucDg8MZriSVVJ4/5k8f/wXVVeVUV5VSXS6lulw+/lhVTk1VKVXlUhpqqlL//EdDbVXqq8vHH2uqUl9dlab66jTVVae22vTLAAAAjJ4ADAAAAAAAAFAQLiMGAAAAAAAAKAgBGAAAAAAAAKAgBGAAAAAAAACAghCAAQAAAAAAAApCAAYAAAAAAAAoCAEYAAAAAAAAoCAEYAAAAAAAAICCEIABAAAAAAAACkIABgAAAAAAACgIARgAAAAAAACgIARgAAAAAAAAgIIQgAEAAAAAAAAKQgAGAAAAAAAAKAgBGAAAAAAAAKAgBGAAAAAAAACAghCAAQAAAAAAAApCAAYAAAAAAAAoCAEYAAAAAAAAoCAEYAAAAAAAAICCEIABAAAAAAAACkIABgAAAAAAACgIARgAAAAAAACgIARgAAAAAAAAgIIQgAEAAAAAAAAKQgAGAAAAAAAAKAgBGAAAAAAAAKAgBGAAAAAAAACAghCAAQAAAAAAAApCAAYAAAAAAAAoCAEYAAAAAAAAoCAEYAAAAAAAAICCEIABAAAAAAAACkIABgAAAAAAACgIARgAAAAAAACgIARgAAAAAAAAgIIQgAEAAAAAAAAKQgAGAAAAAAAAKAgBGAAAAAAAAKAgBGAAAAAAAACAghCAAQAAAAAAAApCAAYAAAAAAAAoCAEYAAAAAAAAoCAEYAAAAAAAAICCEIABAAAAAAAACkIABgAAAAAAACgIARgAAAAAAACgIARgAAAAAAAAgIIQgAEAAAAAAAAKQgAGAAAAAAAAKAgBGAAAAAAAAKAgBGAAAAAAAACAghCAAQAAAAAAAApCAAYAAAAAAAAoCAEYAAAAAAAAoCAEYAAAAAAAAICCEIABAAAAAAAACkIABgAAAAAAACgIARgAAAAAAACgIARgAAAAAAAAgIIQgAEAAAAAAAAKQgAGAAAAAAAAKAgBGAAAAAAAAKAgBGAAAAAAAACAghCAAQAAAAAAAApCAAYAAAAAAAAoCAEYAAAAAAAAoCAEYAAAAAAAAICCEIABAAAAAAAACkIABgAAAAAAACgIARgAAAAAAACgIARgAAAAAAAAgIIQgAEAAAAAAAAKQgAGAAAAAAAAKAgBGAAAAAAAAKAgBGAAAAAAAACAghCAAQAAAAAAAApCAAYAAAAAAAAoCAEYAAAAAAAAoCAEYAAAAAAAAICCEIABAAAAAAAACkIABgAAAAAAACgIARgAAAAAAACgIARgAAAAAAAAgIIQgAEAAAAAAAAKQgAGAAAAAAAAKAgBGAAAAAAAAKAgBGAAAAAAAACAghCAAQAAAAAAAApCAAYAAAAAAAAoCAEYAAAAAAAAoCAEYAAAAAAAAICCEIABAAAAAAAACkIABgAAAAAAACgIARgAAAAAAACgIARgAAAAAAAAgIIQgAEAAAAAAAAKQgAGAAAAAAAAKAgBGAAAAAAAAKAgBGAAAAAAAACAghCAAQAAAAAAAApCAAYAAAAAAAAoCAEYAAAAAAAAoCAEYAAAAAAAAICCEIABAAAAAAAACkIABgAAAAAAACgIARgAAAAAAACgIARgAAAAAAAAgIIQgAEAAAAAAAAKQgAGAAAAAAAAKAgBGAAAAAAAAKAgBGAAAAAAAACAghCAAQAAAAAAAApCAAYAAAAAAAAoCAEYAAAAAAAAoCAEYAAAAAAAAICCEIABAAAAAAAACkIABgAAAAAAACgIARgAAAAAAACgIARgAAAAAAAAgIIQgAEAAAAAAAAKQgAGAAAAAAAAKAgBGAAAAAAAAKAgBGAAAAAAAACAghCAAQAAAAAAAApCAAYAAAAAAAAoCAEYAAAAAAAAoCAEYAAAAAAAAICCEIABAAAAAAAACkIABgAAAAAAACgIARgAAAAAAACgIARgAAAAAAAAgIIQgAEAAAAAAAAKQgAGAAAAAAAAKAgBGAAAAAAAAKAgBGAAAAAAAACAghCAAQAAAAAAAApCAAYAAAAAAAAoCAEYAAAAAAAAoCAEYAAAAAAAAICCEIABAAAAAAAACkIABgAAAAAAACgIARgAAAAAAACgIARgAAAAAAAAgIIQgAEAAAAAAAAKQgAGAAAAAAAAKAgBGAAAAAAAAKAgBGAAAAAAAACAghCAAQAAAAAAAApCAAYAAAAAAAAoCAEYAAAAAAAAoCAEYAAAAAAAAICCEIABAAAAAAAACkIABgAAAAAAACgIARgAAAAAAACgIARgAAAAAAAAgIIQgAEAAAAAAAAKQgAGAAAAAAAAKAgBGAAAAAAAAKAgBGAAAAAAAACAghCAAQAAAAAAAApCAAYAAAAAAAAoCAEYAAAAAAAAoCAEYAAAAAAAAICCEIABAAAAAAAACkIABgAAAAAAACgIARgAAAAAAACgIARgAAAAAAAAgIL4/wHAqLiSg1OKUAAAAABJRU5ErkJggg==;imageBackground=none;imageBorder=none;sketch=0;fixDash=0;overflow=visible;" vertex="1" parent="1">
          <mxGeometry x="900" y="150" width="880" height="542" as="geometry" />
        </mxCell>
        <mxCell id="1TEJy7Q_EAJVrFstwn4l-5" value="" style="endArrow=none;html=1;rounded=0;fontFamily=Helvetica;fontSize=12;fontColor=default;fillColor=#fff2cc;strokeColor=#CC6600;strokeWidth=2;" edge="1" parent="1">
          <mxGeometry width="50" height="50" relative="1" as="geometry">
            <mxPoint x="1350" y="423.67" as="sourcePoint" />
            <mxPoint x="1540" y="423.67" as="targetPoint" />
          </mxGeometry>
        </mxCell>
        <mxCell id="1TEJy7Q_EAJVrFstwn4l-6" value="" style="endArrow=none;html=1;rounded=0;fontFamily=Helvetica;fontSize=12;fontColor=default;strokeColor=#CC6600;strokeWidth=2;" edge="1" parent="1">
          <mxGeometry width="50" height="50" relative="1" as="geometry">
            <mxPoint x="1351" y="420" as="sourcePoint" />
            <mxPoint x="1400" y="347" as="targetPoint" />
            <Array as="points" />
          </mxGeometry>
        </mxCell>
        <mxCell id="1TEJy7Q_EAJVrFstwn4l-7" value="" style="endArrow=classic;html=1;rounded=0;fontFamily=Helvetica;fontSize=12;fontColor=default;strokeColor=#666666;strokeWidth=1;fillColor=#f5f5f5;opacity=40;" edge="1" parent="1">
          <mxGeometry width="50" height="50" relative="1" as="geometry">
            <mxPoint x="1347" y="347" as="sourcePoint" />
            <mxPoint x="1447" y="347" as="targetPoint" />
          </mxGeometry>
        </mxCell>
        <mxCell id="1TEJy7Q_EAJVrFstwn4l-11" value="" style="endArrow=classic;html=1;rounded=0;fontFamily=Helvetica;fontSize=12;fontColor=default;strokeColor=#666666;strokeWidth=1;fillColor=#f5f5f5;opacity=40;" edge="1" parent="1">
          <mxGeometry width="50" height="50" relative="1" as="geometry">
            <mxPoint x="1400" y="392" as="sourcePoint" />
            <mxPoint x="1400" y="292" as="targetPoint" />
          </mxGeometry>
        </mxCell>
        <mxCell id="1TEJy7Q_EAJVrFstwn4l-12" value="" style="endArrow=classic;html=1;rounded=0;fontFamily=Helvetica;fontSize=12;fontColor=default;strokeColor=#000000;strokeWidth=1;opacity=60;" edge="1" parent="1">
          <mxGeometry width="50" height="50" relative="1" as="geometry">
            <mxPoint x="1379" y="329" as="sourcePoint" />
            <mxPoint x="1399" y="349" as="targetPoint" />
          </mxGeometry>
        </mxCell>
        <mxCell id="1TEJy7Q_EAJVrFstwn4l-13" value="" style="endArrow=classic;html=1;rounded=0;fontFamily=Helvetica;fontSize=12;fontColor=default;strokeColor=#000000;strokeWidth=1;opacity=60;" edge="1" parent="1">
          <mxGeometry width="50" height="50" relative="1" as="geometry">
            <mxPoint x="1397" y="349" as="sourcePoint" />
            <mxPoint x="1377" y="369" as="targetPoint" />
          </mxGeometry>
        </mxCell>
        <mxCell id="1TEJy7Q_EAJVrFstwn4l-14" value="" style="ellipse;whiteSpace=wrap;html=1;aspect=fixed;labelBackgroundColor=default;sketch=0;fontFamily=Helvetica;fontSize=12;strokeColor=#3399FF;fillColor=#ffe6cc;resizeWidth=0;resizeHeight=0;" vertex="1" parent="1">
          <mxGeometry x="1410" y="385" width="7" height="7" as="geometry" />
        </mxCell>
        <mxCell id="1TEJy7Q_EAJVrFstwn4l-17" value="" style="ellipse;whiteSpace=wrap;html=1;aspect=fixed;labelBackgroundColor=default;sketch=0;fontFamily=Helvetica;fontSize=12;strokeColor=#3399FF;fillColor=#ffe6cc;resizeWidth=0;resizeHeight=0;" vertex="1" parent="1">
          <mxGeometry x="1397" y="344" width="7" height="7" as="geometry" />
        </mxCell>
        <mxCell id="1TEJy7Q_EAJVrFstwn4l-18" value="" style="ellipse;whiteSpace=wrap;html=1;aspect=fixed;labelBackgroundColor=default;sketch=0;fontFamily=Helvetica;fontSize=12;strokeColor=#3399FF;fillColor=#ffe6cc;resizeWidth=0;resizeHeight=0;" vertex="1" parent="1">
          <mxGeometry x="1363" y="410" width="7" height="7" as="geometry" />
        </mxCell>
        <mxCell id="1TEJy7Q_EAJVrFstwn4l-19" value="&lt;font face=&quot;宋体&quot; data-font-src=&quot;https://fonts.googleapis.com/css?family=%E5%AE%8B%E4%BD%93&quot;&gt;&lt;b&gt;轨迹终点&lt;/b&gt;&lt;/font&gt;" style="text;html=1;strokeColor=none;fillColor=none;align=center;verticalAlign=middle;whiteSpace=wrap;rounded=0;labelBackgroundColor=default;sketch=0;fontFamily=Helvetica;fontSize=12;fontColor=default;" vertex="1" parent="1">
          <mxGeometry x="1370" y="397.5" width="60" height="30" as="geometry" />
        </mxCell>
        <mxCell id="1TEJy7Q_EAJVrFstwn4l-20" value="&lt;font face=&quot;宋体&quot; data-font-src=&quot;https://fonts.googleapis.com/css?family=%E5%AE%8B%E4%BD%93&quot;&gt;&lt;b&gt;轨迹起点&lt;/b&gt;&lt;/font&gt;" style="text;html=1;strokeColor=none;fillColor=none;align=center;verticalAlign=middle;whiteSpace=wrap;rounded=0;labelBackgroundColor=default;sketch=0;fontFamily=Helvetica;fontSize=12;fontColor=default;" vertex="1" parent="1">
          <mxGeometry x="1418" y="377" width="60" height="30" as="geometry" />
        </mxCell>
        <mxCell id="1TEJy7Q_EAJVrFstwn4l-21" value="&lt;font face=&quot;宋体&quot;&gt;&lt;b&gt;y=135°&lt;/b&gt;&lt;/font&gt;" style="text;html=1;strokeColor=none;fillColor=none;align=center;verticalAlign=middle;whiteSpace=wrap;rounded=0;labelBackgroundColor=default;sketch=0;fontFamily=Helvetica;fontSize=12;fontColor=default;" vertex="1" parent="1">
          <mxGeometry x="1320.5" y="321" width="60" height="30" as="geometry" />
        </mxCell>
        <mxCell id="1TEJy7Q_EAJVrFstwn4l-22" value="&lt;font face=&quot;宋体&quot;&gt;&lt;b&gt;w=225°&lt;/b&gt;&lt;/font&gt;" style="text;html=1;strokeColor=none;fillColor=none;align=center;verticalAlign=middle;whiteSpace=wrap;rounded=0;labelBackgroundColor=default;sketch=0;fontFamily=Helvetica;fontSize=12;fontColor=default;" vertex="1" parent="1">
          <mxGeometry x="1322" y="345" width="60" height="30" as="geometry" />
        </mxCell>
        <mxCell id="1TEJy7Q_EAJVrFstwn4l-23" value="&lt;font face=&quot;宋体&quot;&gt;&lt;b&gt;d=23.51&lt;/b&gt;&lt;/font&gt;" style="text;html=1;strokeColor=none;fillColor=none;align=center;verticalAlign=middle;whiteSpace=wrap;rounded=0;labelBackgroundColor=default;sketch=0;fontFamily=Helvetica;fontSize=12;fontColor=default;" vertex="1" parent="1">
          <mxGeometry x="1301" y="387" width="60" height="30" as="geometry" />
        </mxCell>
        <mxCell id="1TEJy7Q_EAJVrFstwn4l-25" value="" style="ellipse;whiteSpace=wrap;html=1;aspect=fixed;labelBackgroundColor=default;sketch=0;fontFamily=Helvetica;fontSize=12;fontColor=#000000;strokeColor=#3399FF;fillColor=none;" vertex="1" parent="1">
          <mxGeometry x="1161" y="770" width="80" height="80" as="geometry" />
        </mxCell>
        <mxCell id="1TEJy7Q_EAJVrFstwn4l-26" value="" style="curved=1;endArrow=none;html=1;rounded=0;fontFamily=Helvetica;fontSize=12;fontColor=#000000;strokeColor=#000000;strokeWidth=1;opacity=60;endFill=0;" edge="1" parent="1">
          <mxGeometry width="50" height="50" relative="1" as="geometry">
            <mxPoint x="1365" y="423" as="sourcePoint" />
            <mxPoint x="1354" y="416" as="targetPoint" />
            <Array as="points">
              <mxPoint x="1364.5" y="415" />
            </Array>
          </mxGeometry>
        </mxCell>
        <mxCell id="1TEJy7Q_EAJVrFstwn4l-29" value="&lt;font face=&quot;宋体&quot;&gt;&lt;b&gt;=58.05°&lt;/b&gt;&lt;/font&gt;" style="text;html=1;strokeColor=none;fillColor=none;align=center;verticalAlign=middle;whiteSpace=wrap;rounded=0;labelBackgroundColor=default;sketch=0;fontFamily=Helvetica;fontSize=12;fontColor=default;" vertex="1" parent="1">
          <mxGeometry x="1365" y="430.5" width="60" height="30" as="geometry" />
        </mxCell>
        <mxCell id="1TEJy7Q_EAJVrFstwn4l-30" value="&lt;font face=&quot;宋体&quot;&gt;&lt;b&gt;$$\chi$$&lt;/b&gt;&lt;/font&gt;" style="text;html=1;strokeColor=none;fillColor=none;align=center;verticalAlign=middle;whiteSpace=wrap;rounded=0;labelBackgroundColor=default;sketch=0;fontFamily=Helvetica;fontSize=12;fontColor=default;" vertex="1" parent="1">
          <mxGeometry x="1350" y="431" width="24" height="26" as="geometry" />
        </mxCell>
        <mxCell id="1TEJy7Q_EAJVrFstwn4l-31" value="&lt;font face=&quot;宋体&quot;&gt;&lt;b&gt;v=1m/s&lt;/b&gt;&lt;/font&gt;" style="text;html=1;strokeColor=none;fillColor=none;align=center;verticalAlign=middle;whiteSpace=wrap;rounded=0;labelBackgroundColor=default;sketch=0;fontFamily=Helvetica;fontSize=12;fontColor=default;" vertex="1" parent="1">
          <mxGeometry x="1447" y="457" width="60" height="30" as="geometry" />
        </mxCell>
        <mxCell id="1TEJy7Q_EAJVrFstwn4l-32" value="&lt;font face=&quot;宋体&quot;&gt;&lt;b&gt;A&lt;/b&gt;&lt;/font&gt;" style="text;html=1;strokeColor=none;fillColor=none;align=center;verticalAlign=middle;whiteSpace=wrap;rounded=0;labelBackgroundColor=default;sketch=0;fontFamily=Helvetica;fontSize=12;fontColor=default;" vertex="1" parent="1">
          <mxGeometry x="1392" y="346" width="30" height="15" as="geometry" />
        </mxCell>
      </root>
    </mxGraphModel>
  </diagram>
</mxfile>
